<svg xmlns="http://www.w3.org/2000/svg" width="34.57" height="32.275" viewBox="0 0 34.57 32.275"><g transform="translate(-27.08 -42.29)"><path d="M410.11,242.92v17.125h5.647V242.92Zm2.827,4.315A1.232,1.232,0,1,1,414.169,246,1.232,1.232,0,0,1,412.937,247.235Z" transform="translate(-354.107 -185.48)" fill="#369cc7"/><path d="M184.71,132.3a5.427,5.427,0,1,0,5.427-5.427A5.427,5.427,0,0,0,184.71,132.3Zm5.427-4.223a4.223,4.223,0,1,1-4.224,4.224A4.223,4.223,0,0,1,190.137,128.074Z" transform="translate(-145.727 -78.193)" fill="#369cc7"/><path d="M230.365,158.233a2.533,2.533,0,0,0,1.064.36v.127a.445.445,0,0,0,.157.361.473.473,0,0,0,.3.111.492.492,0,0,0,.3-.1.449.449,0,0,0,.18-.371v-.141a1.588,1.588,0,0,0,.906-.453,1.5,1.5,0,0,0,.416-.913,1.884,1.884,0,0,0-.028-.529,1.521,1.521,0,0,0-.227-.57,1.6,1.6,0,0,0-.486-.458,1.95,1.95,0,0,0-.581-.241v-1.663a1.147,1.147,0,0,1,.214.2.738.738,0,0,1,.135.242,1.414,1.414,0,0,1,.063.3.4.4,0,0,0,.453.378c.2-.023.35-.173.4-.458a1.6,1.6,0,0,0-.453-1.14,1.72,1.72,0,0,0-.811-.445v-.2a.474.474,0,0,0-.8-.344.464.464,0,0,0-.14.344v.151a2.418,2.418,0,0,0-.5.126,1.8,1.8,0,0,0-.624.383,1.652,1.652,0,0,0-.39.575,1.551,1.551,0,0,0-.1.711,1.655,1.655,0,0,0,.566,1.1,2.114,2.114,0,0,0,1.044.444v1.627a1.308,1.308,0,0,1-.594-.227.916.916,0,0,1-.354-.5.421.421,0,0,0-.427-.369.445.445,0,0,0-.344.134.381.381,0,0,0-.076.341A1.605,1.605,0,0,0,230.365,158.233Zm.334-3.709a.817.817,0,0,1,.237-.631.948.948,0,0,1,.492-.257v1.616a1.242,1.242,0,0,1-.221-.076,1.322,1.322,0,0,1-.323-.219.536.536,0,0,1-.129-.183A1.087,1.087,0,0,1,230.7,154.524Zm2.14,2.656a.471.471,0,0,1-.032.141.577.577,0,0,1-.1.179.787.787,0,0,1-.227.175.56.56,0,0,1-.112.047V156.3a.792.792,0,0,1,.3.2.974.974,0,0,1,.174.671Z" transform="translate(-187.248 -101.572)" fill="#369cc7"/><path d="M71.873,124.407a3.8,3.8,0,1,0-3.8-3.8A3.8,3.8,0,0,0,71.873,124.407Zm0-6.4a2.6,2.6,0,1,1-2.6,2.6A2.6,2.6,0,0,1,71.873,118Z" transform="translate(-37.895 -68.884)" fill="#369cc7"/><path d="M161.98,48.246A2.978,2.978,0,1,0,159,45.268a2.978,2.978,0,0,0,2.98,2.978Zm0-4.753a1.775,1.775,0,1,1-1.772,1.775A1.775,1.775,0,0,1,161.98,43.493Z" transform="translate(-121.959)" fill="#369cc7"/><path d="M184.957,281.112l-1.057-.657a2.965,2.965,0,0,0-2.546-.252l-.495.206,2.478,1.366C183.858,281.555,184.4,281.331,184.957,281.112Z" transform="translate(-142.168 -219.784)" fill="#369cc7"/><path d="M99.5,282.8l-.585.273,5.319,2.451c.356-.164.947-.432,1.666-.748l-3.456-1.9A3.317,3.317,0,0,0,99.5,282.8Z" transform="translate(-66.406 -222.062)" fill="#369cc7"/><path d="M53.618,293.754c-.032-.019-3.185-1.925-5.376-1.812-1.858.1-7.824,2.7-10.051,3.739A5.62,5.62,0,0,0,37,296.888a.626.626,0,0,0-.021.68.714.714,0,0,0,.687.378l9.451-.671a.722.722,0,0,1,.1,1.441l-9.452.671a2.15,2.15,0,0,1-2.046-1.1,2.067,2.067,0,0,1,.093-2.221,6.471,6.471,0,0,1,.687-.819l-5.965-2.749h0l-.5-.227a3.121,3.121,0,0,0-2.956.378l11.186,8.729a5.142,5.142,0,0,0,4.849.967l10.507-2.78a.731.731,0,0,1,.185-.024h.753v-5.681h-.566a.722.722,0,0,1-.376-.1Z" transform="translate(0 -230.795)" fill="#369cc7"/></g></svg>