<svg xmlns="http://www.w3.org/2000/svg" width="29.572" height="33.269" viewBox="0 0 29.572 33.269"><g transform="translate(-4 -3)"><g transform="translate(4 3)"><path d="M31.724,10a1.746,1.746,0,0,0-1.848,1.848v5.545a3.707,3.707,0,0,1-3.7,3.7h-15.9l2.4-2.4A1.83,1.83,0,0,0,10.1,16.1L4.554,21.644a1.787,1.787,0,0,0,0,2.588L10.1,29.777a1.787,1.787,0,0,0,2.588,0,1.787,1.787,0,0,0,0-2.588l-2.4-2.4h15.9a7.415,7.415,0,0,0,7.393-7.393V11.848A1.746,1.746,0,0,0,31.724,10Z" transform="translate(-4 2.938)" fill="#369cc7"/><path d="M5.848,23.331A1.746,1.746,0,0,0,7.7,21.483V15.938a3.707,3.707,0,0,1,3.7-3.7h15.9l-2.4,2.4a1.787,1.787,0,0,0,0,2.588,1.787,1.787,0,0,0,2.588,0l5.545-5.545a1.787,1.787,0,0,0,0-2.588L27.473,3.554a1.787,1.787,0,0,0-2.588,0,1.787,1.787,0,0,0,0,2.588l2.4,2.4h-15.9A7.415,7.415,0,0,0,4,15.938v5.545A1.746,1.746,0,0,0,5.848,23.331Z" transform="translate(-4 -3)" fill="#369cc7"/></g></g></svg>