<svg xmlns="http://www.w3.org/2000/svg" xmlns:xlink="http://www.w3.org/1999/xlink" width="66.852" height="66.852" viewBox="0 0 66.852 66.852"><defs><clipPath id="a"><rect width="66.852" height="66.852" fill="none"/></clipPath><clipPath id="b"><path d="M33.426,66.852A33.426,33.426,0,1,1,66.852,33.426,33.426,33.426,0,0,1,33.426,66.852Z" fill="#d9e8ff"/></clipPath><clipPath id="c"><rect width="258" height="91" fill="none"/></clipPath></defs><g transform="translate(-3828 4164.5)"><g transform="translate(3828 -4164.5)" clip-path="url(#a)"><path d="M33.426,66.852A33.426,33.426,0,1,1,66.852,33.426,33.426,33.426,0,0,1,33.426,66.852Z" fill="#d9e8ff"/><g clip-path="url(#b)"><path d="M33.426,66.852A33.426,33.426,0,1,1,66.852,33.426,33.426,33.426,0,0,1,33.426,66.852Z" fill="#98cbff"/><path d="M24.635,14.924C11.1,15.546,9.475,29.538,0,30.159V5.6L49.27,0l52.518,5.6V23.63c-3.068.311-10.016-.249-13.265-4.975C84.463,12.748,71.739,11.193,64.7,8.395,59.07,6.156,50.082,5.6,46.292,5.6,43.585,8.5,35.464,14.427,24.635,14.924Z" transform="translate(89.344 54.922) rotate(180)" fill="#d9e8ff"/><path d="M0,0H89.049V32.231H0Z" transform="translate(0.201 49.499)" fill="#369cc7"/></g><g transform="translate(41.017 16.983)"><path d="M623.289,93.884s-.258-.275-.379-.209a.776.776,0,0,0-.258.344.127.127,0,0,0,.113.184.854.854,0,0,0,.163-.152l.234.19.008.321-.013.094-.2-.053-.043-.242a.115.115,0,0,0-.188-.069.173.173,0,0,0-.047.119c-.014.208,0,.571.24.683a5.776,5.776,0,0,0,.659.237l.194.2.8-.164-.157-.344-.074-1.072a1.913,1.913,0,0,0,.23-.594c-.017-.148-.117-.6-.117-.6a.108.108,0,0,0-.151.086,2.7,2.7,0,0,0,.014.506l-.211.357-.214-1.173a.1.1,0,0,0-.183-.034.328.328,0,0,0-.033.172c.007.3.121,1.012.086,1.022s-.132-.039-.172-.183-.245-.705-.33-.936a.077.077,0,0,0-.133-.022.426.426,0,0,0-.033.368c.059.237.184.709.2.766A1.079,1.079,0,0,1,623.289,93.884Z" transform="translate(-608.443 -91.319)" fill="#ffbf9d"/><path d="M629.932,117.695a.849.849,0,0,1-.073-.072.6.6,0,0,0-.437-.164c-.062,0-.1.013-.1.006s.034-.025.1-.036a.508.508,0,0,1,.462.172C629.923,117.654,629.937,117.692,629.932,117.695Z" transform="translate(-614.549 -114.138)" fill="#ff9a6c"/><path d="M612,399.793l1.32,2.042.578,1.916a.25.25,0,0,0,.326.161h0a.239.239,0,0,0,.153-.172,22.639,22.639,0,0,0,.4-2.821c-.114-.172-1.152-1.9-1.152-1.9Z" transform="translate(-598.721 -371.493)" fill="#263238"/><path d="M637.85,422.561l.463-3.131.054.086a.376.376,0,0,1,.052.254c-.037.235-.152,1.363-.41,2.616a.238.238,0,0,1-.159.172Z" transform="translate(-622.345 -390.146)" fill="#455a64"/><g transform="translate(15.219 29.141)" opacity="0.6"><path d="M634.539,417.849a.15.15,0,0,0,.068.189.144.144,0,0,0,.188-.065.158.158,0,0,0-.073-.2.15.15,0,0,0-.188.086" transform="translate(-634.528 -417.766)" fill="#fff"/></g><path d="M631.077,440.794a.753.753,0,0,0-.281-.05.766.766,0,0,0-.266.1c-.005,0,.011-.036.055-.072a.4.4,0,0,1,.424-.04C631.06,440.761,631.081,440.789,631.077,440.794Z" transform="translate(-615.655 -409.575)" fill="#fff"/><path d="M632.3,445.744a2.3,2.3,0,0,0-.238.024,1.816,1.816,0,0,0-.218.1c-.013-.007.06-.113.2-.15S632.309,445.729,632.3,445.744Z" transform="translate(-616.855 -414.157)" fill="#fff"/><path d="M629.889,435.193a2.549,2.549,0,0,0-.37.012,3.344,3.344,0,0,0-.351.117.546.546,0,0,1,.344-.172A.559.559,0,0,1,629.889,435.193Z" transform="translate(-614.41 -404.499)" fill="#fff"/><path d="M627.613,428.184c0,.016-.142.039-.294.125s-.248.195-.258.184a.473.473,0,0,1,.234-.231A.491.491,0,0,1,627.613,428.184Z" transform="translate(-612.484 -398.144)" fill="#fff"/><path d="M624.841,423.051a1.252,1.252,0,0,0-.309.121,1.4,1.4,0,0,0-.232.238c-.015-.007,0-.042.032-.1a.525.525,0,0,1,.172-.183.532.532,0,0,1,.235-.086C624.8,423.037,624.842,423.045,624.841,423.051Z" transform="translate(-609.956 -393.445)" fill="#fff"/><path d="M552.2,251.11c0,.082.6,7.623.838,8.116s4.806,6.125,4.806,6.125l1.909-1.315-4.053-5.873-.114-5.5-.94-2.158Z" transform="translate(-544.069 -235.759)" fill="#263238"/><path d="M582.965,240.05a14.77,14.77,0,0,1,.725,2.675c.048.763-1.362,14.31-1.362,14.31L580,256.849l.6-13.137L579.6,240.95Z" transform="translate(-569.11 -226.208)" fill="#263238"/><path d="M564.183,274a.1.1,0,0,0,0,.027v.077q.006.1.018.3l.074,1.146.275,4.091v.009l3.259,4.73.792,1.148.006-.032-1.909,1.316.03,0-3.462-4.3-1-1.238-.263-.333-.07-.086a.248.248,0,0,0-.024-.028l.021.03.067.086.258.333.991,1.247,3.444,4.316.013.016.016-.011,1.919-1.31.019-.013-.013-.019-.788-1.151-3.271-4.725v.009c-.121-1.691-.221-3.1-.292-4.089-.036-.492-.065-.88-.086-1.145q-.015-.2-.023-.3a.678.678,0,0,0-.007-.077C564.177,274,564.183,274,564.183,274Z" transform="translate(-552.943 -257.236)" fill="#455a64"/><path d="M571.324,422l.048,1.767s-1.779.642-1.8.969l3.428.03.038-2.755Z" transform="translate(-559.943 -392.494)" fill="#263238"/><path d="M601.066,440.9a.14.14,0,0,1,.1.161.134.134,0,0,1-.158.1.147.147,0,0,1-.1-.172.14.14,0,0,1,.172-.082" transform="translate(-588.576 -409.763)" fill="#e0e0e0"/><path d="M572.985,451.218l-.007-.278-3.284.076s-.153.065-.137.172Z" transform="translate(-559.93 -418.943)" fill="#455a64"/><path d="M589.859,442.156c0,.017.086.025.166.08s.125.125.14.119-.009-.1-.109-.172S589.856,442.14,589.859,442.156Z" transform="translate(-578.486 -410.898)" fill="#fff"/><path d="M585.67,443.948c0,.016.068.046.124.117s.072.146.086.145.028-.095-.043-.183S585.67,443.936,585.67,443.948Z" transform="translate(-574.657 -412.548)" fill="#fff"/><path d="M581.89,445.917c.016,0,.04-.079,0-.172s-.12-.129-.127-.115.04.063.074.139S581.874,445.917,581.89,445.917Z" transform="translate(-571.086 -414.088)" fill="#fff"/><path d="M590.245,437.041c.007.016.086-.007.178,0s.172.038.177.024-.062-.075-.172-.082S590.237,437.028,590.245,437.041Z" transform="translate(-578.838 -406.187)" fill="#fff"/><path d="M551.022,80.954a.385.385,0,0,0-.017-.765.4.4,0,0,0-.5-.573.479.479,0,0,0-.794-.212.539.539,0,0,0-.647.144.382.382,0,0,0-.172.71" transform="translate(-540.876 -79.268)" fill="#263238"/><path d="M545.437,89.387c-.095-.413-.357-1.247-.6-2a1.636,1.636,0,0,0-1.933-1.077l-.082.018a1.47,1.47,0,0,0-.846,2.021l.889,3.075,2.1-.232-.151-.616A1.049,1.049,0,0,0,545.437,89.387Z" transform="translate(-534.62 -85.665)" fill="#ffbf9d"/><path d="M563.544,135.7a2.126,2.126,0,0,1-1.194-.058,1.079,1.079,0,0,0,1.241.269Z" transform="translate(-553.345 -130.787)" fill="#ff9a6c"/><path d="M571.676,108.037a.126.126,0,0,1-.086.152.12.12,0,0,1-.151-.08.125.125,0,0,1,.086-.151.12.12,0,0,1,.152.079Z" transform="translate(-561.648 -105.483)" fill="#263238"/><path d="M570.264,103.8c-.011.019-.12-.027-.25.005s-.211.121-.229.108,0-.038.034-.078a.344.344,0,0,1,.178-.106.328.328,0,0,1,.2.016C570.249,103.766,570.27,103.791,570.264,103.8Z" transform="translate(-560.133 -101.615)" fill="#263238"/><path d="M558.259,111.414a.126.126,0,0,1-.086.152.121.121,0,0,1-.152-.08.126.126,0,0,1,.086-.151.12.12,0,0,1,.152.079Z" transform="translate(-549.385 -108.569)" fill="#263238"/><path d="M555.678,107.876c-.009.021-.121-.016-.25.025s-.2.137-.22.126,0-.038.028-.081a.344.344,0,0,1,.377-.118C555.661,107.843,555.683,107.868,555.678,107.876Z" transform="translate(-546.812 -105.354)" fill="#263238"/><path d="M565.364,107.1a.892.892,0,0,1,.2-.086c.033-.011.063-.026.063-.05a.172.172,0,0,0-.046-.094c-.052-.073-.1-.15-.16-.231a4.439,4.439,0,0,1-.382-.611,4.531,4.531,0,0,1,.43.579l.156.233a.193.193,0,0,1,.049.127.086.086,0,0,1-.043.062.2.2,0,0,1-.055.022A.879.879,0,0,1,565.364,107.1Z" transform="translate(-555.804 -103.724)" fill="#263238"/><path d="M553.723,103.137c0,.038-.117.065-.244.132s-.218.149-.247.125c-.013-.012-.007-.051.024-.1a.436.436,0,0,1,.163-.146.418.418,0,0,1,.211-.049C553.683,103.1,553.718,103.119,553.723,103.137Z" transform="translate(-545.006 -101.046)" fill="#263238"/><path d="M569,99.374c-.02.034-.126.021-.246.04s-.218.059-.247.032c-.013-.014,0-.046.037-.086a.391.391,0,0,1,.4-.059C568.991,99.33,569.01,99.358,569,99.374Z" transform="translate(-558.969 -97.55)" fill="#263238"/><path d="M542.073,85.485s-.354-.48-.641-.542c-.344-.076-.4.3-.715.287s-.649-.086-.9.218c-.271.331-.073.47,0,.852.286,1.55.111,2.052-.143,1.35-.028-.077-.258-.086-.374-.413a3.868,3.868,0,0,1-.268-1.275,1.237,1.237,0,0,1,.344-.754,2.083,2.083,0,0,1,1.315-.612A1.315,1.315,0,0,1,542.073,85.485Z" transform="translate(-532.035 -84.131)" fill="#263238"/><path d="M541.224,117.877a.238.238,0,0,0-.3-.163c-.155.053-.31.186-.22.517a.449.449,0,0,0,.7.282C541.4,118.5,541.293,118.118,541.224,117.877Z" transform="translate(-533.535 -114.394)" fill="#ffbf9d"/><path d="M543.513,120.372a.183.183,0,0,1-.023.022.1.1,0,0,1-.074.022.256.256,0,0,1-.177-.192.355.355,0,0,1-.011-.152.12.12,0,0,1,.054-.1.053.053,0,0,1,.067.011c.012.014.012.027.016.027s.009-.013,0-.035a.066.066,0,0,0-.033-.03.078.078,0,0,0-.059,0,.147.147,0,0,0-.081.119.352.352,0,0,0,.009.172c.035.115.125.208.215.209a.113.113,0,0,0,.086-.04A.068.068,0,0,0,543.513,120.372Z" transform="translate(-535.829 -116.44)" fill="#ff9a6c"/><path d="M536.873,84.791a.569.569,0,0,0,.275.054.2.2,0,0,0,.178-.184c0-.042-.024-.086-.005-.124s.086-.048.134-.054a.382.382,0,0,0,.321-.36.161.161,0,0,0,.214-.03.823.823,0,0,0,.117-.208.247.247,0,0,1,.172-.148.567.567,0,0,0,.133,0c.075-.025.091-.123.086-.2s-.019-.172.035-.226a.307.307,0,0,1,.207-.056c.073-.007.16-.046.162-.119a.146.146,0,0,0-.052-.1.387.387,0,0,0-.479-.035.525.525,0,0,0-.962.127.533.533,0,0,0-.783.388.387.387,0,0,0-.292.649.369.369,0,0,0-.128.331.211.211,0,0,0,.282.153.214.214,0,0,0,.41.121" transform="translate(-529.448 -82.438)" fill="#263238"/><path d="M539.309,87.63v.01a.2.2,0,0,1,0,.032.368.368,0,0,1-.015.122.422.422,0,0,1-.1.172.393.393,0,0,1-.216.126l.007-.015a.219.219,0,0,1,.027.164.623.623,0,0,1-.065.167.417.417,0,0,1-.049.086.207.207,0,0,1-.086.057.219.219,0,0,1-.2-.022l.021-.011a.45.45,0,0,1-.113.344.329.329,0,0,1-.172.108.6.6,0,0,1-.2,0l.014-.011a.475.475,0,0,1-.094.214.251.251,0,0,1-.189.1.328.328,0,0,1-.307-.191h.015a.314.314,0,0,1-.193.077.328.328,0,0,1-.155-.029.277.277,0,0,1-.086-.055.167.167,0,0,1-.022-.027.36.36,0,0,0,.108.073.338.338,0,0,0,.15.023.3.3,0,0,0,.181-.077l.01-.009.005.012a.313.313,0,0,0,.29.172.228.228,0,0,0,.172-.1.444.444,0,0,0,.086-.2v-.012h.02a.561.561,0,0,0,.189,0,.307.307,0,0,0,.163-.1.426.426,0,0,0,.106-.327V88.48l.023.017a.2.2,0,0,0,.18.019.183.183,0,0,0,.074-.049.434.434,0,0,0,.047-.077.616.616,0,0,0,.065-.161.2.2,0,0,0-.022-.148l-.009-.013h.016a.387.387,0,0,0,.214-.116.43.43,0,0,0,.1-.161A.459.459,0,0,0,539.309,87.63Z" transform="translate(-530.296 -86.91)" fill="#455a64"/><path d="M564.749,121.556a2.045,2.045,0,0,1,.5.033h0a.409.409,0,0,1-.074.32.238.238,0,0,1-.234.056.266.266,0,0,1-.172-.155A.556.556,0,0,1,564.749,121.556Z" transform="translate(-555.53 -117.912)" fill="#ff9a6c"/><path d="M564.829,121.816a.264.264,0,0,1-.158-.005.241.241,0,0,1-.124-.112.384.384,0,0,1-.04-.2.137.137,0,0,1,.006-.053h.026l.108.005.182.007a.651.651,0,0,0,.172-.005.689.689,0,0,0-.167-.025l-.182-.015-.108-.008h-.03a.046.046,0,0,0-.041.029.315.315,0,0,0-.008.065.407.407,0,0,0,.047.227.268.268,0,0,0,.148.121.207.207,0,0,0,.128,0C564.818,121.83,564.83,121.818,564.829,121.816Z" transform="translate(-555.276 -117.773)" fill="#263238"/><path d="M469.038,152.271l-3.258.959-1.074-1.407c.008.166-1.326-.043-1.326-.043.947,2.282,1.47,3.044,1.611,3.11a16.79,16.79,0,0,0,3.284.091c.214-.052,2.171-.331,2.171-.331l-.359-2.74-.814.258a1.245,1.245,0,0,0-.236.1Z" transform="translate(-462.895 -145.538)" fill="#455a64"/><path d="M540.025,147.244c-.188-.71-.6-2.33-.6-2.33l-.855-5.028-1.917.016-.16-.337a.172.172,0,0,0-.189-.1l-2.032.362a.172.172,0,0,0-.146.2l.038.272-1.55.574-.172,2.252,1.253,5.129.076.723a.622.622,0,0,0,.248.43l.222.167,5.616-1.3.139-.381a1.092,1.092,0,0,0,.031-.653Z" transform="translate(-526.01 -134.282)" fill="#455a64"/><path d="M552.2,238.365l.052.759,6-1.4-.215-.975Z" transform="translate(-544.069 -223.193)" fill="#455a64"/><path d="M613.564,242.28a1.018,1.018,0,0,0,.01.309,1.061,1.061,0,0,0,.057.3A2.051,2.051,0,0,0,613.564,242.28Z" transform="translate(-600.143 -228.246)" fill="#263238"/><path d="M602.541,244.85a1.047,1.047,0,0,0,.034.311,1.065,1.065,0,0,0,.08.3,1.05,1.05,0,0,0-.034-.312A1.092,1.092,0,0,0,602.541,244.85Z" transform="translate(-590.076 -230.595)" fill="#263238"/><path d="M590.9,248.28a.978.978,0,0,0,.029.3.957.957,0,0,0,.076.288.986.986,0,0,0-.03-.3A.958.958,0,0,0,590.9,248.28Z" transform="translate(-579.44 -233.73)" fill="#263238"/><path d="M576.4,251.67a1.219,1.219,0,0,0,.038.335,1.267,1.267,0,0,0,.086.327,1.228,1.228,0,0,0-.038-.336A1.282,1.282,0,0,0,576.4,251.67Z" transform="translate(-566.181 -236.828)" fill="#263238"/><path d="M562.81,254.78a1.141,1.141,0,0,0,.063.313,1.08,1.08,0,0,0,.108.3,1.128,1.128,0,0,0-.064-.312A1.1,1.1,0,0,0,562.81,254.78Z" transform="translate(-553.766 -239.67)" fill="#263238"/><path d="M599.58,125.973h.217a1.55,1.55,0,0,1,.749.21l1.894,1.105-.46-2.743,1.495-.306s.878,3.567.875,4.132a1.255,1.255,0,0,1-1.759,1.263c-.258-.08-3.392-1.5-3.392-1.5Z" transform="translate(-587.023 -120.368)" fill="#455a64"/><path d="M605.989,156c.013,0-.126-1.071-.31-2.386s-.344-2.383-.356-2.38.126,1.07.31,2.386S605.976,156,605.989,156Z" transform="translate(-592.618 -145.035)" fill="#263238"/><path d="M569.1,200.75a.3.3,0,0,0-.028.035l-.075.108-.269.4c-.227.335-.547.794-.915,1.291s-.715.935-.97,1.249l-.3.372-.082.1a.155.155,0,0,0-.026.038.211.211,0,0,0,.034-.032l.086-.1c.076-.086.183-.208.314-.362.258-.31.614-.746.983-1.243s.689-.96.9-1.3c.11-.172.2-.309.258-.406l.067-.112A.217.217,0,0,0,569.1,200.75Z" transform="translate(-557.074 -190.292)" fill="#263238"/><path d="M571.557,186.58a.745.745,0,0,0-.069.108l-.172.3c-.148.258-.356.6-.593.988s-.461.723-.623.968l-.194.292a.747.747,0,0,0-.066.109.624.624,0,0,0,.086-.1c.05-.066.12-.163.2-.283.172-.241.4-.58.636-.963s.441-.737.582-1c.071-.13.126-.236.163-.31a.64.64,0,0,0,.046-.116Z" transform="translate(-560.19 -177.342)" fill="#263238"/><path d="M555.4,144.574c0-.007-.127.055-.335.133a4.335,4.335,0,0,1-.835.226,4.411,4.411,0,0,1-.861.051c-.222-.009-.358-.028-.36-.021a.36.36,0,0,0,.095.022,2.453,2.453,0,0,0,.263.032,3.72,3.72,0,0,0,1.707-.278,2.45,2.45,0,0,0,.239-.114.356.356,0,0,0,.086-.051Z" transform="translate(-544.809 -138.952)" fill="#263238"/><g transform="translate(9.726 10.969)" opacity="0.3"><path d="M572.705,206.68a3.478,3.478,0,0,1-1.985,2.658Z" transform="translate(-570.72 -206.68)"/></g><path d="M530.343,170.32c-.012,0,.14.671.34,1.49s.373,1.482.386,1.48-.139-.671-.34-1.491S530.356,170.316,530.343,170.32Z" transform="translate(-524.093 -162.481)" fill="#263238"/><path d="M459.186,139.5a.264.264,0,0,1,.276.121,1.7,1.7,0,0,1,.172.7s.263.046.272.153-.054.213-.307.209c0,0-.167.319-.331.206a.213.213,0,0,1-.113-.244s-.149.248-.381-.071a.281.281,0,0,1-.217.052.258.258,0,0,1-.158-.106s-.143.078-.226-.023a3.954,3.954,0,0,1-.4-.661.352.352,0,0,1,.113-.392.431.431,0,0,1,.311-.005.317.317,0,0,1,.405-.039.377.377,0,0,1,.587.1Z" transform="translate(-457.75 -134.137)" fill="#ffbf9d"/><path d="M462.3,145.34a1.484,1.484,0,0,0,.119.352,2.4,2.4,0,0,1,.086.243c.016.063.03.1.037.1s.008-.043-.005-.11a1.5,1.5,0,0,0-.078-.252A1.565,1.565,0,0,0,462.3,145.34Z" transform="translate(-461.908 -139.652)" fill="#ff9a6c"/><path d="M466.53,144.32a2.119,2.119,0,0,0,.1.43,1.583,1.583,0,0,0,.163.411,3,3,0,0,0-.119-.425A2.145,2.145,0,0,0,466.53,144.32Z" transform="translate(-465.774 -138.72)" fill="#ff9a6c"/><path d="M472.094,144.38c-.013,0,.06.2.119.457a2.365,2.365,0,0,1,.057.325.569.569,0,0,1-.013.132.175.175,0,0,0,.05-.133,1.4,1.4,0,0,0-.045-.337A1.367,1.367,0,0,0,472.094,144.38Z" transform="translate(-470.858 -138.775)" fill="#ff9a6c"/><path d="M478.434,145.05c-.016,0,.047.207.072.463a2.109,2.109,0,0,1,0,.328.6.6,0,0,1-.034.129.174.174,0,0,0,.067-.124,1.341,1.341,0,0,0,.011-.337A1.228,1.228,0,0,0,478.434,145.05Z" transform="translate(-476.651 -139.387)" fill="#ff9a6c"/></g><g transform="translate(9.874 22.261)"><path d="M125.585,294.639s-.545-.55-.7,2.777c-.148,3.141-.364,7.669.391,9.611a1.033,1.033,0,0,0,.418.509,1.735,1.735,0,0,0,.654.236c.656.1,3.252.045,3.252.045s1.474,0,1.5-1.212c.018-1,0-3.169,0-3.169Z" transform="translate(-122.263 -281.345)" fill="#263238"/><g transform="translate(2.474 13.261)" opacity="0.3"><path d="M125.585,294.639s-.545-.55-.7,2.777c-.148,3.141-.364,7.669.391,9.611a1.033,1.033,0,0,0,.418.509,1.735,1.735,0,0,0,.654.236c.656.1,3.252.045,3.252.045s1.474,0,1.5-1.212c.018-1,0-3.169,0-3.169Z" transform="translate(-124.738 -294.605)"/></g><path d="M473.872,294.639s-.545-.55-.7,2.777c-.147,3.141-.363,7.669.391,9.611a1.038,1.038,0,0,0,.418.509,1.735,1.735,0,0,0,.654.236c.657.1,3.252.045,3.252.045s1.473,0,1.5-1.212c.018-1,0-3.169,0-3.169Z" transform="translate(-440.567 -281.345)" fill="#263238"/><g transform="translate(32.458 13.261)" opacity="0.3"><path d="M473.872,294.639s-.545-.55-.7,2.777c-.147,3.141-.363,7.669.391,9.611a1.038,1.038,0,0,0,.418.509,1.735,1.735,0,0,0,.654.236c.657.1,3.252.045,3.252.045s1.473,0,1.5-1.212c.018-1,0-3.169,0-3.169Z" transform="translate(-473.025 -294.605)"/></g><path d="M526.585,219.02s-.165.562-.505.621-3.02.141-3.02.141l-.258.539h-.5l-.367-2.161.313.065a.333.333,0,0,1,.239.195h0a.334.334,0,0,0,.271.2Z" transform="translate(-485.262 -211.48)" fill="#263238"/><path d="M533.742,202.629a.344.344,0,0,0,.316-.393,2.117,2.117,0,0,0-1.6-1.995,8.172,8.172,0,0,0-2.226-.057.381.381,0,0,0-.3.377c-.1.849-.019,1.9.226,2.031A20.665,20.665,0,0,0,533.742,202.629Z" transform="translate(-492.533 -195.006)" fill="#369cc7"/><path d="M556.11,201.44a.492.492,0,0,1,.068.086c.042.056.1.14.166.246a6.4,6.4,0,0,1,.775,1.791c.031.121.053.22.066.289a.538.538,0,0,1,.016.108.458.458,0,0,1-.033-.1c-.018-.067-.045-.164-.079-.284a8.045,8.045,0,0,0-.33-.916,7.909,7.909,0,0,0-.442-.867c-.063-.108-.115-.194-.153-.253A.653.653,0,0,1,556.11,201.44Z" transform="translate(-516.499 -196.2)" fill="#263238"/><path d="M510.415,320.829s.544-.55.7,2.777c.147,3.141.363,7.669-.392,9.611a1.034,1.034,0,0,1-.418.509,1.738,1.738,0,0,1-.653.237c-.657.1-3.252.044-3.252.044s-1.473,0-1.5-1.212c-.018-1,0-3.168,0-3.168Z" transform="translate(-469.695 -305.28)" fill="#263238"/><path d="M510.245,320.811l-.025.043c-.018.029-.044.071-.077.126-.069.11-.172.273-.3.484-.263.424-.647,1.041-1.132,1.818-.972,1.556-2.347,3.756-3.96,6.337v2.953a2.356,2.356,0,0,0,.015.383,1.076,1.076,0,0,0,.121.361,1.166,1.166,0,0,0,.58.491,4.2,4.2,0,0,0,1.581.172c.57.005,1.134.007,1.688-.009a5.724,5.724,0,0,0,.82-.064,1.73,1.73,0,0,0,.383-.123,1.194,1.194,0,0,0,.333-.214,1.026,1.026,0,0,0,.228-.317,1.689,1.689,0,0,0,.067-.185l.062-.188a1.63,1.63,0,0,0,.053-.189l.047-.19c.034-.126.055-.254.077-.381.052-.253.079-.508.113-.758.016-.125.025-.251.038-.374s.025-.248.031-.371c.07-.986.079-1.925.073-2.8s-.033-1.7-.061-2.444-.059-1.422-.086-2.015a14.89,14.89,0,0,0-.146-1.514,2.737,2.737,0,0,0-.264-.918.366.366,0,0,0-.09-.108.146.146,0,0,0-.1-.032.136.136,0,0,0-.077.031.063.063,0,0,1,.016-.014.126.126,0,0,1,.06-.022.145.145,0,0,1,.1.03.379.379,0,0,1,.1.108,2.713,2.713,0,0,1,.274.92,14.663,14.663,0,0,1,.153,1.516c.031.593.064,1.268.095,2.015s.058,1.565.066,2.445,0,1.819-.069,2.806c-.006.124-.02.247-.031.372s-.021.251-.037.376c-.034.251-.062.506-.113.761-.022.127-.044.258-.077.383-.015.064-.032.127-.047.191a1.5,1.5,0,0,1-.053.191l-.062.189a2.005,2.005,0,0,1-.069.189,1.072,1.072,0,0,1-.238.331,1.249,1.249,0,0,1-.344.223,1.818,1.818,0,0,1-.393.127,5.767,5.767,0,0,1-.827.065c-.556.016-1.119.014-1.691.009l-.81-.012a2.175,2.175,0,0,1-.788-.165,1.205,1.205,0,0,1-.6-.51,1.132,1.132,0,0,1-.127-.375,2.463,2.463,0,0,1-.016-.389c0-1.027,0-2.019,0-2.965v-.01l3.975-6.33c.489-.775.876-1.389,1.142-1.808.133-.209.235-.371.3-.48l.079-.123A.214.214,0,0,1,510.245,320.811Z" transform="translate(-469.524 -305.262)" fill="#455a64"/><path d="M97.154,320.829s-.544-.55-.7,2.777c-.147,3.141-.363,7.669.392,9.611a1.033,1.033,0,0,0,.418.509,1.738,1.738,0,0,0,.653.237c.657.1,3.252.044,3.252.044s1.473,0,1.5-1.212c.018-1,0-3.168,0-3.168Z" transform="translate(-96.279 -305.28)" fill="#263238"/><path d="M137.217,153.254l-1.205-.793c-.275-1.232-2.51-3.788-2.51-3.788s-2.324-5.614-4.336-6.938-11.819-1.157-11.819-1.157l-.517.008s-10.394-.172-12.4,1.149-4.336,6.938-4.336,6.938-2.238,2.556-2.509,3.788l-1.205.793a.835.835,0,0,0-.38.727c.074,2.079.473,10.331,1.171,11.26.668.887,6.98.417,8.7.414,2.461,0,10.125-.1,10.125-.1l11.263-.028c1.278-.137,8.3.723,9.171-.281.758-.877,1.1-9.181,1.171-11.26A.835.835,0,0,0,137.217,153.254Z" transform="translate(-95.995 -140.571)" fill="#369cc7"/><path d="M191.873,151.7a.3.3,0,0,0-.245-.149l-11.4-.489h-.09v.007l-11.676.482a.3.3,0,0,0-.245.149l-2.973,5.189a.266.266,0,0,0,.223.4c.327.009.811.015,1.377-.009.914-.038,8.189-.021,12.028-.008v.008l1.179,0,1.179,0v-.008c3.84-.013,11.113-.03,12.028.008.592.024,1.1.018,1.423.008a.238.238,0,0,0,.2-.356Z" transform="translate(-159.244 -150.157)" fill="#455a64"/><path d="M99.12,219.02s.165.562.505.621,3.018.141,3.018.141l.258.539h.512l.367-2.161-.312.065a.333.333,0,0,0-.239.195h0a.334.334,0,0,1-.271.2Z" transform="translate(-98.851 -211.48)" fill="#263238"/><path d="M175.728,211.145l27.428-.075.222.545-13.253.087-14.656-.1Z" transform="translate(-168.628 -205.001)" fill="#369cc7"/><g transform="translate(6.842 6.069)" opacity="0.5"><path d="M175.728,211.145l27.35-.075.3.545-13.253.087-14.656-.1Z" transform="translate(-175.47 -211.07)"/></g><path d="M265.306,196.272a2.414,2.414,0,0,0-.393-1.371,2.1,2.1,0,0,0-.972-.24h-.023a3.05,3.05,0,0,0-1.284.241,2.414,2.414,0,0,0-.393,1.371v.009a.337.337,0,0,0,.337.337h2.392a.337.337,0,0,0,.337-.337Z" transform="translate(-247.928 -190.004)" fill="#263238"/><g transform="translate(14.312 4.657)" opacity="0.3"><path d="M265.306,196.272a2.414,2.414,0,0,0-.393-1.371,2.1,2.1,0,0,0-.972-.24h-.023a3.05,3.05,0,0,0-1.284.241,2.414,2.414,0,0,0-.393,1.371v.009a.337.337,0,0,0,.337.337h2.392a.337.337,0,0,0,.337-.337Z" transform="translate(-262.24 -194.66)"/></g><path d="M230.549,182.809a3.959,3.959,0,0,0-.643-2.244,3.39,3.39,0,0,0-1.591-.394h-.039a4.973,4.973,0,0,0-2.1.4,3.946,3.946,0,0,0-.643,2.244v.015a.552.552,0,0,0,.552.552H230a.552.552,0,0,0,.552-.552Z" transform="translate(-214.378 -176.761)" fill="#263238"/><g transform="translate(1.339 19.166)" opacity="0.3"><path d="M121.586,364.4s-8.781-1.154-9.138-1.2a.685.685,0,0,0-.834.705c0,.294-.04,1.42-.063,2.059a1.033,1.033,0,0,0,.5.926,3.431,3.431,0,0,0,.775.323c.739.217,5.189.423,6.112.463a.415.415,0,0,0,.294-.1,13.582,13.582,0,0,0,1.5-1.487c.917-1.3.852-1.688.852-1.688Zm-4.558,2.4-4.246-.689.167-2.324,5.768.523Z" transform="translate(-111.551 -363.198)"/></g><g transform="translate(1.511 12.08)" opacity="0.3"><path d="M113.572,283.212s-.43,1.321,2.329,1.935c2.8.622,6.938,1.75,6.938,1.75l-2.224-1.585s-6.4-1.068-6.555-2.045a9.076,9.076,0,0,1,0-2.377Z" transform="translate(-113.547 -280.89)"/></g><path d="M120.392,357.821a.117.117,0,0,1-.03-.006l-.086-.021-.336-.086c-.293-.071-.715-.176-1.239-.292-1.049-.236-2.506-.523-4.125-.786-.809-.132-1.581-.253-2.287-.344l-1-.137a5.5,5.5,0,0,0-.872-.08,1.19,1.19,0,0,0-.678.195,1.366,1.366,0,0,0-.374.39,1.157,1.157,0,0,0-.167.43.589.589,0,0,1,.018-.12,1.06,1.06,0,0,1,.134-.319,1.366,1.366,0,0,1,.374-.4,1.213,1.213,0,0,1,.689-.2,5.393,5.393,0,0,1,.878.074l1,.133c.705.086,1.478.209,2.287.344,1.619.264,3.077.556,4.125.8.524.12.947.23,1.236.306l.333.093.086.025A.12.12,0,0,1,120.392,357.821Z" transform="translate(-108.063 -337.49)" fill="#263238"/><path d="M109.731,286.011a.172.172,0,0,1,0-.049V285.3c.005-.438.028-1.043.086-1.71s.142-1.266.214-1.7c.036-.216.068-.39.092-.51l.029-.138a.167.167,0,0,1,.013-.047.192.192,0,0,1,0,.049q-.008.054-.021.139c-.019.127-.046.3-.077.512-.065.43-.142,1.033-.2,1.7s-.086,1.268-.1,1.705c-.006.214-.01.39-.014.517v.141a.224.224,0,0,1-.021.049Z" transform="translate(-108.547 -269.093)" fill="#263238"/><path d="M132.041,240.72a.512.512,0,0,1,0-.106.99.99,0,0,1,.008-.124c.006-.048.009-.1.02-.164a6.436,6.436,0,0,1,.225-.924c.111-.354.231-.668.321-.894.046-.113.086-.2.113-.265a.373.373,0,0,1,.048-.094.592.592,0,0,1-.032.1c-.027.072-.06.163-.1.269-.086.228-.2.543-.308.9a8.061,8.061,0,0,0-.241.913C132.051,240.568,132.049,240.72,132.041,240.72Z" transform="translate(-128.935 -229.749)" fill="#263238"/><path d="M119.573,273.69s-1.44-.525-1.625.591a5,5,0,0,0,.077,2.619c.242.391,2.466.922,2.466.922l3.846.845s.277.058.11-.258a17.224,17.224,0,0,0-1.794-3.143A9.093,9.093,0,0,0,119.573,273.69Z" transform="translate(-115.946 -262.117)" fill="#f5f5f5"/><g transform="translate(2.401 11.422)" opacity="0.3"><path d="M126.526,277.64a16.445,16.445,0,0,0-.187-2.927,15.6,15.6,0,0,0-2.46-1.341.825.825,0,0,1,.673-.1,7.382,7.382,0,0,1,1.831.611,6.119,6.119,0,0,1,2,1.313c.163.231.5.783.827,1.383.422.779.821,1.612.821,1.658,0,.1.022.182-.351.1C128.816,278.157,126.526,277.64,126.526,277.64Z" transform="translate(-123.88 -273.248)"/></g><ellipse cx="0.933" cy="0.933" rx="0.933" ry="0.933" transform="translate(5.366 13.71)" fill="#f5f5f5"/><path d="M159.949,300.529a1.948,1.948,0,0,0-.038-.226.93.93,0,0,0-.34-.5.913.913,0,1,0-.386,1.627.907.907,0,0,0,.386-.172.93.93,0,0,0,.34-.5,1.954,1.954,0,0,0,.038-.226.737.737,0,0,1-.021.23.941.941,0,0,1-1.237.665.959.959,0,0,1-.444-.331.947.947,0,0,1,0-1.13.959.959,0,0,1,.444-.331.941.941,0,0,1,.9.141.926.926,0,0,1,.338.524A.737.737,0,0,1,159.949,300.529Z" transform="translate(-152.717 -285.886)" fill="#263238"/><path d="M159.541,300.915a.909.909,0,0,1,.8.47.907.907,0,1,0-1.59,0A.907.907,0,0,1,159.541,300.915Z" transform="translate(-153.242 -286.311)" fill="#e0e0e0"/><path d="M165.3,306.042a.4.4,0,1,1-.4-.4A.4.4,0,0,1,165.3,306.042Z" transform="translate(-158.602 -291.429)" fill="#fff"/><path d="M165.036,305.842a.756.756,0,0,0-.021-.1.4.4,0,0,0-.147-.211.382.382,0,1,0,0,.614.4.4,0,0,0,.147-.211c.017-.06.016-.1.021-.1s0,.009,0,.026a.334.334,0,0,1-.007.075.4.4,0,0,1-.145.232.416.416,0,0,1-.4.065.422.422,0,0,1,0-.795.416.416,0,0,1,.4.065.4.4,0,0,1,.145.232.332.332,0,0,1,.007.074C165.039,305.833,165.038,305.842,165.036,305.842Z" transform="translate(-158.334 -291.229)" fill="#263238"/><path d="M160.64,300.851c-.016.028-.1,0-.228,0a.8.8,0,0,0-.8.424c-.065.11-.091.194-.124.192s-.06-.1-.024-.25a.755.755,0,0,1,.977-.523C160.595,300.745,160.657,300.826,160.64,300.851Z" transform="translate(-153.989 -286.868)" fill="#fff"/><path d="M174.845,303.4c-.052.035-.1.056-.107.047s.011-.055.045-.108.086-.077.112-.053S174.894,303.364,174.845,303.4Z" transform="translate(-167.958 -289.27)" fill="#fff"/><path d="M192.083,276.267a.2.2,0,0,1-.037,0h-.108l-.417,0-1.529.005h-5.047l-2.779-.005h-1.761a.689.689,0,0,0-.467.135l-.665.56-.275.23a.734.734,0,0,1-.273.131.742.742,0,0,1-.24.017l-.172-.009-.108-.007h.108l.172.005a.746.746,0,0,0,.236-.022.716.716,0,0,0,.264-.131l.271-.232.664-.566a.715.715,0,0,1,.486-.145h4.539l5.047.012,1.529.009h.524Z" transform="translate(-171.096 -264.558)" fill="#263238"/><path d="M154.948,379.862c-.046-.1-.145-.167-.338-.145a65.05,65.05,0,0,1-6.956,0c-.777-.187-3.367-3.125-4.463-3.326-.919-.168-5.39-.258-6.808-.217-1.418-.04-5.888.049-6.807.217-1.1.2-3.647,3.426-4.424,3.616a62.81,62.81,0,0,1-6.995-.288c-.195-.022-.293.048-.338.145a.316.316,0,0,0,.283.443c1.205.034,5.84.086,6.708.071l11.785-.215c2.353.015,10.392.066,11.243.078,1,.014,5.625.1,6.826.065a.317.317,0,0,0,.284-.445Z" transform="translate(-115.916 -355.882)" fill="#263238"/><path d="M315.37,153.218c.046,0,.186.81.839.795s2.249,0,2.249,0V153Z" transform="translate(-296.484 -151.93)" fill="#263238"/><path d="M97.037,202.629a.344.344,0,0,1-.316-.393,2.117,2.117,0,0,1,1.6-1.995,8.172,8.172,0,0,1,2.226-.057.381.381,0,0,1,.3.377c.1.849.019,1.9-.226,2.031A20.665,20.665,0,0,1,97.037,202.629Z" transform="translate(-96.655 -195.006)" fill="#369cc7"/><path d="M147.193,153a.076.076,0,0,1-.009.021l-.029.057-.116.218c-.1.192-.252.464-.43.8l-1.448,2.623-1.231,2.21h0l-.987.758-.274.207-.073.053a.115.115,0,0,1-.026.017l.023-.022.069-.057.268-.214.978-.775-.005.006,1.224-2.214,1.464-2.617.447-.79.124-.214.033-.055A.09.09,0,0,1,147.193,153Z" transform="translate(-138.56 -151.93)" fill="#263238"/><path d="M201.834,147.37a1.52,1.52,0,0,1-.213.086,2.016,2.016,0,0,0-.483.254,2.049,2.049,0,0,0-.379.392,1.6,1.6,0,0,1-.139.182.941.941,0,0,1,.114-.2,1.538,1.538,0,0,1,.876-.659A.9.9,0,0,1,201.834,147.37Z" transform="translate(-191.613 -146.785)" fill="#263238"/><g transform="translate(5.27 6.994)" opacity="0.3"><path d="M157.292,221.81l-.086.057a39.521,39.521,0,0,0,2.941,5.316l.625-.531C159.426,225.345,158.417,223.314,157.292,221.81Z" transform="translate(-157.205 -221.81)"/></g><path d="M204.81,374.61a.322.322,0,0,0,.047-.022,1.294,1.294,0,0,0,.127-.09q.161-.129.452-.392c.384-.35.928-.87,1.582-1.531q.245-.248.508-.523a7.023,7.023,0,0,1,.56-.562,2.6,2.6,0,0,1,.74-.416,3.3,3.3,0,0,1,.882-.183c.154-.011.311-.012.467-.014l.478,0,.985-.009,2.07-.02,7.267-.059,2.2-.014h.6l-.6.01-2.2.027-7.267.073-2.07.019-.985.009h-.478c-.158,0-.312,0-.465.013a3.245,3.245,0,0,0-.871.179,2.562,2.562,0,0,0-.731.408,6.949,6.949,0,0,0-.558.557c-.172.183-.344.356-.511.522-.657.658-1.205,1.175-1.593,1.521-.195.172-.349.3-.459.386a1.02,1.02,0,0,1-.129.086A.112.112,0,0,1,204.81,374.61Z" transform="translate(-195.442 -350.952)" fill="#263238"/><g transform="translate(2.444 17.481)" opacity="0.3"><path d="M126.666,344.67a5.113,5.113,0,0,0-.851-.728c-.316-.2-.77-.43-1.056-.248a1.861,1.861,0,0,0-.344.539.258.258,0,0,0-.021.212c.04.082.145.1.235.115l1.976.248c.039.005.086.005.105-.028S126.7,344.7,126.666,344.67Z" transform="translate(-124.381 -343.628)" fill="#fff"/></g><g transform="translate(12.432 16.867)" opacity="0.3"><path d="M240.4,336.906c5.045,1.342,10.371,1.005,15.555.411a3.446,3.446,0,0,0,2.218-.818" transform="translate(-240.4 -336.5)"/></g><path d="M232.316,282.814a92.594,92.594,0,0,0-10.221-.414,93.925,93.925,0,0,0-10.222.414,1.023,1.023,0,0,0-.843,1.3.031.031,0,0,0,.006.022c.215.707,1.065,2.965,2.418,3.3a73.517,73.517,0,0,0,7.937.338v.006H222.8v-.006a73.538,73.538,0,0,0,7.938-.338c1.352-.338,2.2-2.6,2.417-3.3a.088.088,0,0,1,.006-.022,1.023,1.023,0,0,0-.843-1.3Z" transform="translate(-201.089 -270.19)" fill="#263238"/><path d="M228.529,331.993l-.052.028-.155.079-.251.128c-.051.025-.1.054-.162.081l-.188.086a14.367,14.367,0,0,1-2.318.816,21.927,21.927,0,0,1-3.6.6c-1.368.127-2.879.154-4.462.148a35.819,35.819,0,0,1-4.458-.258,19.064,19.064,0,0,1-3.556-.792,13.946,13.946,0,0,1-2.258-.969c-.128-.067-.239-.133-.337-.189s-.177-.1-.242-.146l-.147-.092-.049-.033s.018.009.052.028l.149.086c.065.04.146.086.244.142s.209.12.338.185a14.273,14.273,0,0,0,2.26.954,19.222,19.222,0,0,0,3.552.781,36.517,36.517,0,0,0,4.452.258c1.583.009,3.092-.02,4.459-.145a22.142,22.142,0,0,0,3.59-.588,14.679,14.679,0,0,0,2.319-.8l.188-.081c.059-.027.112-.054.163-.079l.254-.124.156-.076Z" transform="translate(-196.804 -315.045)" fill="#263238"/><path d="M234.137,299.762c0,.013-4.917.022-10.982.022s-10.984-.009-10.984-.022,4.917-.022,10.984-.022S234.137,299.749,234.137,299.762Z" transform="translate(-202.169 -286.037)" fill="#455a64"/><path d="M234.137,291.972c0,.012-4.917.022-10.982.022s-10.984-.01-10.984-.022,4.917-.022,10.984-.022S234.137,291.96,234.137,291.972Z" transform="translate(-202.169 -278.918)" fill="#455a64"/><path d="M264.3,284.2c0,.012-3.52.022-7.861.022s-7.863-.01-7.863-.022,3.519-.022,7.863-.022S264.3,284.189,264.3,284.2Z" transform="translate(-235.444 -271.817)" fill="#455a64"/><path d="M234.137,307.622c0,.012-4.917.022-10.982.022s-10.984-.01-10.984-.022,4.917-.022,10.984-.022S234.137,307.61,234.137,307.622Z" transform="translate(-202.169 -293.221)" fill="#455a64"/><path d="M237.743,315.5c0,.012-4.722.022-10.546.022s-10.547-.01-10.547-.022,4.721-.022,10.547-.022S237.743,315.49,237.743,315.5Z" transform="translate(-206.263 -300.422)" fill="#455a64"/><path d="M241.313,323.382c0,.012-4.595.022-10.261.022s-10.262-.01-10.262-.022,4.594-.022,10.262-.022S241.313,323.369,241.313,323.382Z" transform="translate(-210.046 -307.624)" fill="#455a64"/><path d="M246.456,331.262c0,.012-4.358.022-9.728.022s-9.728-.01-9.728-.022,4.357-.022,9.732-.022S246.456,331.249,246.456,331.262Z" transform="translate(-215.722 -314.825)" fill="#455a64"/><path d="M253.914,339.132c0,.013-4.037.022-9.016.022s-9.018-.009-9.018-.022,4.037-.022,9.018-.022S253.914,339.12,253.914,339.132Z" transform="translate(-223.837 -322.018)" fill="#455a64"/><path d="M125.115,418.079v.006a.238.238,0,0,1-.22.306l-1.431-.024a.251.251,0,0,1-.22-.224l-.009-.08a.243.243,0,0,1,.258-.258l1.418.1A.237.237,0,0,1,125.115,418.079Z" transform="translate(-120.889 -393.937)" fill="#fff"/><path d="M236.381,411.1c0,.012-4.614.022-10.3.022s-10.306-.01-10.306-.022,4.614-.022,10.306-.022S236.381,411.089,236.381,411.1Z" transform="translate(-205.459 -387.792)" fill="#455a64"/><path d="M261.677,412.091h-.6l-.042-.751h.692Z" transform="translate(-246.822 -388.03)" fill="#455a64"/><path d="M327.337,412.091h-.6l-.043-.751h.693Z" transform="translate(-306.83 -388.03)" fill="#455a64"/><path d="M393.007,412.091h-.6l-.043-.751h.693Z" transform="translate(-366.846 -388.03)" fill="#455a64"/><path d="M239.141,378.921c-1.093-.942-2.565-2.391-3.324-2.529-.919-.168-5.39-.258-6.807-.217-1.418-.04-5.889.049-6.808.217-.705.129-2.013,1.511-3.062,2.529Z" transform="translate(-208.539 -355.882)" fill="#455a64"/><path d="M113.51,396.08a.346.346,0,0,1,.048-.043l.142-.119.54-.438h.011l2.973.365,1.624.206h0l1.456.8.412.231.108.063a.178.178,0,0,1,.036.023.222.222,0,0,1-.04-.018l-.111-.057-.418-.22-1.464-.787h.007l-1.625-.2-2.971-.381h.011l-.548.43-.144.107A.514.514,0,0,1,113.51,396.08Z" transform="translate(-112.002 -373.535)" fill="#263238"/><path d="M124.113,367.862s.293-.494,0-.619c-.336-.144-5.94-.816-6.17-.836-.455-.04-.619.165-.726.7s-.344,1.858.107,2.243a4.265,4.265,0,0,0,2.541.641,4.919,4.919,0,0,0,2.8-.252A5.842,5.842,0,0,0,124.113,367.862Z" transform="translate(-115.245 -346.961)" fill="#263238"/><path d="M120.55,277.426a2.024,2.024,0,0,1-.229-.4c-.136-.265-.329-.648-.579-1.115-.127-.232-.266-.487-.43-.752a7.98,7.98,0,0,0-.55-.815,2.573,2.573,0,0,0-.36-.372,3,3,0,0,0-.448-.309c-.161-.094-.335-.183-.509-.275s-.351-.184-.531-.273a7.739,7.739,0,0,0-1.074-.442,5.5,5.5,0,0,0-.534-.14,2.054,2.054,0,0,0-.51-.059.689.689,0,0,0-.679.473,2.587,2.587,0,0,0-.121.416c-.03.14-.061.279-.092.407l-.3,1.223a2.024,2.024,0,0,1-.124.447,1.568,1.568,0,0,1,.039-.463c.044-.3.12-.72.223-1.241.025-.131.051-.268.077-.41a2.628,2.628,0,0,1,.119-.452.942.942,0,0,1,.306-.43.972.972,0,0,1,.536-.177,2.232,2.232,0,0,1,.561.056,5.6,5.6,0,0,1,.556.14,7.663,7.663,0,0,1,1.111.455c.183.086.362.184.536.277s.344.183.517.282a3.291,3.291,0,0,1,.475.335,2.755,2.755,0,0,1,.383.409,7.569,7.569,0,0,1,.549.849c.156.274.288.535.407.775.234.48.405.875.517,1.151A1.9,1.9,0,0,1,120.55,277.426Z" transform="translate(-111.972 -260.923)" fill="#263238"/><path d="M124.615,287.7a1.155,1.155,0,0,1,1.012.6,1.155,1.155,0,1,0-2.025,0A1.155,1.155,0,0,1,124.615,287.7Z" transform="translate(-121.095 -274.024)" fill="#e0e0e0"/><ellipse cx="0.498" cy="0.498" rx="0.498" ry="0.498" transform="translate(3.022 13.188)" fill="#fff"/><path d="M131.859,294.106a.455.455,0,0,0-.023-.12.5.5,0,0,0-.183-.263.479.479,0,1,0,0,.766.5.5,0,0,0,.183-.263c.021-.075.019-.12.023-.12s0,.011,0,.032a.381.381,0,0,1-.01.092.49.49,0,0,1-.18.284.513.513,0,1,1,0-.816.49.49,0,0,1,.18.284.385.385,0,0,1,.01.092C131.862,294.094,131.861,294.106,131.859,294.106Z" transform="translate(-127.842 -280.42)" fill="#263238"/><path d="M125.524,287.506a2.016,2.016,0,0,0-.045-.28,1.154,1.154,0,0,0-.421-.626,1.13,1.13,0,0,0-.48-.211,1.154,1.154,0,0,0-.6.051,1.092,1.092,0,0,0-.287.155,1.059,1.059,0,0,0-.239.241,1.128,1.128,0,0,0,0,1.34,1.043,1.043,0,0,0,.239.241,1.067,1.067,0,0,0,.287.155,1.136,1.136,0,0,0,1.076-.16,1.15,1.15,0,0,0,.421-.626,2,2,0,0,0,.045-.28.444.444,0,0,1,0,.074.516.516,0,0,1-.007.086.837.837,0,0,1-.022.121,1.165,1.165,0,0,1-1.528.82,1.174,1.174,0,0,1-.548-1.8,1.126,1.126,0,0,1,.25-.25,1.109,1.109,0,0,1,.3-.159,1.178,1.178,0,0,1,.617-.048,1.164,1.164,0,0,1,.913.87.836.836,0,0,1,.022.121.516.516,0,0,1,.007.086A.437.437,0,0,1,125.524,287.506Z" transform="translate(-120.849 -273.781)" fill="#263238"/><path d="M126.5,288.063c-.017.028-.119-.009-.279-.024a.976.976,0,0,0-1.007.536c-.077.142-.1.247-.135.245s-.061-.117-.013-.3a.933.933,0,0,1,1.19-.634C126.433,287.947,126.512,288.04,126.5,288.063Z" transform="translate(-122.54 -275.16)" fill="#fff"/><path d="M144.052,291.176c-.052.034-.1.052-.114.04s0-.062.037-.114.086-.076.12-.046S144.1,291.141,144.052,291.176Z" transform="translate(-139.806 -278.089)" fill="#fff"/><path d="M148.839,332.236a27.805,27.805,0,0,1-3.45-.756,27.318,27.318,0,0,1-3.391-.974,27.811,27.811,0,0,1,3.45.756A27.915,27.915,0,0,1,148.839,332.236Z" transform="translate(-138.037 -314.149)" fill="#263238"/><path d="M115.672,267.98a.124.124,0,0,1,0-.027.593.593,0,0,1,.013-.077,1.1,1.1,0,0,1,.106-.282.927.927,0,0,1,.33-.344,1.407,1.407,0,0,1,.13-.065c.047-.014.1-.035.148-.046a1.175,1.175,0,0,1,.162-.026,1.053,1.053,0,0,1,.172,0,4.342,4.342,0,0,1,.751.146c.266.071.546.159.838.258.583.2,1.216.447,1.864.746.08.039.16.077.238.12a1.511,1.511,0,0,1,.22.149,2.362,2.362,0,0,1,.367.363c.2.274.376.542.548.8.344.517.636.985.875,1.386s.42.733.543.962c.062.115.108.2.139.266l.035.07a.122.122,0,0,1,.01.025.125.125,0,0,1-.015-.022l-.039-.068-.147-.258c-.127-.227-.314-.555-.555-.955s-.538-.868-.882-1.377c-.172-.258-.352-.527-.548-.795a2.349,2.349,0,0,0-.36-.356,1.493,1.493,0,0,0-.213-.144c-.077-.041-.156-.08-.236-.119-.644-.3-1.277-.543-1.858-.747-.291-.1-.569-.191-.833-.263a4.346,4.346,0,0,0-.744-.15,1.1,1.1,0,0,0-.168,0,1.033,1.033,0,0,0-.158.024,1.48,1.48,0,0,0-.145.042c-.044.022-.086.038-.127.062a.919.919,0,0,0-.326.33,1.154,1.154,0,0,0-.107.268c-.009.034-.014.059-.017.076A.153.153,0,0,1,115.672,267.98Z" transform="translate(-113.978 -256.215)" fill="#263238"/><path d="M107.393,201.44a.562.562,0,0,1-.053.095c-.037.059-.09.145-.153.253a7.748,7.748,0,0,0-.775,1.783c-.034.12-.061.217-.079.284a.459.459,0,0,1-.033.1.539.539,0,0,1,.016-.108c.013-.069.035-.168.066-.289a6.371,6.371,0,0,1,.775-1.791c.066-.106.123-.19.165-.246A.49.49,0,0,1,107.393,201.44Z" transform="translate(-105.413 -196.2)" fill="#263238"/><g transform="translate(0.133 12.252)" opacity="0.3"><path d="M98.745,282.89c-.086.028-.553.319-.751.43a.861.861,0,0,0-.43.505,1.284,1.284,0,0,0,.068.666c.2.71.441,1.987.645,2.7.16-1.291.334-3.481.467-4.3" transform="translate(-97.542 -282.89)" fill="#fff"/></g><path d="M122.94,392.815c0,.013-1.333-.162-2.973-.388s-2.967-.421-2.967-.436,1.333.162,2.974.389S122.94,392.8,122.94,392.815Z" transform="translate(-115.192 -370.346)" fill="#455a64"/><path d="M123.055,398.046a.226.226,0,0,1-.056,0l-.159-.018-.586-.071-1.934-.231c-.755-.086-1.439-.172-1.933-.244-.247-.034-.447-.063-.584-.086l-.159-.026a.215.215,0,0,1-.054-.012.389.389,0,0,1,.056,0l.159.017.586.071,1.934.231c.755.086,1.439.172,1.933.244.247.034.446.063.584.086l.158.026A.3.3,0,0,1,123.055,398.046Z" transform="translate(-115.731 -375.252)" fill="#455a64"/><path d="M129,403.443a4.22,4.22,0,0,1-.57-.042c-.352-.035-.838-.086-1.377-.152s-1.022-.122-1.372-.168l-.416-.057a1.18,1.18,0,0,1-.152-.027.882.882,0,0,1,.153.009l.418.042,1.377.156,1.373.165.415.053C128.944,403.434,129,403.443,129,403.443Z" transform="translate(-122.603 -380.405)" fill="#455a64"/><path d="M123.241,388.566c0,.012-1.4-.162-3.128-.389s-3.124-.421-3.122-.43,1.4.162,3.128.388S123.243,388.553,123.241,388.566Z" transform="translate(-115.183 -366.467)" fill="#455a64"/><path d="M123.712,384.225c0,.012-1.452-.168-3.239-.4s-3.235-.436-3.234-.448,1.451.172,3.239.4S123.714,384.213,123.712,384.225Z" transform="translate(-115.411 -362.47)" fill="#455a64"/><path d="M124.954,379.249c0,.012-1.492-.172-3.33-.416s-3.326-.447-3.324-.46,1.492.172,3.33.416S124.956,379.237,124.954,379.249Z" transform="translate(-116.38 -357.9)" fill="#455a64"/><path d="M126.1,374.265c0,.012-1.519-.177-3.389-.424s-3.385-.455-3.383-.467,1.519.177,3.389.424S126.107,374.253,126.1,374.265Z" transform="translate(-117.321 -353.332)" fill="#455a64"/><path d="M128.007,369.336c0,.012-1.531-.179-3.416-.43s-3.413-.459-3.411-.471,1.531.179,3.417.43S128.009,369.324,128.007,369.336Z" transform="translate(-119.012 -348.817)" fill="#455a64"/><path d="M135.609,367.92c.012,0-.137.748-.331,1.665s-.363,1.658-.376,1.655.137-.748.332-1.665S135.6,367.917,135.609,367.92Z" transform="translate(-131.552 -348.348)" fill="#455a64"/><path d="M129.069,366.82c.012,0-.136.748-.331,1.665s-.363,1.659-.375,1.656.136-.748.331-1.666S129.057,366.817,129.069,366.82Z" transform="translate(-125.576 -347.342)" fill="#455a64"/><path d="M122.9,365.73c.013,0-.127.708-.312,1.575s-.344,1.569-.356,1.566.127-.708.313-1.575S122.892,365.727,122.9,365.73Z" transform="translate(-119.974 -346.346)" fill="#455a64"/><path d="M118.05,367.22a.407.407,0,0,1-.011.095c-.013.07-.028.155-.046.258-.04.226-.093.517-.152.843s-.117.628-.164.842c-.024.107-.045.194-.06.253a.4.4,0,0,1-.028.091.351.351,0,0,1,.011-.095c.012-.071.028-.156.046-.258.04-.226.093-.517.152-.844s.116-.628.164-.841c.024-.108.044-.194.059-.253A.367.367,0,0,1,118.05,367.22Z" transform="translate(-115.73 -347.708)" fill="#455a64"/><path d="M143.444,369.27c.012,0-.131.721-.319,1.606s-.35,1.6-.362,1.6.131-.721.319-1.607S143.432,369.267,143.444,369.27Z" transform="translate(-138.736 -349.581)" fill="#455a64"/><path d="M150.947,370.79c.012,0-.132.724-.32,1.611s-.352,1.6-.364,1.6.132-.724.32-1.611S150.935,370.787,150.947,370.79Z" transform="translate(-145.59 -350.971)" fill="#455a64"/><path d="M158.8,371.2c.012,0-.13.718-.317,1.6s-.349,1.59-.361,1.588.13-.717.317-1.6S158.786,371.2,158.8,371.2Z" transform="translate(-152.773 -351.345)" fill="#455a64"/><path d="M166.453,372.2c.012,0-.129.714-.315,1.588s-.344,1.581-.359,1.579.129-.714.315-1.588S166.441,372.2,166.453,372.2Z" transform="translate(-159.771 -352.259)" fill="#455a64"/><path d="M174.453,373.7c.012,0-.12.667-.294,1.485s-.325,1.48-.337,1.477.119-.668.294-1.486S174.439,373.7,174.453,373.7Z" transform="translate(-167.121 -353.63)" fill="#455a64"/><path d="M182.6,374.33c.012,0-.11.624-.273,1.389s-.3,1.383-.317,1.377.11-.624.273-1.389S182.589,374.327,182.6,374.33Z" transform="translate(-174.605 -354.206)" fill="#455a64"/><path d="M192.768,375.57a15.9,15.9,0,0,1-.348,1.634,15.319,15.319,0,0,1,.348-1.634Z" transform="translate(-184.119 -355.339)" fill="#455a64"/><path d="M242.832,403.992c0,.013-4.278.022-9.556.022s-9.556-.009-9.556-.022,4.277-.022,9.556-.022S242.832,403.98,242.832,403.992Z" transform="translate(-212.724 -381.294)" fill="#263238"/><path d="M247.283,398.972c0,.012-4.094.022-9.144.022s-9.139-.01-9.139-.022,4.093-.022,9.144-.022S247.283,398.959,247.283,398.972Z" transform="translate(-217.55 -376.706)" fill="#263238"/><path d="M251.137,393.832c0,.012-3.874.022-8.648.022s-8.649-.01-8.649-.022,3.874-.022,8.649-.022S251.137,393.819,251.137,393.832Z" transform="translate(-221.973 -372.009)" fill="#263238"/><path d="M255.455,388.692c0,.012-3.688.022-8.237.022s-8.238-.01-8.238-.022,3.688-.022,8.238-.022S255.455,388.679,255.455,388.692Z" transform="translate(-226.671 -367.311)" fill="#263238"/><path d="M260.854,383.762c0,.013-3.419.022-7.637.022s-7.637-.009-7.637-.022,3.419-.022,7.637-.022S260.854,383.753,260.854,383.762Z" transform="translate(-232.702 -362.806)" fill="#263238"/><path d="M268.2,378.9c0,.012-3.089.022-6.9.022s-6.9-.01-6.9-.022,3.089-.022,6.9-.022S268.2,378.89,268.2,378.9Z" transform="translate(-240.763 -358.364)" fill="#263238"/><g transform="translate(5.972 7.096)" opacity="0.3"><path d="M181.362,223.024h0l-16-.024a2.541,2.541,0,0,0,1.882.785c1.112-.007,11.937,0,13.836,0h.284c1.755,0,11.068-.006,12.031,0a1.961,1.961,0,0,0,1.585-.76Z" transform="translate(-165.36 -223)"/></g><path d="M194.368,156.868l-3.028-5.251a.277.277,0,0,0-.227-.139l-10.417-.446h0l-1-.043c-.12-.005-.24-.005-.36,0l-1,.043h0l-10.417.446a.278.278,0,0,0-.227.139l-3.028,5.251a.276.276,0,0,0,.2.411c.043.007.086.013.138.018.263.029,10.831.01,14.515,0,3.684.008,14.251.027,14.515,0l.138-.017a.277.277,0,0,0,.2-.412Zm-1.394-.22-13.457.09-13.457-.09a.276.276,0,0,1-.238-.415c.579-1,2.038-3.517,2.271-3.807.423-.526,6.973-.595,10.46-.595a.265.265,0,0,0,.065.008c.2,0,.512,0,.9-.005s.7,0,.9.005a.265.265,0,0,0,.065-.008c3.485,0,10.037.069,10.46.595.233.29,1.692,2.8,2.271,3.807a.276.276,0,0,1-.238.415Z" transform="translate(-158.721 -150.088)" fill="#263238"/><path d="M377.24,196.272a2.414,2.414,0,0,1,.393-1.371,2.1,2.1,0,0,1,.972-.24h.023a3.05,3.05,0,0,1,1.284.241,2.494,2.494,0,0,1,.393,1.371v.009a.337.337,0,0,1-.337.337h-2.392a.337.337,0,0,1-.337-.337Z" transform="translate(-353.028 -190.004)" fill="#263238"/><g transform="translate(24.212 4.657)" opacity="0.3"><path d="M377.24,196.272a2.414,2.414,0,0,1,.393-1.371,2.1,2.1,0,0,1,.972-.24h.023a3.05,3.05,0,0,1,1.284.241,2.494,2.494,0,0,1,.393,1.371v.009a.337.337,0,0,1-.337.337h-2.392a.337.337,0,0,1-.337-.337Z" transform="translate(-377.24 -194.66)"/></g><path d="M391.27,182.809a3.959,3.959,0,0,1,.643-2.244,3.39,3.39,0,0,1,1.591-.394h.039a4.973,4.973,0,0,1,2.1.4,3.946,3.946,0,0,1,.643,2.244v.015a.552.552,0,0,1-.552.552h-3.915a.552.552,0,0,1-.552-.552Z" transform="translate(-365.85 -176.761)" fill="#263238"/><g transform="translate(30.217 19.165)" opacity="0.3"><path d="M446.99,364.394h0s-.065.392.852,1.688a13.578,13.578,0,0,0,1.5,1.487.415.415,0,0,0,.294.1c.922-.04,5.373-.246,6.112-.463a3.431,3.431,0,0,0,.775-.323,1.033,1.033,0,0,0,.5-.926c-.023-.64-.063-1.765-.063-2.059a.683.683,0,0,0-.833-.705C455.771,363.24,446.99,364.394,446.99,364.394Zm2.87-.086,5.768-.523.167,2.324-4.245.689Z" transform="translate(-446.989 -363.188)"/></g><g transform="translate(30.793 12.08)" opacity="0.3"><path d="M462.942,283.212s.435,1.321-2.324,1.935c-2.8.622-6.938,1.75-6.938,1.75l2.224-1.585s6.4-1.068,6.555-2.045a9.075,9.075,0,0,0,0-2.377Z" transform="translate(-453.68 -280.89)"/></g><path d="M435.89,357.785a.119.119,0,0,1,.028-.01l.086-.025.333-.093c.291-.076.712-.186,1.236-.306,1.048-.244,2.505-.535,4.125-.8.81-.131,1.582-.251,2.287-.344l1-.133a5.386,5.386,0,0,1,.877-.074,1.213,1.213,0,0,1,.689.2,1.366,1.366,0,0,1,.374.4,1.059,1.059,0,0,1,.134.319.587.587,0,0,1,.018.12,1.157,1.157,0,0,0-.167-.43,1.377,1.377,0,0,0-.373-.39,1.2,1.2,0,0,0-.679-.195,5.515,5.515,0,0,0-.872.08l-1,.142c-.705.091-1.477.213-2.287.344-1.618.263-3.076.55-4.125.786-.524.115-.947.22-1.239.292l-.335.086-.086.021A.117.117,0,0,1,435.89,357.785Z" transform="translate(-406.629 -337.453)" fill="#263238"/><path d="M560.861,286.011a.225.225,0,0,1,0-.049v-.141c0-.128-.008-.3-.014-.517-.013-.437-.041-1.041-.1-1.705s-.137-1.265-.2-1.7c-.032-.212-.059-.386-.077-.512l-.021-.139a.192.192,0,0,1,0-.049.168.168,0,0,1,.013.047l.029.138c.024.121.056.294.092.51.072.43.155,1.033.214,1.7s.086,1.272.086,1.71v.517a1.324,1.324,0,0,1,0,.141A.172.172,0,0,1,560.861,286.011Z" transform="translate(-520.455 -269.093)" fill="#263238"/><path d="M535.2,240.738c-.009,0-.01-.15-.055-.388a8.048,8.048,0,0,0-.241-.913c-.11-.353-.225-.668-.308-.9-.039-.107-.072-.2-.1-.269a.556.556,0,0,1-.033-.1.376.376,0,0,1,.048.094c.028.062.067.152.113.265.086.226.21.54.321.894a6.43,6.43,0,0,1,.229.922c.011.06.014.115.02.164a.991.991,0,0,1,.008.124A.516.516,0,0,1,535.2,240.738Z" transform="translate(-496.713 -229.768)" fill="#263238"/><path d="M484.668,273.69s1.44-.525,1.625.591a5,5,0,0,1-.077,2.619c-.242.391-2.468.922-2.468.922l-3.846.845s-.277.058-.11-.258a17.224,17.224,0,0,1,1.794-3.143A9.1,9.1,0,0,1,484.668,273.69Z" transform="translate(-446.702 -262.117)" fill="#f5f5f5"/><g transform="translate(33.036 11.422)" opacity="0.3"><path d="M483.245,277.64a16.371,16.371,0,0,1,.188-2.927,15.63,15.63,0,0,1,2.459-1.341.825.825,0,0,0-.673-.1,7.382,7.382,0,0,0-1.831.611,6.119,6.119,0,0,0-2,1.313,15.867,15.867,0,0,0-.827,1.389c-.422.779-.821,1.612-.821,1.658,0,.1-.022.183.351.1C480.955,278.157,483.245,277.64,483.245,277.64Z" transform="translate(-479.737 -273.248)"/></g><ellipse cx="0.933" cy="0.933" rx="0.933" ry="0.933" transform="translate(34.358 13.71)" fill="#f5f5f5"/><path d="M495.072,300.564a.737.737,0,0,1,.021-.23.926.926,0,0,1,.338-.524.941.941,0,0,1,.9-.141.959.959,0,0,1,.444.331.947.947,0,0,1,0,1.129.9.9,0,0,1-.2.2.888.888,0,0,1-.242.129.941.941,0,0,1-.9-.141.926.926,0,0,1-.338-.524.737.737,0,0,1-.021-.23,1.944,1.944,0,0,0,.038.226.93.93,0,0,0,.344.5.905.905,0,0,0,.387.172.917.917,0,0,0,.479-.041.843.843,0,0,0,.23-.125.861.861,0,0,0,.193-.194.908.908,0,0,0,0-1.076.88.88,0,0,0-.193-.195.862.862,0,0,0-.23-.124.917.917,0,0,0-.866.127.93.93,0,0,0-.344.5A1.952,1.952,0,0,0,495.072,300.564Z" transform="translate(-460.714 -285.92)" fill="#263238"/><path d="M496.292,300.915a.909.909,0,0,0-.8.47.907.907,0,1,1,1.59,0A.907.907,0,0,0,496.292,300.915Z" transform="translate(-461.001 -286.311)" fill="#e0e0e0"/><path d="M501.26,306.042a.4.4,0,1,0,.4-.4A.4.4,0,0,0,501.26,306.042Z" transform="translate(-466.371 -291.429)" fill="#fff"/><path d="M501.259,305.843v-.026a.333.333,0,0,1,.007-.074.4.4,0,0,1,.146-.232.417.417,0,0,1,.4-.065.422.422,0,0,1,0,.795.416.416,0,0,1-.4-.065.4.4,0,0,1-.146-.232.337.337,0,0,1-.007-.075v-.026a.331.331,0,0,0,.021.1.4.4,0,0,0,.147.211.383.383,0,1,0,0-.614.4.4,0,0,0-.147.211C501.263,305.808,501.264,305.844,501.259,305.843Z" transform="translate(-466.37 -291.23)" fill="#263238"/><path d="M501.815,300.865c-.015-.023.046-.1.194-.159a.755.755,0,0,1,.978.521c.036.154,0,.25-.024.25s-.059-.082-.124-.192a.8.8,0,0,0-.8-.424C501.915,300.865,501.829,300.892,501.815,300.865Z" transform="translate(-466.876 -286.882)" fill="#fff"/><path d="M498.481,303.391c-.051-.035-.076-.086-.05-.113s.078,0,.112.053.052.1.045.108S498.532,303.427,498.481,303.391Z" transform="translate(-463.776 -289.262)" fill="#fff"/><path d="M335.32,276.331h.561l1.529-.009,5.047-.012H347a.715.715,0,0,1,.486.145l.664.566.271.232a.715.715,0,0,0,.264.131.747.747,0,0,0,.236.022l.172-.005h.109l-.108.007-.172.009a.742.742,0,0,1-.24-.017.734.734,0,0,1-.273-.131l-.275-.23-.666-.56a.689.689,0,0,0-.466-.135H345.24l-2.779.005H337.41l-1.529-.005-.417,0h-.108Z" transform="translate(-314.717 -264.622)" fill="#263238"/><path d="M125.422,379.862c.046-.1.145-.167.339-.145a65.034,65.034,0,0,0,6.955,0c.777-.187,3.367-3.125,4.463-3.326.919-.168,5.39-.258,6.808-.217,1.418-.04,5.888.049,6.807.217,1.1.2,3.647,3.426,4.424,3.616a62.81,62.81,0,0,0,6.995-.288c.195-.022.293.048.338.145a.316.316,0,0,1-.283.443c-1.205.034-5.84.086-6.708.071l-11.785-.215c-2.353.015-10.392.066-11.243.078-1,.014-5.625.1-6.826.065a.317.317,0,0,1-.284-.445Z" transform="translate(-122.864 -355.882)" fill="#263238"/><path d="M326.948,153.218c-.046,0-.009.81-.662.795s-1.885,0-1.885,0L323.86,153Z" transform="translate(-304.243 -151.93)" fill="#263238"/><path d="M314.474,168a.285.285,0,0,1,.23.117,3.2,3.2,0,0,1,.475.79.313.313,0,0,1-.281.356c-.18.022-3.628,0-3.984,0a.278.278,0,0,1-.065-.008c-.095-.023-.339-.1-.32-.268a4.08,4.08,0,0,1,.421-.849A.286.286,0,0,1,311.2,168Z" transform="translate(-292.059 -165.639)" fill="#263238"/><path d="M478.83,153a.1.1,0,0,1,.013.018l.033.055.124.214.447.79,1.459,2.617c.461.832.886,1.6,1.224,2.214l-.005-.006.978.775.268.214.07.057.022.022a.116.116,0,0,1-.026-.017l-.073-.053-.274-.207-.987-.758h0l-1.231-2.21-1.453-2.632c-.182-.334-.331-.6-.435-.8l-.116-.218-.029-.057A.077.077,0,0,1,478.83,153Z" transform="translate(-445.872 -151.93)" fill="#263238"/><path d="M460.38,147.37a.894.894,0,0,1,.224.053,1.538,1.538,0,0,1,.876.658.942.942,0,0,1,.114.2,1.6,1.6,0,0,1-.139-.182,1.722,1.722,0,0,0-.861-.646A1.517,1.517,0,0,1,460.38,147.37Z" transform="translate(-429.01 -146.785)" fill="#263238"/><g transform="translate(32.755 6.994)" opacity="0.3"><path d="M479.95,221.81l.086.057a39.524,39.524,0,0,1-2.941,5.316l-.625-.531C477.816,225.345,478.825,223.314,479.95,221.81Z" transform="translate(-476.47 -221.81)"/></g><path d="M266.68,374.71a.112.112,0,0,1-.05-.018,1.017,1.017,0,0,1-.129-.086c-.11-.082-.264-.213-.459-.386-.388-.344-.935-.861-1.593-1.521-.164-.165-.335-.338-.51-.522a6.957,6.957,0,0,0-.558-.557,2.562,2.562,0,0,0-.731-.408,3.244,3.244,0,0,0-.871-.179c-.153-.011-.307-.011-.465-.013h-.478l-.985-.009-2.07-.019-7.267-.073-2.2-.029-.6-.01h.6l2.2.014,7.267.059,2.071.02.984.009.486-.006c.157,0,.313,0,.467.014a3.3,3.3,0,0,1,.882.183,2.6,2.6,0,0,1,.74.416,7.018,7.018,0,0,1,.56.562c.172.183.344.358.508.523.654.66,1.2,1.18,1.582,1.531.192.172.344.307.452.392a1.286,1.286,0,0,0,.127.09A.328.328,0,0,0,266.68,374.71Z" transform="translate(-234.457 -351.053)" fill="#263238"/><g transform="translate(36.808 17.481)" opacity="0.3"><path d="M523.6,344.67a5.112,5.112,0,0,1,.851-.728c.316-.2.77-.43,1.056-.248a1.861,1.861,0,0,1,.344.539.258.258,0,0,1,.021.212c-.04.082-.145.1-.235.115l-1.98.248c-.039.005-.086.005-.105-.028S523.573,344.7,523.6,344.67Z" transform="translate(-523.55 -343.628)" fill="#fff"/></g><path d="M529.9,418.079v.006a.238.238,0,0,0,.22.306l1.431-.024a.251.251,0,0,0,.22-.224l.009-.08a.243.243,0,0,0-.258-.258l-1.416.1A.237.237,0,0,0,529.9,418.079Z" transform="translate(-492.534 -393.937)" fill="#fff"/><path d="M219.92,411.1c0-.013,4.614-.022,10.3-.022s10.306.009,10.306.022-4.614.022-10.306.022S219.92,411.114,219.92,411.1Z" transform="translate(-209.251 -387.792)" fill="#455a64"/><path d="M406.076,412.091h.6l.042-.751h-.692Z" transform="translate(-379.339 -388.03)" fill="#455a64"/><path d="M340.406,412.091h.6l.042-.751h-.692Z" transform="translate(-319.323 -388.03)" fill="#455a64"/><path d="M274.736,412.091h.6l.043-.751h-.693Z" transform="translate(-259.306 -388.03)" fill="#455a64"/><path d="M223.63,378.921c1.093-.942,2.565-2.391,3.324-2.529.919-.168,5.39-.258,6.808-.217,1.417-.04,5.888.049,6.807.217.705.129,2.013,1.511,3.062,2.529Z" transform="translate(-212.642 -355.882)" fill="#455a64"/><path d="M483.5,396.053a.466.466,0,0,1-.051-.039l-.148-.113-.548-.43h.011l-2.971.381-1.625.2h.007l-1.464.787-.418.22-.111.057a.222.222,0,0,1-.04.018.2.2,0,0,1,.036-.024l.108-.062.412-.231,1.456-.8h0l1.624-.206,2.98-.362h.011l.54.438.138.126A.344.344,0,0,1,483.5,396.053Z" transform="translate(-443.414 -373.508)" fill="#263238"/><path d="M474.739,367.862s-.293-.494,0-.619c.336-.144,5.94-.816,6.17-.836.455-.04.619.165.726.7s.344,1.858-.107,2.243a4.265,4.265,0,0,1-2.541.641,4.919,4.919,0,0,1-2.8-.252A5.842,5.842,0,0,1,474.739,367.862Z" transform="translate(-442.014 -346.961)" fill="#263238"/><path d="M479.437,277.38a1.753,1.753,0,0,1,.15-.44c.112-.276.283-.671.517-1.151.12-.239.251-.5.408-.775a7.438,7.438,0,0,1,.548-.849,2.715,2.715,0,0,1,.384-.409,3.237,3.237,0,0,1,.474-.335c.172-.1.344-.189.517-.282s.353-.187.536-.277a7.7,7.7,0,0,1,1.111-.455,5.6,5.6,0,0,1,.556-.14,2.237,2.237,0,0,1,.562-.056.971.971,0,0,1,.535.177.947.947,0,0,1,.307.43,2.7,2.7,0,0,1,.118.452c.027.142.052.279.077.41.1.521.181.947.224,1.241a1.659,1.659,0,0,1,.038.463,2.15,2.15,0,0,1-.124-.447l-.293-1.224c-.031-.128-.061-.267-.092-.407a2.589,2.589,0,0,0-.121-.419.689.689,0,0,0-.679-.473,2.054,2.054,0,0,0-.51.059,5.489,5.489,0,0,0-.534.14,7.739,7.739,0,0,0-1.078.446c-.18.086-.357.181-.531.273s-.344.182-.509.275a3.05,3.05,0,0,0-.448.309,2.52,2.52,0,0,0-.359.372,7.856,7.856,0,0,0-.551.815c-.161.265-.3.517-.43.752-.25.467-.443.851-.579,1.115A2.365,2.365,0,0,1,479.437,277.38Z" transform="translate(-446.425 -260.878)" fill="#263238"/><path d="M525.955,287.7a1.155,1.155,0,0,0-1.012.6,1.155,1.155,0,1,1,2.025,0A1.155,1.155,0,0,0,525.955,287.7Z" transform="translate(-487.884 -274.024)" fill="#e0e0e0"/><path d="M532.44,294.258a.5.5,0,1,0,.5-.5A.5.5,0,0,0,532.44,294.258Z" transform="translate(-494.867 -280.572)" fill="#fff"/><path d="M532.44,294.106v-.032a.384.384,0,0,1,.01-.092.49.49,0,0,1,.18-.284.517.517,0,0,1,.729.715.5.5,0,0,1-.242.18.51.51,0,0,1-.487-.079.49.49,0,0,1-.18-.284.378.378,0,0,1-.01-.092v-.032a.435.435,0,0,0,.024.12.493.493,0,0,0,.182.263.479.479,0,1,0,0-.766.493.493,0,0,0-.182.263C532.442,294.059,532.444,294.106,532.44,294.106Z" transform="translate(-494.867 -280.42)" fill="#263238"/><path d="M524.783,287.579a.441.441,0,0,1,0-.074.515.515,0,0,1,.007-.086.983.983,0,0,1,.021-.121,1.164,1.164,0,0,1,.911-.869,1.178,1.178,0,0,1,.617.048,1.1,1.1,0,0,1,.3.159,1.126,1.126,0,0,1,.25.25,1.173,1.173,0,0,1-1.656,1.628,1.149,1.149,0,0,1-.419-.647.972.972,0,0,1-.022-.121.515.515,0,0,1-.007-.086.441.441,0,0,1,0-.074,2.179,2.179,0,0,0,.045.28,1.15,1.15,0,0,0,.421.626,1.136,1.136,0,0,0,1.076.16,1.067,1.067,0,0,0,.287-.155,1.044,1.044,0,0,0,.239-.241,1.128,1.128,0,0,0,0-1.34,1.059,1.059,0,0,0-.239-.241,1.092,1.092,0,0,0-.287-.155,1.155,1.155,0,0,0-.6-.051,1.131,1.131,0,0,0-.479.211,1.153,1.153,0,0,0-.421.626A2.2,2.2,0,0,0,524.783,287.579Z" transform="translate(-487.868 -273.854)" fill="#263238"/><path d="M533.14,288.063c-.016-.023.063-.116.244-.179a.933.933,0,0,1,1.19.634c.048.185.016.3-.013.3s-.059-.1-.135-.245a.976.976,0,0,0-1.007-.536C533.258,288.055,533.156,288.092,533.14,288.063Z" transform="translate(-495.504 -275.16)" fill="#fff"/><path d="M529.193,291.179c-.051-.035-.072-.092-.043-.121s.086-.006.12.047.049.1.037.114S529.244,291.214,529.193,291.179Z" transform="translate(-491.848 -278.092)" fill="#fff"/><path d="M453.629,332.236a55.5,55.5,0,0,1,6.847-1.73,55.6,55.6,0,0,1-6.847,1.73Z" transform="translate(-422.84 -314.148)" fill="#263238"/><path d="M479.91,267.935a.153.153,0,0,1-.006-.027.411.411,0,0,0-.017-.076,1.156,1.156,0,0,0-.113-.275.918.918,0,0,0-.326-.33c-.039-.024-.086-.04-.127-.062a1.488,1.488,0,0,0-.145-.042,1.035,1.035,0,0,0-.158-.024,1.1,1.1,0,0,0-.168,0,4.347,4.347,0,0,0-.744.15c-.264.072-.542.162-.833.263-.581.2-1.214.449-1.858.747-.08.039-.159.077-.236.119a1.493,1.493,0,0,0-.213.144,2.349,2.349,0,0,0-.36.356c-.2.268-.376.54-.548.795-.344.511-.641.981-.882,1.377s-.43.727-.555.955l-.147.258-.039.068a.124.124,0,0,1-.015.022.105.105,0,0,1,.011-.025c.009-.018.02-.041.034-.07.031-.061.077-.152.139-.266.123-.23.306-.56.543-.962s.533-.873.875-1.386c.172-.258.344-.525.548-.8a2.363,2.363,0,0,1,.367-.363,1.508,1.508,0,0,1,.22-.149c.077-.042.158-.081.238-.12.647-.3,1.281-.543,1.864-.746.292-.1.572-.189.838-.258a4.339,4.339,0,0,1,.751-.146,1.046,1.046,0,0,1,.172,0,1.206,1.206,0,0,1,.163.026c.052.01.1.032.147.046a1.307,1.307,0,0,1,.13.065.927.927,0,0,1,.33.344,1.1,1.1,0,0,1,.106.282.594.594,0,0,1,.013.077A.079.079,0,0,1,479.91,267.935Z" transform="translate(-440.014 -256.17)" fill="#263238"/><g transform="translate(40.254 12.252)" opacity="0.3"><path d="M563.58,282.89c.086.028.553.319.751.43a.861.861,0,0,1,.43.505,1.285,1.285,0,0,1-.068.666c-.2.71-.441,1.987-.645,2.7-.159-1.291-.333-3.481-.467-4.3" transform="translate(-563.58 -282.89)" fill="#fff"/></g><path d="M489.11,392.863c0-.012,1.327-.206,2.967-.43s2.972-.4,2.974-.389-1.327.207-2.967.43S489.112,392.876,489.11,392.863Z" transform="translate(-455.267 -370.394)" fill="#455a64"/><path d="M494,398.046a.306.306,0,0,1,.055-.012l.158-.026c.138-.022.337-.051.584-.086.494-.069,1.178-.155,1.933-.244l1.934-.231.586-.071.159-.017a.389.389,0,0,1,.056,0,.2.2,0,0,1-.054.012l-.158.026c-.138.022-.337.051-.585.086-.494.068-1.177.154-1.933.244l-1.934.231-.586.071-.159.018A.229.229,0,0,1,494,398.046Z" transform="translate(-459.736 -375.252)" fill="#455a64"/><path d="M504.847,403.443c-.005,0,.053-.009.15-.021l.416-.053,1.372-.165,1.377-.156.418-.042a.879.879,0,0,1,.154-.009,1.181,1.181,0,0,1-.152.027l-.415.057c-.351.046-.837.105-1.377.168s-1.022.117-1.377.152A4.221,4.221,0,0,1,504.847,403.443Z" transform="translate(-469.649 -380.405)" fill="#455a64"/><path d="M485.5,388.572c0-.013,1.4-.207,3.122-.43s3.128-.4,3.129-.388-1.4.206-3.123.43S485.5,388.584,485.5,388.572Z" transform="translate(-451.968 -366.473)" fill="#455a64"/><path d="M482.69,384.225c0-.012,1.445-.213,3.233-.448s3.238-.416,3.24-.4-1.446.213-3.233.449S482.691,384.237,482.69,384.225Z" transform="translate(-449.4 -362.471)" fill="#455a64"/><path d="M479.51,379.247c0-.012,1.487-.219,3.324-.46s3.329-.43,3.331-.416-1.487.219-3.325.46S479.512,379.259,479.51,379.247Z" transform="translate(-446.493 -357.899)" fill="#455a64"/><path d="M477.08,374.265c0-.013,1.513-.222,3.383-.467s3.388-.436,3.389-.424-1.513.222-3.383.467S477.082,374.277,477.08,374.265Z" transform="translate(-444.273 -353.332)" fill="#455a64"/><path d="M474.62,369.338c0-.012,1.526-.223,3.411-.471s3.415-.439,3.417-.43-1.526.223-3.411.471S474.622,369.35,474.62,369.338Z" transform="translate(-442.024 -348.82)" fill="#455a64"/><path d="M531.99,367.92c.012,0,.181.739.375,1.656s.344,1.662.332,1.665-.181-.739-.376-1.655S531.975,367.927,531.99,367.92Z" transform="translate(-494.454 -348.348)" fill="#455a64"/><path d="M538.513,366.82c.012,0,.18.739.375,1.655s.344,1.663.331,1.666-.18-.739-.375-1.656S538.5,366.823,538.513,366.82Z" transform="translate(-500.416 -347.342)" fill="#455a64"/><path d="M545.062,365.73c.012,0,.172.7.356,1.566s.325,1.573.313,1.575-.172-.7-.356-1.566S545.05,365.733,545.062,365.73Z" transform="translate(-506.402 -346.346)" fill="#455a64"/><path d="M552.16,367.22a.368.368,0,0,1,.028.091c.015.059.036.145.059.253.048.214.108.511.164.841s.111.617.151.844c.018.1.034.185.046.258a.354.354,0,0,1,.011.095.4.4,0,0,1-.028-.091c-.016-.059-.036-.146-.06-.253-.047-.214-.107-.512-.164-.842s-.111-.616-.151-.843c-.018-.1-.033-.186-.046-.258A.409.409,0,0,1,552.16,367.22Z" transform="translate(-512.889 -347.708)" fill="#455a64"/><path d="M524.4,369.27c.012,0,.172.713.363,1.6s.331,1.6.319,1.607-.172-.713-.362-1.6S524.39,369.273,524.4,369.27Z" transform="translate(-487.52 -349.581)" fill="#455a64"/><path d="M516.872,370.79c.012,0,.172.715.364,1.6s.332,1.608.32,1.611-.172-.715-.364-1.6S516.86,370.793,516.872,370.79Z" transform="translate(-480.639 -350.971)" fill="#455a64"/><path d="M509.114,371.2c.012,0,.172.709.361,1.587s.329,1.594.317,1.6-.172-.708-.361-1.587S509.1,371.2,509.114,371.2Z" transform="translate(-473.549 -351.345)" fill="#455a64"/><path d="M501.472,372.2c.012,0,.172.705.359,1.579s.327,1.586.315,1.588-.172-.7-.359-1.579S501.46,372.2,501.472,372.2Z" transform="translate(-466.564 -352.259)" fill="#455a64"/><path d="M493.984,373.7c.012,0,.163.658.337,1.476s.306,1.483.294,1.486-.163-.659-.337-1.477S493.967,373.7,493.984,373.7Z" transform="translate(-459.72 -353.63)" fill="#455a64"/><path d="M486.221,374.33c.012,0,.154.616.317,1.377s.285,1.386.273,1.389-.154-.615-.317-1.377S486.209,374.333,486.221,374.33Z" transform="translate(-452.626 -354.206)" fill="#455a64"/><path d="M478.64,375.57a7.809,7.809,0,0,1,.2.813,7.891,7.891,0,0,1,.152.821,7.687,7.687,0,0,1-.2-.813A7.772,7.772,0,0,1,478.64,375.57Z" transform="translate(-445.698 -355.339)" fill="#455a64"/><path d="M229.38,403.992c0-.012,4.278-.022,9.556-.022s9.556.01,9.556.022-4.277.022-9.556.022S229.38,404.005,229.38,403.992Z" transform="translate(-217.897 -381.294)" fill="#263238"/><path d="M233.73,398.972c0-.013,4.094-.022,9.144-.022s9.144.009,9.144.022-4.093.022-9.144.022S233.73,398.984,233.73,398.972Z" transform="translate(-221.872 -376.706)" fill="#263238"/><path d="M240.34,393.832c0-.013,3.874-.022,8.649-.022s8.649.009,8.649.022-3.874.022-8.649.022S240.34,393.844,240.34,393.832Z" transform="translate(-227.913 -372.009)" fill="#263238"/><path d="M244.75,388.692c0-.013,3.688-.022,8.237-.022s8.238.009,8.238.022-3.687.022-8.238.022S244.75,388.7,244.75,388.692Z" transform="translate(-231.944 -367.311)" fill="#263238"/><path d="M252.09,383.762c0-.012,3.419-.022,7.637-.022s7.637.01,7.637.022-3.419.022-7.637.022S252.09,383.778,252.09,383.762Z" transform="translate(-238.652 -362.806)" fill="#263238"/><path d="M260.41,378.9c0-.012,3.089-.022,6.9-.022s6.9.01,6.9.022-3.089.022-6.9.022S260.41,378.914,260.41,378.9Z" transform="translate(-246.256 -358.364)" fill="#263238"/><rect width="0.234" height="0.421" transform="translate(20.672 2.014)" fill="#263238"/><g transform="translate(7.715 9.447)" opacity="0.3"><path d="M185.61,250.76s.423-.144.339-.46a6.062,6.062,0,0,0,2.888.689c1.664-.025,7.763.344,7.763.344l.7.966s-10.326-.234-10.709.015Z" transform="translate(-185.61 -250.3)" fill="#fff"/></g><g transform="translate(3.839 8.512)" opacity="0.3"><path d="M140.589,241.612c-.086,0,2.631.934,2.983,1.228l.555-.121-1.94-3.215-.222-.053S141.3,241.616,140.589,241.612Z" transform="translate(-140.587 -239.45)" fill="#fff"/></g><g transform="translate(10.374 0.208)" opacity="0.3"><path d="M216.5,143.673c.052,0,10.636-.453,10.619-.592a55.859,55.859,0,0,0-6.785,0A21.686,21.686,0,0,0,216.5,143.673Z" transform="translate(-216.5 -142.982)" fill="#fff"/></g><g transform="translate(5.941 1.103)" opacity="0.2"><path d="M165,159.057l8.609-2.124,1.622-3.553-6.959.289a.22.22,0,0,0-.215.137Z" transform="translate(-165 -153.38)" fill="#fff"/></g></g><g transform="translate(-95 -11.5)" clip-path="url(#c)"><g transform="translate(-0.071 52)"><text transform="translate(182.071 21)" fill="#369cc7" font-size="9" font-family="SegoeUI, Segoe UI" letter-spacing="0.083em"><tspan x="-11.916" y="0">BACK</tspan></text></g></g></g></g></svg>