<svg xmlns="http://www.w3.org/2000/svg" xmlns:xlink="http://www.w3.org/1999/xlink" width="70" height="70" viewBox="0 0 70 70"><defs><filter id="a" x="0" y="0" width="70" height="70" filterUnits="userSpaceOnUse"><feOffset dy="5" input="SourceAlpha"/><feGaussianBlur stdDeviation="5" result="b"/><feFlood flood-color="#222b45" flood-opacity="0.149"/><feComposite operator="in" in2="b"/><feComposite in="SourceGraphic"/></filter></defs><g transform="translate(15 10)"><g transform="matrix(1, 0, 0, 1, -15, -10)" filter="url(#a)"><rect width="40" height="40" rx="8" transform="translate(15 10)" fill="#fff"/></g><g transform="translate(10 10)"><path d="M19.988,1.011a1.31,1.31,0,0,0-.06-.27V.651a1,1,0,0,0-.2-.3,1,1,0,0,0-.29-.19h-.09a.86.86,0,0,0-.31-.15h-.05a1,1,0,0,0-.3,0l-18,6a1,1,0,0,0,0,1.9l8.53,2.84,2.84,8.53a1,1,0,0,0,1.9,0l6-18A1,1,0,0,0,19.988,1.011Z" transform="translate(0 0)" fill="#222b45"/><path d="M19.728.351a1,1,0,0,0-.29-.19h-.09a.86.86,0,0,0-.31-.15h-.05a1,1,0,0,0-.3,0l-18,6a1,1,0,0,0,0,1.9l8.53,2.84S19.812.438,19.728.351Z" transform="translate(0 0)" fill="#73809b"/></g></g></svg>