<svg xmlns="http://www.w3.org/2000/svg" xmlns:xlink="http://www.w3.org/1999/xlink" width="414" height="896" viewBox="0 0 414 896"><defs><clipPath id="a"><path d="M0,0H278V278H0Z" transform="translate(0 0)" fill="none"/></clipPath><clipPath id="b"><path d="M0,278H278V0H0Z" fill="none"/></clipPath><clipPath id="c"><rect width="55.994" height="10.712" fill="none"/></clipPath></defs><g transform="translate(1524 1760)"><path d="M40,0H374a40,40,0,0,1,40,40V856a40,40,0,0,1-40,40H40A40,40,0,0,1,0,856V40A40,40,0,0,1,40,0Z" transform="translate(-1524 -1760)" fill="#369cc7"/><g transform="translate(-1452 -1600)"><path d="M0,0H278V278H0Z" transform="translate(0 0)" fill="none"/><g clip-path="url(#a)"><path d="M139,0A139,139,0,1,0,278,139,139,139,0,0,0,139,0" transform="translate(0 0)" fill="#eff3f9"/></g><path d="M18.078,36.156h0A18.078,18.078,0,1,1,36.156,18.078,18.078,18.078,0,0,1,18.078,36.156" transform="translate(87.846 195.203)" fill="#fff"/><path d="M5.276,10.554h0a5.277,5.277,0,1,1,5.277-5.277,5.276,5.276,0,0,1-5.277,5.277" transform="translate(64.089 183.389)" fill="#fff"/><path d="M3.516,7.033h0A3.516,3.516,0,1,1,7.032,3.516,3.516,3.516,0,0,1,3.516,7.033" transform="translate(152.392 213.281)" fill="#fff"/><path d="M3.516,7.032h0A3.516,3.516,0,1,1,7.032,3.516,3.516,3.516,0,0,1,3.516,7.032" transform="translate(201.052 47.261)" fill="#fff"/><path d="M23.1,4.874h7.873V4.188A4.189,4.189,0,0,0,26.786,0H4.188A4.189,4.189,0,0,0,0,4.188v66.8H17.562V10.414a5.539,5.539,0,0,1,5.54-5.54" transform="translate(160.466 89.427)" fill="#e0e8f6"/><path d="M0,278H278V0H0Z" fill="none"/><g clip-path="url(#b)"><path d="M0,57.79H19.206V0H0Z" transform="translate(136.691 102.622)" fill="#d0dbf0"/><path d="M18.038,9.18H1.167A1.167,1.167,0,0,1,0,8.013V1.167A1.167,1.167,0,0,1,1.167,0h16.87a1.167,1.167,0,0,1,1.167,1.167V8.013A1.167,1.167,0,0,1,18.038,9.18" transform="translate(166.351 77.07)" fill="#e0e8f6"/><path d="M39.1,101.706H0V3.322A3.32,3.32,0,0,1,4.124.1L36.584,8.2A3.319,3.319,0,0,1,39.1,11.419Z" transform="translate(93.43 58.706)" fill="#d0dbf0"/><path d="M0,39.528V5.521A5.521,5.521,0,0,1,5.521,0h6.264V39.528Z" transform="translate(76.097 120.884)" fill="#e0e8f6"/><path d="M1.466,54.554h0A1.466,1.466,0,0,1,0,53.088V1.466a1.466,1.466,0,0,1,2.933,0V53.088a1.466,1.466,0,0,1-1.466,1.466" transform="translate(173.1 99.386)" fill="#c0cbe2"/><path d="M1.466,54.554h0A1.466,1.466,0,0,1,0,53.088V1.466a1.466,1.466,0,0,1,2.933,0V53.088a1.466,1.466,0,0,1-1.466,1.466" transform="translate(164.964 99.386)" fill="#c0cbe2"/><path d="M25.443,4.59H2.295a2.3,2.3,0,0,1,0-4.59H25.443a2.3,2.3,0,0,1,0,4.59" transform="translate(99.672 77.069)" fill="#c1cae7"/><path d="M25.443,4.59H2.295a2.3,2.3,0,0,1,0-4.59H25.443a2.3,2.3,0,0,1,0,4.59" transform="translate(99.672 87.132)" fill="#c1cae7"/><path d="M25.443,4.59H2.295a2.3,2.3,0,0,1,0-4.59H25.443a2.3,2.3,0,0,1,0,4.59" transform="translate(99.672 97.193)" fill="#c1cae7"/><path d="M25.443,4.59H2.295a2.3,2.3,0,0,1,0-4.59H25.443a2.3,2.3,0,0,1,0,4.59" transform="translate(99.672 107.256)" fill="#c1cae7"/><path d="M25.443,4.59H2.295a2.3,2.3,0,0,1,0-4.59H25.443a2.3,2.3,0,0,1,0,4.59" transform="translate(99.672 117.317)" fill="#c1cae7"/><path d="M25.443,4.59H2.295a2.3,2.3,0,0,1,0-4.59H25.443a2.3,2.3,0,0,1,0,4.59" transform="translate(99.672 127.379)" fill="#c1cae7"/><path d="M25.443,4.59H2.295a2.3,2.3,0,0,1,0-4.59H25.443a2.3,2.3,0,0,1,0,4.59" transform="translate(99.672 137.441)" fill="#c1cae7"/><path d="M25.443,4.59H2.295a2.3,2.3,0,0,1,0-4.59H25.443a2.3,2.3,0,0,1,0,4.59" transform="translate(99.672 147.503)" fill="#c1cae7"/><path d="M30.975,66.112H0V5.007A5.007,5.007,0,0,1,5.007,0H25.969a5.007,5.007,0,0,1,5.006,5.007Z" transform="translate(36.102 94.301)" fill="#e0e8f6"/><path d="M21.2,3.978H1.952A1.951,1.951,0,0,1,0,2.026V1.952A1.952,1.952,0,0,1,1.952,0H21.2a1.952,1.952,0,0,1,1.952,1.952v.074A1.952,1.952,0,0,1,21.2,3.978" transform="translate(40.016 103.497)" fill="#c1cae7"/><path d="M21.2,3.978H1.952A1.952,1.952,0,0,1,0,2.026V1.952A1.952,1.952,0,0,1,1.952,0H21.2a1.952,1.952,0,0,1,1.952,1.952v.074A1.952,1.952,0,0,1,21.2,3.978" transform="translate(40.016 112.217)" fill="#c1cae7"/><path d="M21.2,3.978H1.952A1.952,1.952,0,0,1,0,2.026V1.952A1.952,1.952,0,0,1,1.952,0H21.2a1.952,1.952,0,0,1,1.952,1.952v.074A1.952,1.952,0,0,1,21.2,3.978" transform="translate(40.016 120.936)" fill="#c1cae7"/><path d="M21.2,3.978H1.952A1.952,1.952,0,0,1,0,2.026V1.952A1.952,1.952,0,0,1,1.952,0H21.2a1.952,1.952,0,0,1,1.952,1.952v.075A1.952,1.952,0,0,1,21.2,3.978" transform="translate(40.016 129.655)" fill="#c1cae7"/><path d="M21.2,3.978H1.952A1.952,1.952,0,0,1,0,2.026V1.952A1.952,1.952,0,0,1,1.952,0H21.2a1.952,1.952,0,0,1,1.952,1.952v.073A1.952,1.952,0,0,1,21.2,3.978" transform="translate(40.016 138.374)" fill="#c1cae7"/><path d="M21.2,3.977H1.952A1.952,1.952,0,0,1,0,2.026V1.952A1.951,1.951,0,0,1,1.952,0H21.2a1.952,1.952,0,0,1,1.952,1.952v.074A1.952,1.952,0,0,1,21.2,3.977" transform="translate(40.016 147.094)" fill="#c1cae7"/><path d="M37.915,66.112H0V5.54A5.539,5.539,0,0,1,5.539,0H32.375a5.54,5.54,0,0,1,5.54,5.54Z" transform="translate(179.901 97.074)" fill="#e0e8f6"/><path d="M26.347,3.977H1.989A1.989,1.989,0,1,1,1.989,0H26.347a1.989,1.989,0,1,1,0,3.977" transform="translate(184.691 106.272)" fill="#c1cae7"/><path d="M26.347,3.978H1.989A1.989,1.989,0,1,1,1.989,0H26.347a1.989,1.989,0,1,1,0,3.978" transform="translate(184.691 114.99)" fill="#c1cae7"/><path d="M26.347,3.978H1.989A1.989,1.989,0,1,1,1.989,0H26.347a1.989,1.989,0,1,1,0,3.978" transform="translate(184.691 123.71)" fill="#c1cae7"/><path d="M25.837,15.57a5.5,5.5,0,0,1-5.5-5.495V0H0V9.19H5.322a5.745,5.745,0,0,1,5.745,5.745V78.788H14.1V42.7a6.1,6.1,0,0,1,6.1-6.1h8V15.57Z" transform="translate(59.681 81.624)" fill="#d0dbf0"/><path d="M12.172,7.756H1.167A1.167,1.167,0,0,1,0,6.588V1.167A1.167,1.167,0,0,1,1.167,0H12.172a1.167,1.167,0,0,1,1.167,1.167V6.588a1.167,1.167,0,0,1-1.167,1.167" transform="translate(169.284 63.363)" fill="#e0e8f6"/><path d="M4.15,11.581H0V.8A.8.8,0,0,1,.8,0H3.354a.8.8,0,0,1,.8.8Z" transform="translate(173.879 49.598)" fill="#e0e8f6"/><path d="M125.156,6.241H3.121A3.121,3.121,0,0,1,3.121,0H125.156a3.121,3.121,0,1,1,0,6.241" transform="translate(63.164 164.342)" fill="#7e89a0"/><path d="M252.849,30.014a15.007,15.007,0,0,0-15.007-15.008H21.854a4.285,4.285,0,1,1,0-8.571h1.262V0H15.007a15.007,15.007,0,1,0,0,30.014H233.556a4.285,4.285,0,1,1,0,8.571H204.437a3.218,3.218,0,1,0,0,6.437h33.583v-.009a15,15,0,0,0,14.83-15" transform="translate(9.751 146.117)" fill="#919db6"/><path d="M23.98,0H3.218a3.218,3.218,0,0,0,0,6.437H23.98A3.218,3.218,0,1,0,23.98,0" transform="translate(174.567 184.702)" fill="#919db6"/><path d="M72.585,172.734H15.2A15.2,15.2,0,0,1,0,157.535V15.2A15.2,15.2,0,0,1,15.2,0H72.585a15.2,15.2,0,0,1,15.2,15.2V157.535a15.2,15.2,0,0,1-15.2,15.2" transform="translate(91.722 58.417)" fill="#535565"/><path d="M64.85,163.831H14.031A14.031,14.031,0,0,1,0,149.8V14.031A14.031,14.031,0,0,1,14.031,0H64.85A14.031,14.031,0,0,1,78.88,14.031V149.8A14.031,14.031,0,0,1,64.85,163.831" transform="translate(96.173 62.868)" fill="#ffe3e0"/><path d="M64.85,163.831H14.031A14.031,14.031,0,0,1,0,149.8V14.031A14.031,14.031,0,0,1,14.031,0H64.85A14.031,14.031,0,0,1,78.88,14.031V149.8A14.031,14.031,0,0,1,64.85,163.831" transform="translate(96.173 62.868)" fill="#369cc7"/><path d="M31.071,8.291H5.742A5.742,5.742,0,0,1,0,2.549V0H36.813V2.549a5.742,5.742,0,0,1-5.742,5.742" transform="translate(117.207 60.745)" fill="#535565"/><path d="M50.5,55.644h-47A3.578,3.578,0,0,1,0,51.987V3.658A3.579,3.579,0,0,1,3.494,0h47a3.579,3.579,0,0,1,3.493,3.658v48.33A3.578,3.578,0,0,1,50.5,55.644" transform="translate(108.617 148)" fill="#e5e5e5"/><path d="M46.454,3.9H1.952a1.952,1.952,0,0,1,0-3.9h44.5a1.952,1.952,0,1,1,0,3.9" transform="translate(111.41 95.419)" fill="#fff"/><path d="M27.192,3.9H1.952a1.952,1.952,0,0,1,0-3.9h25.24a1.952,1.952,0,1,1,0,3.9" transform="translate(121.041 104.473)" fill="#fff"/><path d="M57.358,56.326H3.625A3.692,3.692,0,0,1,0,52.569V3.756A3.692,3.692,0,0,1,3.625,0H57.358a3.693,3.693,0,0,1,3.625,3.756V52.569a3.693,3.693,0,0,1-3.625,3.756" transform="translate(105.122 151.104)" fill="#eee"/><path d="M63.773,56.326H3.724A3.724,3.724,0,0,1,0,52.6V3.724A3.724,3.724,0,0,1,3.724,0H63.773A3.724,3.724,0,0,1,67.5,3.724V52.6a3.724,3.724,0,0,1-3.724,3.724" transform="translate(101.865 153.889)" fill="#fff"/><path d="M7.489,14.979h0A7.49,7.49,0,1,1,14.978,7.49a7.489,7.489,0,0,1-7.489,7.489" transform="translate(107.218 158.841)" fill="#efefef"/><path d="M30.019,2.475H1.238A1.238,1.238,0,1,1,1.238,0H30.019a1.238,1.238,0,0,1,0,2.475" transform="translate(126.56 162.092)" fill="#efefef"/><path d="M0,.182H67.5V0H0Z" transform="translate(101.865 178.925)" fill="#e2e2e2"/><g transform="translate(108.224 192.772)" clip-path="url(#c)"><g transform="translate(-108.224 -192.772)"><path d="M53.491,10.712H2.5A2.5,2.5,0,0,1,0,8.209V2.5A2.5,2.5,0,0,1,2.5,0H53.491a2.5,2.5,0,0,1,2.5,2.5V8.209a2.5,2.5,0,0,1-2.5,2.5" transform="translate(108.224 192.772)" fill="#369cc7"/></g></g></g><g transform="translate(126.145 167.121)"><path d="M3.712,1.731a.3.3,0,0,0,.072-.3.285.285,0,0,0-.228-.2l-.94-.143a.055.055,0,0,1-.043-.032L2.154.165a.278.278,0,0,0-.508,0l-.421.888a.054.054,0,0,1-.042.032l-.94.143a.286.286,0,0,0-.229.2.3.3,0,0,0,.072.3l.681.692a.062.062,0,0,1,.017.052l-.161.977a.3.3,0,0,0,.112.288.271.271,0,0,0,.3.022l.841-.46a.051.051,0,0,1,.052,0l.84.46a.274.274,0,0,0,.3-.022.3.3,0,0,0,.113-.288l-.161-.977a.064.064,0,0,1,.016-.053Z" transform="translate(0.415 0.534)" fill="#ffd400"/><path d="M3.712,1.731a.3.3,0,0,0,.072-.3.285.285,0,0,0-.228-.2l-.94-.143a.055.055,0,0,1-.043-.032L2.154.165a.278.278,0,0,0-.508,0l-.421.888a.055.055,0,0,1-.042.032l-.94.143a.286.286,0,0,0-.229.2.3.3,0,0,0,.072.3l.681.692a.062.062,0,0,1,.017.052l-.161.977a.3.3,0,0,0,.112.288.271.271,0,0,0,.3.022l.841-.46a.051.051,0,0,1,.052,0l.84.46a.274.274,0,0,0,.3-.022.3.3,0,0,0,.113-.288l-.161-.977a.064.064,0,0,1,.016-.053Z" transform="translate(4.918 0.534)" fill="#ffd400"/><path d="M3.712,1.731a.3.3,0,0,0,.072-.3.285.285,0,0,0-.228-.2l-.94-.143a.055.055,0,0,1-.043-.032L2.154.165a.278.278,0,0,0-.508,0l-.421.888a.054.054,0,0,1-.042.032l-.94.143a.286.286,0,0,0-.229.2.3.3,0,0,0,.072.3l.681.692a.062.062,0,0,1,.017.052l-.161.977a.3.3,0,0,0,.112.288.271.271,0,0,0,.3.022l.841-.46a.051.051,0,0,1,.052,0l.84.46a.274.274,0,0,0,.3-.022.3.3,0,0,0,.113-.288l-.161-.977a.064.064,0,0,1,.016-.053Z" transform="translate(9.758 0.534)" fill="#ffd400"/><path d="M3.713,1.731a.3.3,0,0,0,.072-.3.283.283,0,0,0-.228-.2l-.939-.143a.056.056,0,0,1-.043-.032L2.154.165A.282.282,0,0,0,1.9,0a.278.278,0,0,0-.254.165l-.42.888a.055.055,0,0,1-.043.032l-.939.143a.287.287,0,0,0-.23.2.305.305,0,0,0,.072.3l.68.692a.062.062,0,0,1,.017.052l-.161.977a.3.3,0,0,0,.113.288.271.271,0,0,0,.3.022l.84-.46a.051.051,0,0,1,.052,0l.84.46a.275.275,0,0,0,.3-.022.3.3,0,0,0,.112-.288l-.16-.977a.064.064,0,0,1,.015-.053Z" transform="translate(14.261 0.534)" fill="#ffd400"/><path d="M3.713,1.731a.3.3,0,0,0,.072-.3.284.284,0,0,0-.228-.2l-.94-.143a.056.056,0,0,1-.043-.032L2.154.165A.282.282,0,0,0,1.9,0a.278.278,0,0,0-.254.165l-.421.888a.054.054,0,0,1-.042.032l-.939.143a.287.287,0,0,0-.23.2.3.3,0,0,0,.072.3l.68.692a.062.062,0,0,1,.017.052l-.161.977a.3.3,0,0,0,.113.288.271.271,0,0,0,.3.022l.84-.46a.051.051,0,0,1,.052,0l.84.46a.275.275,0,0,0,.3-.022.3.3,0,0,0,.112-.288l-.16-.977a.064.064,0,0,1,.015-.053Z" transform="translate(18.899 0.534)" fill="#ffd400"/></g></g></g></svg>