<svg xmlns="http://www.w3.org/2000/svg" xmlns:xlink="http://www.w3.org/1999/xlink" width="414" height="896" viewBox="0 0 414 896"><defs><clipPath id="a"><path d="M139.238,278h-.477a139,139,0,1,1,.477,0Z" transform="translate(0 0)" fill="none"/></clipPath><clipPath id="b"><path d="M18.078,36.156h0A18.078,18.078,0,1,1,36.156,18.078,18.078,18.078,0,0,1,18.078,36.156Z" transform="translate(0.846 0.203)" fill="none"/></clipPath><clipPath id="c"><path d="M5.277,10.554h0a5.277,5.277,0,1,1,5.277-5.277,5.277,5.277,0,0,1-5.277,5.277Z" transform="translate(0.089 0.389)" fill="none"/></clipPath><clipPath id="d"><path d="M3.516,7.033h0A3.516,3.516,0,1,1,7.032,3.516,3.516,3.516,0,0,1,3.516,7.033Z" transform="translate(0.392 0.281)" fill="none"/></clipPath><clipPath id="e"><path d="M3.516,7.032h0A3.516,3.516,0,1,1,7.032,3.516,3.516,3.516,0,0,1,3.516,7.032Z" transform="translate(0.052 0.261)" fill="none"/></clipPath><clipPath id="f"><path d="M23.1,4.874h7.873V4.188A4.189,4.189,0,0,0,26.786,0H4.188A4.189,4.189,0,0,0,0,4.188v66.8H17.562V10.414a5.54,5.54,0,0,1,5.54-5.54Z" transform="translate(0.72 0.365)" fill="none"/></clipPath><clipPath id="g"><path d="M0,0H19.206V57.789H0Z" transform="translate(0.945 0.561)" fill="none"/></clipPath><clipPath id="h"><path d="M18.038,9.181H1.167A1.167,1.167,0,0,1,0,8.013V1.168A1.167,1.167,0,0,1,1.167,0H18.038a1.167,1.167,0,0,1,1.167,1.168V8.013A1.167,1.167,0,0,1,18.038,9.181Z" transform="translate(0.605 0.008)" fill="none"/></clipPath><clipPath id="i"><path d="M39.1,101.706H0V3.321A3.32,3.32,0,0,1,4.123.1l32.46,8.1A3.32,3.32,0,0,1,39.1,11.419Z" transform="translate(0.684 0.644)" fill="none"/></clipPath><clipPath id="j"><path d="M0,39.528V5.522A5.522,5.522,0,0,1,5.522,0h6.263V39.528Z" transform="translate(0.351 0.822)" fill="none"/></clipPath><clipPath id="k"><path d="M1.466,54.553A1.466,1.466,0,0,1,0,53.087V1.466a1.466,1.466,0,0,1,2.933,0v51.62A1.466,1.466,0,0,1,1.466,54.553Z" transform="translate(0.354 0.325)" fill="none"/></clipPath><clipPath id="l"><path d="M1.466,54.553A1.466,1.466,0,0,1,0,53.087V1.466a1.466,1.466,0,0,1,2.933,0v51.62A1.466,1.466,0,0,1,1.466,54.553Z" transform="translate(0.218 0.325)" fill="none"/></clipPath><clipPath id="m"><path d="M25.444,4.59H2.295a2.3,2.3,0,0,1,0-4.59h23.15a2.3,2.3,0,0,1,0,4.59Z" transform="translate(0.925 0.008)" fill="none"/></clipPath><clipPath id="n"><path d="M25.444,4.59H2.295a2.3,2.3,0,0,1,0-4.59h23.15a2.3,2.3,0,0,1,0,4.59Z" transform="translate(0.925 0.069)" fill="none"/></clipPath><clipPath id="o"><path d="M25.444,4.59H2.295a2.3,2.3,0,0,1,0-4.59h23.15a2.3,2.3,0,0,1,0,4.59Z" transform="translate(0.925 0.132)" fill="none"/></clipPath><clipPath id="p"><path d="M25.444,4.59H2.295a2.3,2.3,0,0,1,0-4.59h23.15a2.3,2.3,0,0,1,0,4.59Z" transform="translate(0.925 0.193)" fill="none"/></clipPath><clipPath id="q"><path d="M25.444,4.59H2.295a2.3,2.3,0,0,1,0-4.59h23.15a2.3,2.3,0,0,1,0,4.59Z" transform="translate(0.925 0.255)" fill="none"/></clipPath><clipPath id="r"><path d="M25.444,4.59H2.295a2.3,2.3,0,0,1,0-4.59h23.15a2.3,2.3,0,0,1,0,4.59Z" transform="translate(0.925 0.317)" fill="none"/></clipPath><clipPath id="s"><path d="M25.444,4.59H2.295a2.3,2.3,0,0,1,0-4.59h23.15a2.3,2.3,0,0,1,0,4.59Z" transform="translate(0.925 0.379)" fill="none"/></clipPath><clipPath id="t"><path d="M25.444,4.59H2.295a2.3,2.3,0,0,1,0-4.59h23.15a2.3,2.3,0,0,1,0,4.59Z" transform="translate(0.925 0.441)" fill="none"/></clipPath><clipPath id="u"><path d="M30.975,66.112H0V5.007A5.007,5.007,0,0,1,5.007,0H25.968a5.007,5.007,0,0,1,5.007,5.007Z" transform="translate(0.357 0.239)" fill="none"/></clipPath><clipPath id="v"><path d="M21.2,3.978H1.952A1.952,1.952,0,0,1,0,2.026V1.952A1.952,1.952,0,0,1,1.952,0H21.2a1.952,1.952,0,0,1,1.952,1.952v.074A1.951,1.951,0,0,1,21.2,3.978Z" transform="translate(0.27 0.435)" fill="none"/></clipPath><clipPath id="w"><path d="M21.2,3.978H1.952A1.952,1.952,0,0,1,0,2.026V1.952A1.952,1.952,0,0,1,1.952,0H21.2a1.952,1.952,0,0,1,1.952,1.952v.074A1.951,1.951,0,0,1,21.2,3.978Z" transform="translate(0.27 0.154)" fill="none"/></clipPath><clipPath id="x"><path d="M21.2,3.978H1.952A1.952,1.952,0,0,1,0,2.026V1.952A1.952,1.952,0,0,1,1.952,0H21.2a1.952,1.952,0,0,1,1.952,1.952v.074A1.951,1.951,0,0,1,21.2,3.978Z" transform="translate(0.27 0.874)" fill="none"/></clipPath><clipPath id="y"><path d="M21.2,3.978H1.952A1.952,1.952,0,0,1,0,2.026V1.952A1.952,1.952,0,0,1,1.952,0H21.2a1.952,1.952,0,0,1,1.952,1.952v.074A1.951,1.951,0,0,1,21.2,3.978Z" transform="translate(0.27 0.593)" fill="none"/></clipPath><clipPath id="z"><path d="M21.2,3.978H1.952A1.952,1.952,0,0,1,0,2.026V1.952A1.952,1.952,0,0,1,1.952,0H21.2a1.952,1.952,0,0,1,1.952,1.952v.074A1.952,1.952,0,0,1,21.2,3.978Z" transform="translate(0.27 0.312)" fill="none"/></clipPath><clipPath id="aa"><path d="M21.2,3.977H1.952A1.952,1.952,0,0,1,0,2.026V1.952A1.952,1.952,0,0,1,1.952,0H21.2a1.952,1.952,0,0,1,1.952,1.952v.074A1.951,1.951,0,0,1,21.2,3.977Z" transform="translate(0.27 0.032)" fill="none"/></clipPath><clipPath id="ab"><path d="M37.915,66.111H0V5.539A5.539,5.539,0,0,1,5.539,0H32.375a5.539,5.539,0,0,1,5.54,5.539Z" transform="translate(0.155 0.013)" fill="none"/></clipPath><clipPath id="ac"><path d="M26.347,3.978H1.988A1.989,1.989,0,0,1,1.988,0H26.347a1.989,1.989,0,1,1,0,3.978Z" transform="translate(0.945 0.209)" fill="none"/></clipPath><clipPath id="ad"><path d="M26.347,3.978H1.988A1.989,1.989,0,0,1,1.988,0H26.347a1.989,1.989,0,1,1,0,3.978Z" transform="translate(0.945 0.929)" fill="none"/></clipPath><clipPath id="ae"><path d="M26.347,3.978H1.988A1.989,1.989,0,0,1,1.988,0H26.347a1.989,1.989,0,1,1,0,3.978Z" transform="translate(0.945 0.648)" fill="none"/></clipPath><clipPath id="af"><path d="M25.837,15.57H28.2V36.6h-8a6.1,6.1,0,0,0-6.1,6.1V78.789H11.068V14.935A5.745,5.745,0,0,0,5.323,9.19H0V0H20.342V10.075A5.5,5.5,0,0,0,25.837,15.57Z" transform="translate(0.935 0.562)" fill="none"/></clipPath><clipPath id="ag"><path d="M12.173,7.755H1.168A1.167,1.167,0,0,1,0,6.588V1.167A1.167,1.167,0,0,1,1.168,0H12.173A1.167,1.167,0,0,1,13.34,1.167v5.42A1.167,1.167,0,0,1,12.173,7.755Z" transform="translate(0.537 0.302)" fill="none"/></clipPath><clipPath id="ah"><path d="M4.15,11.581H0V.8A.8.8,0,0,1,.8,0H3.355a.8.8,0,0,1,.8.8Z" transform="translate(0.133 0.536)" fill="none"/></clipPath><clipPath id="ai"><path d="M125.156,6.241H3.121A3.121,3.121,0,0,1,3.121,0H125.156a3.121,3.121,0,1,1,0,6.241Z" transform="translate(0.418 0.28)" fill="none"/></clipPath><clipPath id="aj"><path d="M252.849,30.014a15,15,0,0,1-14.83,15v.009H204.437a3.218,3.218,0,1,1,0-6.437h29.119a4.285,4.285,0,1,0,0-8.571H15.007A15.007,15.007,0,0,1,15.007,0h8.109V6.436H21.854a4.285,4.285,0,1,0,0,8.571H237.842A15.008,15.008,0,0,1,252.849,30.014Z" transform="translate(0.005 0.055)" fill="none"/></clipPath><clipPath id="ak"><path d="M23.98,0a3.218,3.218,0,0,1,0,6.437H3.218A3.218,3.218,0,0,1,3.218,0Z" transform="translate(0.82 0.64)" fill="none"/></clipPath><clipPath id="al"><ellipse cx="6.05" cy="8.903" rx="6.05" ry="8.903" fill="#263238" stroke="#263238" stroke-linecap="round" stroke-linejoin="round" stroke-width="1"/></clipPath><clipPath id="am"><ellipse cx="3.85" cy="8.903" rx="3.85" ry="8.903" fill="#263238" stroke="#263238" stroke-linecap="round" stroke-linejoin="round" stroke-width="1"/></clipPath><clipPath id="an"><path d="M192.01,301.912c0-7.094,2.467-12.846,5.506-12.846s5.506,5.752,5.506,12.846c0,.392,0,.777-.025,1.156h19.617q-.019-.569-.019-1.156c0-7.094,1.8-12.846,4.012-12.846,1.479,0,2.772,2.57,3.465,6.392V284.981a2.045,2.045,0,0,0-1.672-2.01l-.093-.019c-1.361-.273-3.807-2.856-7.613-6.118a13.954,13.954,0,0,0-7.206-3.533H179.151a2.93,2.93,0,0,0-1.793.621l-11.712,9.039s-10.469,2.038-12.781,4.35-2.038,15.767-2.038,15.767h41.207C192.019,302.689,192.01,302.3,192.01,301.912Z" transform="translate(-150.818 -273.3)" fill="#369cc7" stroke="#263238" stroke-linecap="round" stroke-linejoin="round" stroke-width="1"/></clipPath><clipPath id="ao"><path d="M305.26,285.667h20.117s2.856-.951,2.038-4.487c-.277-1.2-5.982-3.94-6.8-3.94h-9.788Z" transform="translate(-305.26 -277.24)" fill="#263238" stroke="#263238" stroke-linecap="round" stroke-linejoin="round" stroke-width="1"/></clipPath><clipPath id="ap"><path d="M18.691,8.571,7.431,18.023a4.523,4.523,0,0,1-5.815-6.929L13.968.725a3.1,3.1,0,0,1,4.363.381L19.247,2.2A4.522,4.522,0,0,1,18.691,8.571Z" transform="translate(0.549 0.304)" fill="none"/></clipPath><clipPath id="aq"><path d="M18.979,6.732,6.22,17.441a3.544,3.544,0,0,1-4.994-.436l-.4-.472a3.545,3.545,0,0,1,.435-4.994L14.025.83a3.544,3.544,0,0,1,4.993.436l.4.472A3.545,3.545,0,0,1,18.979,6.732Z" transform="translate(0.864 0.148)" fill="none"/></clipPath><clipPath id="ar"><path d="M1.611,0,29.544,2.878,26.5,20.315S.6,34.535.087,34.366,1.442.677,1.611,0Z" transform="translate(0.994 0.85)" fill="none"/></clipPath><clipPath id="as"><path d="M0,103.118,24.339,60.777S23.322,32.165,28.232,23.87,48.885,0,48.885,0s10.666,8.973-6.94,22.516c0,5.418-.339,9.481-.339,9.481s13.375,3.894,9.311,33.181c8.8,0,16.252-2.031,18.622-10.157a69.255,69.255,0,0,1,3.894-8.3c-2.031,0,1.693-45.2,1.693-45.2L82.744,35.89C81.9,37.921,80.659,57.4,71.571,68.055,61.031,80.414,53.965,79.4,52.441,79.737c-.675,1.35-1.883,3.5-3.15,5.693a14.3,14.3,0,0,1-11.026,7.12c-.582.054-1.216.127-1.906.222-5.484.756-5.926,3.555-9.819,5.756s-8.3,5.247-14.39,2.2c-5.711-2.856-10.477,1.018-12.01,2.507L0,103.118Z" transform="translate(0.734 0.589)" fill="none"/></clipPath><clipPath id="at"><path d="M38.854,92.464H8.135A8.135,8.135,0,0,1,0,84.328V8.135A8.135,8.135,0,0,1,8.135,0H38.854a8.135,8.135,0,0,1,8.135,8.135V84.328A8.135,8.135,0,0,1,38.854,92.464Z" transform="translate(0.12 0.176)" fill="none"/></clipPath><clipPath id="au"><path d="M34.714,87.7H7.511A7.511,7.511,0,0,1,0,80.187V7.51A7.511,7.511,0,0,1,7.511,0h27.2a7.51,7.51,0,0,1,7.511,7.51V80.187A7.511,7.511,0,0,1,34.714,87.7Z" transform="translate(0.502 0.559)" fill="none"/></clipPath><clipPath id="aw"><path d="M23.009,11.5A11.5,11.5,0,1,1,11.5,0,11.5,11.5,0,0,1,23.009,11.5Z" transform="translate(0.11 0.099)" fill="none"/></clipPath><clipPath id="ax"><path d="M16.632,4.438H3.074A3.073,3.073,0,0,1,0,1.365V0H19.7V1.365A3.073,3.073,0,0,1,16.632,4.438Z" transform="translate(0.762 0.422)" fill="none"/></clipPath><clipPath id="ay"><path d="M9.421,14.91A12.058,12.058,0,0,1,.295.5.624.624,0,0,1,.9.017L3.673,0a.623.623,0,0,1,.617.509L4.87,3.623a.623.623,0,0,1-.333.672l-1.819.913A9.641,9.641,0,0,0,6.2,10.71l1.6-1.255a.624.624,0,0,1,.75-.014L11.122,11.3a.625.625,0,0,1,.2.776l-1.2,2.5A.625.625,0,0,1,9.421,14.91Z" transform="translate(0.362 0.482)" fill="none"/></clipPath><clipPath id="az"><path d="M2.344,1.172A1.172,1.172,0,1,1,1.172,0,1.172,1.172,0,0,1,2.344,1.172Z" transform="translate(0.511 0.454)" fill="none"/></clipPath><clipPath id="ba"><path d="M2.344,1.172A1.172,1.172,0,1,1,1.172,0,1.172,1.172,0,0,1,2.344,1.172Z" transform="translate(0.278 0.454)" fill="none"/></clipPath><clipPath id="bb"><path d="M2.344,1.172A1.172,1.172,0,1,1,1.172,0,1.172,1.172,0,0,1,2.344,1.172Z" transform="translate(0.044 0.454)" fill="none"/></clipPath><clipPath id="bc"><path d="M24.867,2.09H1.045a1.045,1.045,0,1,1,0-2.09H24.867a1.045,1.045,0,0,1,0,2.09Z" transform="translate(0.045 0.914)" fill="none"/></clipPath><clipPath id="bd"><path d="M14.556,2.091H1.045A1.045,1.045,0,0,1,1.045,0h13.51a1.045,1.045,0,0,1,0,2.091Z" transform="translate(0.201 0.76)" fill="none"/></clipPath><clipPath id="be"><path d="M2.2,0c15.787,2.971,16.58,14.536,15.651,33.643C2.864,31.727,0,13.96,0,13.96Z" transform="translate(0.511 0.222)" fill="none"/></clipPath><clipPath id="bf"><path d="M0,28.674C3.583,11.222,17.115,0,17.115,0s10.746,10.3-6.142,24.726c0,6.21.123,7.859.123,7.859Z" transform="translate(0.246 0.287)" fill="none"/></clipPath><clipPath id="bg"><path d="M9.846,9.54H4.77A4.77,4.77,0,0,1,4.77,0H9.846a4.77,4.77,0,0,1,0,9.54Z" transform="translate(0.171 0.408)" fill="none"/></clipPath><clipPath id="bh"><path d="M7.933,9.54H4.378A4.378,4.378,0,0,1,0,5.163V4.377A4.378,4.378,0,0,1,4.378,0H7.933a4.378,4.378,0,0,1,4.378,4.377v.786A4.378,4.378,0,0,1,7.933,9.54Z" transform="translate(0.17 0.243)" fill="none"/></clipPath><clipPath id="bi"><path d="M5.472,9.54h-.7A4.77,4.77,0,1,1,4.77,0h.7a4.77,4.77,0,1,1,0,9.54Z" transform="translate(0.789 0.755)" fill="none"/></clipPath><clipPath id="bj"><path d="M3.453,7.081A3.59,3.59,0,0,1,0,3.546,3.54,3.54,0,0,1,3.541,0h.064a.655.655,0,0,1,.423,1.122,3.529,3.529,0,0,0,0,4.838.656.656,0,0,1-.435,1.122Z" transform="translate(0.75 0.637)" fill="none"/></clipPath><clipPath id="bk"><path d="M3.428,7.081A3.589,3.589,0,0,1,0,3.522,3.542,3.542,0,0,1,3.566,0a3.479,3.479,0,0,1,.545.047.462.462,0,0,1,.216.815,3.53,3.53,0,0,0-.038,5.371.461.461,0,0,1-.235.812A3.433,3.433,0,0,1,3.428,7.081Z" transform="translate(0.356 0.48)" fill="none"/></clipPath><clipPath id="bl"><path d="M2.158,5.63A2.865,2.865,0,0,1,.005,3.04,2.885,2.885,0,0,1,2.9.017C3.346.006,4.149-.09,4.133.325c-.021.529-1.642,1.4-1.664,2.532A2.839,2.839,0,0,0,3.663,5.229.214.214,0,0,1,3.6,5.61,2.845,2.845,0,0,1,2.158,5.63Z" transform="translate(0.699 0.703)" fill="none"/></clipPath><clipPath id="bm"><path d="M29.879,28.967,0,5.6,4.38,0,34.259,23.365Z" transform="translate(0.765 0.357)" fill="none"/></clipPath><clipPath id="bn"><path d="M0,22.239,17.39,0,54.123,28.725,37.837,49.551A139.391,139.391,0,0,1,0,22.239Z" transform="translate(0.948 0.279)" fill="none"/></clipPath><clipPath id="bo"><path d="M10.353,13.7,0,5.6,4.38,0,14.732,8.1Z" transform="translate(0.104 0.84)" fill="none"/></clipPath><clipPath id="bp"><path d="M0,22.125,17.3,0,28.565,8.808l-17.985,23A139.83,139.83,0,0,1,0,22.125Z" transform="translate(0.022 0.468)" fill="none"/></clipPath></defs><g transform="translate(2044 1760)"><path d="M40,0H374a40,40,0,0,1,40,40V856a40,40,0,0,1-40,40H40A40,40,0,0,1,0,856V40A40,40,0,0,1,40,0Z" transform="translate(-2044 -1760)" fill="#369cc7"/><g transform="translate(-1976 -1590)"><path d="M139.238,278h-.477a139,139,0,1,1,.477,0Z" transform="translate(0 0)" fill="none"/><g clip-path="url(#a)"><path d="M0,0H288V288H0Z" transform="translate(-5 -5)" fill="#eff3f9"/></g><g transform="translate(87 195)"><path d="M18.078,36.156h0A18.078,18.078,0,1,1,36.156,18.078,18.078,18.078,0,0,1,18.078,36.156Z" transform="translate(0.846 0.203)" fill="none"/><g clip-path="url(#b)"><path d="M0,0H46.156V46.156H0Z" transform="translate(-4.154 -4.797)" fill="#fff"/></g></g><g transform="translate(64 183)"><path d="M5.277,10.554h0a5.277,5.277,0,1,1,5.277-5.277,5.277,5.277,0,0,1-5.277,5.277Z" transform="translate(0.089 0.389)" fill="none"/><g clip-path="url(#c)"><path d="M0,0H20.554V20.554H0Z" transform="translate(-4.911 -4.611)" fill="#fff"/></g></g><g transform="translate(152 213)"><path d="M3.516,7.033h0A3.516,3.516,0,1,1,7.032,3.516,3.516,3.516,0,0,1,3.516,7.033Z" transform="translate(0.392 0.281)" fill="none"/><g clip-path="url(#d)"><path d="M0,0H17.032V17.033H0Z" transform="translate(-4.608 -4.719)" fill="#fff"/></g></g><g transform="translate(201 47)"><path d="M3.516,7.032h0A3.516,3.516,0,1,1,7.032,3.516,3.516,3.516,0,0,1,3.516,7.032Z" transform="translate(0.052 0.261)" fill="none"/><g clip-path="url(#e)"><path d="M0,0H17.032V17.032H0Z" transform="translate(-4.948 -4.739)" fill="#fff"/></g></g><g transform="translate(165 81)"><path d="M23.1,4.874h7.873V4.188A4.189,4.189,0,0,0,26.786,0H4.188A4.189,4.189,0,0,0,0,4.188v66.8H17.562V10.414a5.54,5.54,0,0,1,5.54-5.54Z" transform="translate(0.72 0.365)" fill="none"/><g clip-path="url(#f)"><path d="M0,0H40.975V80.986H0Z" transform="translate(-4.28 -4.635)" fill="#e0e8f6"/></g></g><g transform="translate(15 41)"><g transform="translate(126 53)"><path d="M0,0H19.206V57.789H0Z" transform="translate(0.945 0.561)" fill="none"/><g clip-path="url(#g)"><path d="M0,0H29.206V67.789H0Z" transform="translate(-4.055 -4.439)" fill="#d0dbf0"/></g></g><g transform="translate(156 28)"><path d="M18.038,9.181H1.167A1.167,1.167,0,0,1,0,8.013V1.168A1.167,1.167,0,0,1,1.167,0H18.038a1.167,1.167,0,0,1,1.167,1.168V8.013A1.167,1.167,0,0,1,18.038,9.181Z" transform="translate(0.605 0.008)" fill="none"/><g clip-path="url(#h)"><path d="M0,0H29.205V19.181H0Z" transform="translate(-4.395 -4.992)" fill="#e0e8f6"/></g></g><g transform="translate(83 9)"><path d="M39.1,101.706H0V3.321A3.32,3.32,0,0,1,4.123.1l32.46,8.1A3.32,3.32,0,0,1,39.1,11.419Z" transform="translate(0.684 0.644)" fill="none"/><g clip-path="url(#i)"><path d="M0,0H49.1V111.706H0Z" transform="translate(-4.316 -4.356)" fill="#d0dbf0"/></g></g><g transform="translate(66 71)"><path d="M0,39.528V5.522A5.522,5.522,0,0,1,5.522,0h6.263V39.528Z" transform="translate(0.351 0.822)" fill="none"/><g clip-path="url(#j)"><path d="M0,0H21.785V49.528H0Z" transform="translate(-4.649 -4.178)" fill="#e0e8f6"/></g></g><g transform="translate(163 50)"><path d="M1.466,54.553A1.466,1.466,0,0,1,0,53.087V1.466a1.466,1.466,0,0,1,2.933,0v51.62A1.466,1.466,0,0,1,1.466,54.553Z" transform="translate(0.354 0.325)" fill="none"/><g clip-path="url(#k)"><path d="M0,0H12.933V64.553H0Z" transform="translate(-4.646 -4.675)" fill="#c0cbe2"/></g></g><g transform="translate(155 50)"><path d="M1.466,54.553A1.466,1.466,0,0,1,0,53.087V1.466a1.466,1.466,0,0,1,2.933,0v51.62A1.466,1.466,0,0,1,1.466,54.553Z" transform="translate(0.218 0.325)" fill="none"/><g clip-path="url(#l)"><path d="M0,0H12.933V64.553H0Z" transform="translate(-4.782 -4.675)" fill="#c0cbe2"/></g></g><g transform="translate(89 28)"><path d="M25.444,4.59H2.295a2.3,2.3,0,0,1,0-4.59h23.15a2.3,2.3,0,0,1,0,4.59Z" transform="translate(0.925 0.008)" fill="none"/><g clip-path="url(#m)"><path d="M0,0H37.739V14.59H0Z" transform="translate(-4.075 -4.992)" fill="#c1cae7"/></g></g><g transform="translate(89 38)"><path d="M25.444,4.59H2.295a2.3,2.3,0,0,1,0-4.59h23.15a2.3,2.3,0,0,1,0,4.59Z" transform="translate(0.925 0.069)" fill="none"/><g clip-path="url(#n)"><path d="M0,0H37.739V14.59H0Z" transform="translate(-4.075 -4.931)" fill="#c1cae7"/></g></g><g transform="translate(89 48)"><path d="M25.444,4.59H2.295a2.3,2.3,0,0,1,0-4.59h23.15a2.3,2.3,0,0,1,0,4.59Z" transform="translate(0.925 0.132)" fill="none"/><g clip-path="url(#o)"><path d="M0,0H37.739V14.59H0Z" transform="translate(-4.075 -4.868)" fill="#c1cae7"/></g></g><g transform="translate(89 58)"><path d="M25.444,4.59H2.295a2.3,2.3,0,0,1,0-4.59h23.15a2.3,2.3,0,0,1,0,4.59Z" transform="translate(0.925 0.193)" fill="none"/><g clip-path="url(#p)"><path d="M0,0H37.739V14.59H0Z" transform="translate(-4.075 -4.806)" fill="#c1cae7"/></g></g><g transform="translate(89 68)"><path d="M25.444,4.59H2.295a2.3,2.3,0,0,1,0-4.59h23.15a2.3,2.3,0,0,1,0,4.59Z" transform="translate(0.925 0.255)" fill="none"/><g clip-path="url(#q)"><path d="M0,0H37.739V14.59H0Z" transform="translate(-4.075 -4.745)" fill="#c1cae7"/></g></g><g transform="translate(89 78)"><path d="M25.444,4.59H2.295a2.3,2.3,0,0,1,0-4.59h23.15a2.3,2.3,0,0,1,0,4.59Z" transform="translate(0.925 0.317)" fill="none"/><g clip-path="url(#r)"><path d="M0,0H37.739V14.59H0Z" transform="translate(-4.075 -4.683)" fill="#c1cae7"/></g></g><g transform="translate(89 88)"><path d="M25.444,4.59H2.295a2.3,2.3,0,0,1,0-4.59h23.15a2.3,2.3,0,0,1,0,4.59Z" transform="translate(0.925 0.379)" fill="none"/><g clip-path="url(#s)"><path d="M0,0H37.739V14.59H0Z" transform="translate(-4.075 -4.621)" fill="#c1cae7"/></g></g><g transform="translate(89 98)"><path d="M25.444,4.59H2.295a2.3,2.3,0,0,1,0-4.59h23.15a2.3,2.3,0,0,1,0,4.59Z" transform="translate(0.925 0.441)" fill="none"/><g clip-path="url(#t)"><path d="M0,0H37.739V14.59H0Z" transform="translate(-4.075 -4.559)" fill="#c1cae7"/></g></g><g transform="translate(26 45)"><path d="M30.975,66.112H0V5.007A5.007,5.007,0,0,1,5.007,0H25.968a5.007,5.007,0,0,1,5.007,5.007Z" transform="translate(0.357 0.239)" fill="none"/><g clip-path="url(#u)"><path d="M0,0H40.975V76.112H0Z" transform="translate(-4.643 -4.761)" fill="#e0e8f6"/></g></g><g transform="translate(30 54)"><path d="M21.2,3.978H1.952A1.952,1.952,0,0,1,0,2.026V1.952A1.952,1.952,0,0,1,1.952,0H21.2a1.952,1.952,0,0,1,1.952,1.952v.074A1.951,1.951,0,0,1,21.2,3.978Z" transform="translate(0.27 0.435)" fill="none"/><g clip-path="url(#v)"><path d="M0,0H33.149V13.978H0Z" transform="translate(-4.73 -4.565)" fill="#c1cae7"/></g></g><g transform="translate(30 63)"><path d="M21.2,3.978H1.952A1.952,1.952,0,0,1,0,2.026V1.952A1.952,1.952,0,0,1,1.952,0H21.2a1.952,1.952,0,0,1,1.952,1.952v.074A1.951,1.951,0,0,1,21.2,3.978Z" transform="translate(0.27 0.154)" fill="none"/><g clip-path="url(#w)"><path d="M0,0H33.149V13.978H0Z" transform="translate(-4.73 -4.845)" fill="#c1cae7"/></g></g><g transform="translate(30 71)"><path d="M21.2,3.978H1.952A1.952,1.952,0,0,1,0,2.026V1.952A1.952,1.952,0,0,1,1.952,0H21.2a1.952,1.952,0,0,1,1.952,1.952v.074A1.951,1.951,0,0,1,21.2,3.978Z" transform="translate(0.27 0.874)" fill="none"/><g clip-path="url(#x)"><path d="M0,0H33.149V13.978H0Z" transform="translate(-4.73 -4.126)" fill="#c1cae7"/></g></g><g transform="translate(30 80)"><path d="M21.2,3.978H1.952A1.952,1.952,0,0,1,0,2.026V1.952A1.952,1.952,0,0,1,1.952,0H21.2a1.952,1.952,0,0,1,1.952,1.952v.074A1.951,1.951,0,0,1,21.2,3.978Z" transform="translate(0.27 0.593)" fill="none"/><g clip-path="url(#y)"><path d="M0,0H33.149V13.978H0Z" transform="translate(-4.73 -4.407)" fill="#c1cae7"/></g></g><g transform="translate(30 89)"><path d="M21.2,3.978H1.952A1.952,1.952,0,0,1,0,2.026V1.952A1.952,1.952,0,0,1,1.952,0H21.2a1.952,1.952,0,0,1,1.952,1.952v.074A1.952,1.952,0,0,1,21.2,3.978Z" transform="translate(0.27 0.312)" fill="none"/><g clip-path="url(#z)"><path d="M0,0H33.149V13.978H0Z" transform="translate(-4.73 -4.688)" fill="#c1cae7"/></g></g><g transform="translate(30 98)"><path d="M21.2,3.977H1.952A1.952,1.952,0,0,1,0,2.026V1.952A1.952,1.952,0,0,1,1.952,0H21.2a1.952,1.952,0,0,1,1.952,1.952v.074A1.951,1.951,0,0,1,21.2,3.977Z" transform="translate(0.27 0.032)" fill="none"/><g clip-path="url(#aa)"><path d="M0,0H33.149V13.977H0Z" transform="translate(-4.73 -4.968)" fill="#c1cae7"/></g></g><g transform="translate(170 48)"><path d="M37.915,66.111H0V5.539A5.539,5.539,0,0,1,5.539,0H32.375a5.539,5.539,0,0,1,5.54,5.539Z" transform="translate(0.155 0.013)" fill="none"/><g clip-path="url(#ab)"><path d="M0,0H47.915V76.111H0Z" transform="translate(-4.845 -4.987)" fill="#e0e8f6"/></g></g><g transform="translate(174 57)"><path d="M26.347,3.978H1.988A1.989,1.989,0,0,1,1.988,0H26.347a1.989,1.989,0,1,1,0,3.978Z" transform="translate(0.945 0.209)" fill="none"/><g clip-path="url(#ac)"><path d="M0,0H38.336V13.978H0Z" transform="translate(-4.055 -4.791)" fill="#c1cae7"/></g></g><g transform="translate(174 65)"><path d="M26.347,3.978H1.988A1.989,1.989,0,0,1,1.988,0H26.347a1.989,1.989,0,1,1,0,3.978Z" transform="translate(0.945 0.929)" fill="none"/><g clip-path="url(#ad)"><path d="M0,0H38.336V13.978H0Z" transform="translate(-4.055 -4.071)" fill="#c1cae7"/></g></g><g transform="translate(174 74)"><path d="M26.347,3.978H1.988A1.989,1.989,0,0,1,1.988,0H26.347a1.989,1.989,0,1,1,0,3.978Z" transform="translate(0.945 0.648)" fill="none"/><g clip-path="url(#ae)"><path d="M0,0H38.336V13.978H0Z" transform="translate(-4.055 -4.352)" fill="#c1cae7"/></g></g><g transform="translate(49 32)"><path d="M25.837,15.57H28.2V36.6h-8a6.1,6.1,0,0,0-6.1,6.1V78.789H11.068V14.935A5.745,5.745,0,0,0,5.323,9.19H0V0H20.342V10.075A5.5,5.5,0,0,0,25.837,15.57Z" transform="translate(0.935 0.562)" fill="none"/><g clip-path="url(#af)"><path d="M0,0H38.2V88.789H0Z" transform="translate(-4.065 -4.438)" fill="#d0dbf0"/></g></g><g transform="translate(159 14)"><path d="M12.173,7.755H1.168A1.167,1.167,0,0,1,0,6.588V1.167A1.167,1.167,0,0,1,1.168,0H12.173A1.167,1.167,0,0,1,13.34,1.167v5.42A1.167,1.167,0,0,1,12.173,7.755Z" transform="translate(0.537 0.302)" fill="none"/><g clip-path="url(#ag)"><path d="M0,0H23.34V17.755H0Z" transform="translate(-4.463 -4.698)" fill="#e0e8f6"/></g></g><g transform="translate(164)"><path d="M4.15,11.581H0V.8A.8.8,0,0,1,.8,0H3.355a.8.8,0,0,1,.8.8Z" transform="translate(0.133 0.536)" fill="none"/><g clip-path="url(#ah)"><path d="M0,0H14.15V21.581H0Z" transform="translate(-4.867 -4.464)" fill="#e0e8f6"/></g></g><g transform="translate(53 115)"><path d="M125.156,6.241H3.121A3.121,3.121,0,0,1,3.121,0H125.156a3.121,3.121,0,1,1,0,6.241Z" transform="translate(0.418 0.28)" fill="none"/><g clip-path="url(#ai)"><path d="M0,0H138.277V16.241H0Z" transform="translate(-4.582 -4.72)" fill="#7e89a0"/></g></g><g transform="translate(0 97)"><path d="M252.849,30.014a15,15,0,0,1-14.83,15v.009H204.437a3.218,3.218,0,1,1,0-6.437h29.119a4.285,4.285,0,1,0,0-8.571H15.007A15.007,15.007,0,0,1,15.007,0h8.109V6.436H21.854a4.285,4.285,0,1,0,0,8.571H237.842A15.008,15.008,0,0,1,252.849,30.014Z" transform="translate(0.005 0.055)" fill="none"/><g clip-path="url(#aj)"><path d="M0,0H262.849V55.022H0Z" transform="translate(-4.995 -4.945)" fill="#919db6"/></g></g><g transform="translate(164 135)"><path d="M23.98,0a3.218,3.218,0,0,1,0,6.437H3.218A3.218,3.218,0,0,1,3.218,0Z" transform="translate(0.82 0.64)" fill="none"/><g clip-path="url(#ak)"><path d="M0,0H37.2V16.437H0Z" transform="translate(-4.18 -4.36)" fill="#919db6"/></g></g><g transform="translate(157.834 79.937)"><path d="M200.675,295.667h-.168a1.056,1.056,0,0,1-1-1.386c.211-.653.569-1.311,1.171-1.411,1.243-.208,4.661.83,4.661,1.554s0,1.035-.416,1.035h-2.588l-2.073,2.281-.044-.037a.954.954,0,0,1,0-1.464A2.157,2.157,0,0,0,200.675,295.667Z" transform="translate(-184.336 -286.77)" fill="#263238" stroke="#263238" stroke-linecap="round" stroke-linejoin="round" stroke-width="1"/><path d="M278.72,327.435h34.389s4.972-3.316,3.934-12.016-6.628-2.9-8.7,2.9H293.014s-3.316-6.631-8.7-5.8S278.72,327.435,278.72,327.435Z" transform="translate(-238.974 -299.273)" fill="#263238" stroke="#263238" stroke-linecap="round" stroke-linejoin="round" stroke-width="1"/><path d="M279.077,338.636a11.189,11.189,0,0,0-1.9-6.482V329.73H273.03c-3.344,0-6.05,3.987-6.05,8.906s2.707,8.89,6.05,8.89h4.145V345.1A11.124,11.124,0,0,0,279.077,338.636Z" transform="translate(-230.882 -312.195)" fill="#263238" stroke="#263238" stroke-linecap="round" stroke-linejoin="round" stroke-width="1"/><ellipse cx="6.05" cy="8.903" rx="6.05" ry="8.903" transform="translate(40.243 17.538)" fill="#263238"/><g transform="translate(40.243 17.538)" clip-path="url(#al)"><ellipse cx="6.05" cy="8.903" rx="6.05" ry="8.903" fill="#fff" opacity="0.2"/></g><ellipse cx="6.05" cy="8.903" rx="6.05" ry="8.903" transform="translate(40.243 17.538)" fill="none" stroke="#263238" stroke-linecap="round" stroke-linejoin="round" stroke-width="1"/><path d="M164.248,329.73h-3.931c-3.157,0-5.718,3.987-5.718,8.906s2.573,8.89,5.718,8.89h3.918c3.157,0,5.718-3.987,5.718-8.9S167.405,329.73,164.248,329.73Z" transform="translate(-153.422 -312.195)" fill="#263238" stroke="#263238" stroke-linecap="round" stroke-linejoin="round" stroke-width="1"/><ellipse cx="4.826" cy="7.103" rx="4.826" ry="7.103" transform="translate(41.468 19.337)" fill="#fff" stroke="#263238" stroke-linecap="round" stroke-linejoin="round" stroke-width="1"/><path d="M377.732,338.636a16.074,16.074,0,0,0-1.212-6.482V329.73h-3.66c-2.125,0-3.85,3.987-3.85,8.906s1.725,8.89,3.85,8.89h3.66V345.1A15.972,15.972,0,0,0,377.732,338.636Z" transform="translate(-301.208 -312.195)" fill="#263238" stroke="#263238" stroke-linecap="round" stroke-linejoin="round" stroke-width="1"/><ellipse cx="3.85" cy="8.903" rx="3.85" ry="8.903" transform="translate(71.463 17.538)" fill="#263238"/><g transform="translate(71.463 17.538)" clip-path="url(#am)"><ellipse cx="3.85" cy="8.903" rx="3.85" ry="8.903" fill="#fff" opacity="0.2"/></g><ellipse cx="3.85" cy="8.903" rx="3.85" ry="8.903" transform="translate(71.463 17.538)" fill="none" stroke="#263238" stroke-linecap="round" stroke-linejoin="round" stroke-width="1"/><ellipse cx="3.07" cy="7.103" rx="3.07" ry="7.103" transform="translate(72.243 19.337)" fill="#fff" stroke="#263238" stroke-linecap="round" stroke-linejoin="round" stroke-width="1"/><path d="M192.01,301.912c0-7.094,2.467-12.846,5.506-12.846s5.506,5.752,5.506,12.846c0,.392,0,.777-.025,1.156h19.617q-.019-.569-.019-1.156c0-7.094,1.8-12.846,4.012-12.846,1.479,0,2.772,2.57,3.465,6.392V284.981a2.045,2.045,0,0,0-1.672-2.01l-.093-.019c-1.361-.273-3.807-2.856-7.613-6.118a13.954,13.954,0,0,0-7.206-3.533H179.151a2.93,2.93,0,0,0-1.793.621l-11.712,9.039s-10.469,2.038-12.781,4.35-2.038,15.767-2.038,15.767h41.207C192.019,302.689,192.01,302.3,192.01,301.912Z" transform="translate(-150.815 -273.3)" fill="#369cc7"/><g transform="translate(0.002 0)" clip-path="url(#an)"><path d="M198.808,282.951l1.818-9.651H179.151a2.93,2.93,0,0,0-1.793.621l-11.712,9.039s-10.469,2.038-12.781,4.35-2.038,15.767-2.038,15.767h36.766c.267-7.265,1.933-10.72,1.933-10.72H179.375C187.246,283.853,198.808,282.951,198.808,282.951Z" transform="translate(-150.818 -273.3)" opacity="0.3"/></g><path d="M192.01,301.912c0-7.094,2.467-12.846,5.506-12.846s5.506,5.752,5.506,12.846c0,.392,0,.777-.025,1.156h19.617q-.019-.569-.019-1.156c0-7.094,1.8-12.846,4.012-12.846,1.479,0,2.772,2.57,3.465,6.392V284.981a2.045,2.045,0,0,0-1.672-2.01l-.093-.019c-1.361-.273-3.807-2.856-7.613-6.118a13.954,13.954,0,0,0-7.206-3.533H179.151a2.93,2.93,0,0,0-1.793.621l-11.712,9.039s-10.469,2.038-12.781,4.35-2.038,15.767-2.038,15.767h41.207C192.019,302.689,192.01,302.3,192.01,301.912Z" transform="translate(-150.815 -273.3)" fill="none" stroke="#263238" stroke-linecap="round" stroke-linejoin="round" stroke-width="1"/><path d="M237.954,273.3H212.045a2.93,2.93,0,0,0-1.793.621l-11.712,9.039H231.7Z" transform="translate(-183.709 -273.3)" fill="#369cc7" stroke="#263238" stroke-linecap="round" stroke-linejoin="round" stroke-width="1"/><path d="M259.644,316.06c-1.864.025-5.13.149-6.544.715a25.755,25.755,0,0,0-3.4,1.631h6.659Z" transform="translate(-218.971 -302.773)" fill="#263238" stroke="#263238" stroke-linecap="round" stroke-linejoin="round" stroke-width="1"/><path d="M256.769,327.454V326.23H249.7l1.28,1.181a.292.292,0,0,0-.056.044Z" transform="translate(-218.971 -309.783)" fill="#263238" stroke="#263238" stroke-linecap="round" stroke-linejoin="round" stroke-width="1"/><path d="M274.63,318.676v1.777a1.8,1.8,0,0,0,1.361-.827c.681-1.088,2.209-3.567,2.209-3.567Z" transform="translate(-236.155 -302.773)" fill="#263238" stroke="#263238" stroke-linecap="round" stroke-linejoin="round" stroke-width="1"/><path d="M155.092,327.381l1.28-1.181h-3.017c-.093.382-.18.792-.255,1.224h2.048A.441.441,0,0,0,155.092,327.381Z" transform="translate(-152.388 -309.762)" fill="#263238" stroke="#263238" stroke-linecap="round" stroke-linejoin="round" stroke-width="1"/><path d="M155.157,319.87a5.7,5.7,0,0,0-.5,1.162h2.8a23.561,23.561,0,0,0-2.3-1.162Z" transform="translate(-153.464 -305.399)" fill="#263238" stroke="#263238" stroke-linecap="round" stroke-linejoin="round" stroke-width="1"/><path d="M305.26,285.667h20.117s2.856-.951,2.038-4.487c-.277-1.2-5.982-3.94-6.8-3.94h-9.788Z" transform="translate(-257.267 -276.016)" fill="#263238"/><g transform="translate(47.993 1.224)" clip-path="url(#ao)"><path d="M305.26,285.667h20.117s2.856-.951,2.038-4.487c-.277-1.2-5.982-3.94-6.8-3.94h-9.788Z" transform="translate(-305.26 -277.24)" fill="#fff" stroke="#263238" stroke-linecap="round" stroke-linejoin="round" stroke-width="1" opacity="0.2"/></g><path d="M305.26,285.667h20.117s2.856-.951,2.038-4.487c-.277-1.2-5.982-3.94-6.8-3.94h-9.788Z" transform="translate(-257.267 -276.016)" fill="none" stroke="#263238" stroke-linecap="round" stroke-linejoin="round" stroke-width="1"/><path d="M209.432,277.24l-10.922,8.427h33.171l5.46-8.427Z" transform="translate(-183.688 -276.016)" fill="#263238" stroke="#263238" stroke-linecap="round" stroke-linejoin="round" stroke-width="1"/><path d="M165.27,324.48v2.856l2.038,1.495h16.447l3.807-1.631V324.48Z" transform="translate(-160.777 -308.577)" fill="#263238" stroke="#263238" stroke-linecap="round" stroke-linejoin="round" stroke-width="1"/><rect width="0.761" height="0.761" transform="translate(4.493 15.903)" fill="#fff" opacity="0.3"/><rect width="0.761" height="0.761" transform="translate(5.332 16.746)" fill="#fff" opacity="0.3"/><rect width="0.761" height="0.761" transform="translate(6.174 17.585)" fill="#fff" opacity="0.3"/><rect width="0.761" height="0.761" transform="translate(7.013 18.427)" fill="#fff" opacity="0.3"/><rect width="0.761" height="0.761" transform="translate(25.875 15.903)" fill="#fff" opacity="0.3"/><rect width="0.761" height="0.761" transform="translate(25.033 16.746)" fill="#fff" opacity="0.3"/><rect width="0.761" height="0.761" transform="translate(24.194 17.585)" fill="#fff" opacity="0.3"/><rect width="0.761" height="0.761" transform="translate(23.355 18.427)" fill="#fff" opacity="0.3"/><rect width="0.761" height="0.761" transform="translate(8.182 18.427)" fill="#fff" opacity="0.3"/><rect width="0.761" height="0.761" transform="translate(9.347 18.427)" fill="#fff" opacity="0.3"/><rect width="0.761" height="0.761" transform="translate(10.515 18.427)" fill="#fff" opacity="0.3"/><rect width="0.761" height="0.761" transform="translate(11.684 18.427)" fill="#fff" opacity="0.3"/><rect width="0.761" height="0.761" transform="translate(12.849 18.427)" fill="#fff" opacity="0.3"/><rect width="0.761" height="0.761" transform="translate(14.017 18.427)" fill="#fff" opacity="0.3"/><rect width="0.761" height="0.761" transform="translate(15.183 18.427)" fill="#fff" opacity="0.3"/><rect width="0.761" height="0.761" transform="translate(16.351 18.427)" fill="#fff" opacity="0.3"/><rect width="0.761" height="0.761" transform="translate(17.519 18.427)" fill="#fff" opacity="0.3"/><rect width="0.761" height="0.761" transform="translate(18.685 18.427)" fill="#fff" opacity="0.3"/><rect width="0.761" height="0.761" transform="translate(19.853 18.427)" fill="#fff" opacity="0.3"/><rect width="0.761" height="0.761" transform="translate(21.018 18.427)" fill="#fff" opacity="0.3"/><rect width="0.761" height="0.761" transform="translate(22.186 18.427)" fill="#fff" opacity="0.3"/><path d="M185.534,339.9H151.689l-.454-3.626c-.208,1.995-.311,4.117-.345,5.864l.118.482.68-1.358h2.9l-1.8,1.482H179.7l-.96-1.495h6.805l1.9,1.088h1.358v-6.92Z" transform="translate(-150.865 -316.117)" fill="#263238" stroke="#263238" stroke-linecap="round" stroke-linejoin="round" stroke-width="1"/><path d="M325.342,295.667h-.168a1.057,1.057,0,0,1-1-1.386c.208-.653.569-1.311,1.168-1.411,1.243-.208,4.661.83,4.661,1.554s0,1.035-.413,1.035H327l-2.073,2.281-.043-.037a.954.954,0,0,1,0-1.464,2.148,2.148,0,0,0,.457-.572Z" transform="translate(-270.267 -286.77)" fill="#369cc7"/><path d="M342.464,285.667H343.6a19.848,19.848,0,0,0-2.464-8.427H340A27.365,27.365,0,0,1,342.464,285.667Z" transform="translate(-281.212 -276.016)" fill="#263238" stroke="#263238" stroke-linecap="round" stroke-linejoin="round" stroke-width="1"/><path d="M230.044,283.221l.416,1.137a2.679,2.679,0,0,0-.83,1.864v3.138H227.08l2.138-6.14Zm-11.91,1.554a47.624,47.624,0,0,0-5.674,4.586h8.517l4.406-6.762-2.9.205A18.289,18.289,0,0,0,218.134,284.775Zm17.609-.83-1.038-.208h-1.448l-.416.416s1.038.1,1.14.724a15.965,15.965,0,0,1,.1,1.864h.727a2.8,2.8,0,0,1,.516-1.656,9.823,9.823,0,0,1,.932-.83Z" transform="translate(-193.303 -279.71)" fill="#fff" stroke="#263238" stroke-linecap="round" stroke-linejoin="round" stroke-width="1"/><path d="M324.912,301.953l.043.037,2.073-2.281h2.588c.342,0,.4-.214.41-.7H324.16a1.053,1.053,0,0,0,1.041.907h.168a2.147,2.147,0,0,1-.46.572.954.954,0,0,0,0,1.464Z" transform="translate(-270.294 -291.021)" fill="#263238" stroke="#263238" stroke-linecap="round" stroke-linejoin="round" stroke-width="1"/><rect width="2.331" height="0.5" transform="translate(58.679 12.153)" fill="#263238"/><rect width="2.331" height="0.5" transform="translate(69.173 12.153)" fill="#263238"/><path d="M378.128,306s1.687,1.147,2.666,5.164c0,0-4.164.5-4.164,11.991" transform="translate(-306.46 -295.839)" fill="none" stroke="#263238" stroke-linecap="round" stroke-linejoin="round" stroke-width="1"/><path d="M336.194,362.79h-17.47v.8c0,.392,0,.777-.025,1.156h19.617q-.019-.569-.019-1.156v-.078Z" transform="translate(-266.531 -334.982)" fill="#263238" stroke="#263238" stroke-linecap="round" stroke-linejoin="round" stroke-width="1"/><path d="M192,363.595v-.8H150.81v1.961h41.219C192.013,364.372,192,363.986,192,363.595Z" transform="translate(-150.81 -334.982)" fill="#263238" stroke="#263238" stroke-linecap="round" stroke-linejoin="round" stroke-width="1"/><path d="M400.874,309.2a1.193,1.193,0,0,0-1.047,1.765l1.777,3.263v-4.5a2.079,2.079,0,0,0-.075-.525Z" transform="translate(-322.348 -298.045)" fill="#263238" stroke="#263238" stroke-linecap="round" stroke-linejoin="round" stroke-width="1"/><path d="M352.05,309.93s3.729,5.385,0,14.5" transform="translate(-289.518 -298.548)" fill="none" stroke="#263238" stroke-linecap="round" stroke-linejoin="round" stroke-width="1"/></g></g><g transform="translate(123 126)"><path d="M18.691,8.571,7.431,18.023a4.523,4.523,0,0,1-5.815-6.929L13.968.725a3.1,3.1,0,0,1,4.363.381L19.247,2.2A4.522,4.522,0,0,1,18.691,8.571Z" transform="translate(0.549 0.304)" fill="none"/><g clip-path="url(#ap)"><path d="M0,0H30.306V29.081H0Z" transform="translate(-4.451 -4.696)" fill="#dbaa79"/></g></g><g transform="translate(122 126)"><path d="M18.979,6.732,6.22,17.441a3.544,3.544,0,0,1-4.994-.436l-.4-.472a3.545,3.545,0,0,1,.435-4.994L14.025.83a3.544,3.544,0,0,1,4.993.436l.4.472A3.545,3.545,0,0,1,18.979,6.732Z" transform="translate(0.864 0.148)" fill="none"/><g clip-path="url(#aq)"><path d="M0,0H30.245V28.272H0Z" transform="translate(-4.136 -4.852)" fill="#eac897"/></g></g><g transform="translate(94 179)"><path d="M1.611,0,29.544,2.878,26.5,20.315S.6,34.535.087,34.366,1.442.677,1.611,0Z" transform="translate(0.994 0.85)" fill="none"/><g clip-path="url(#ar)"><path d="M0,0H39.544V44.368H0Z" transform="translate(-4.006 -4.15)" fill="#dbaa79"/></g></g><g transform="translate(48 141)"><path d="M0,103.118,24.339,60.777S23.322,32.165,28.232,23.87,48.885,0,48.885,0s10.666,8.973-6.94,22.516c0,5.418-.339,9.481-.339,9.481s13.375,3.894,9.311,33.181c8.8,0,16.252-2.031,18.622-10.157a69.255,69.255,0,0,1,3.894-8.3c-2.031,0,1.693-45.2,1.693-45.2L82.744,35.89C81.9,37.921,80.659,57.4,71.571,68.055,61.031,80.414,53.965,79.4,52.441,79.737c-.675,1.35-1.883,3.5-3.15,5.693a14.3,14.3,0,0,1-11.026,7.12c-.582.054-1.216.127-1.906.222-5.484.756-5.926,3.555-9.819,5.756s-8.3,5.247-14.39,2.2c-5.711-2.856-10.477,1.018-12.01,2.507L0,103.118Z" transform="translate(0.734 0.589)" fill="none"/><g clip-path="url(#as)"><path d="M0,0H93.123V113.776H0Z" transform="translate(-4.644 -4.411)" fill="#eac897"/></g></g><g transform="translate(86 104)"><path d="M38.854,92.464H8.135A8.135,8.135,0,0,1,0,84.328V8.135A8.135,8.135,0,0,1,8.135,0H38.854a8.135,8.135,0,0,1,8.135,8.135V84.328A8.135,8.135,0,0,1,38.854,92.464Z" transform="translate(0.12 0.176)" fill="none"/><g clip-path="url(#at)"><path d="M0,0H56.989V102.464H0Z" transform="translate(-4.88 -4.824)" fill="#535565"/></g></g><g transform="translate(88 106)"><path d="M34.714,87.7H7.511A7.511,7.511,0,0,1,0,80.187V7.51A7.511,7.511,0,0,1,7.511,0h27.2a7.51,7.51,0,0,1,7.511,7.51V80.187A7.511,7.511,0,0,1,34.714,87.7Z" transform="translate(0.502 0.559)" fill="none"/><g clip-path="url(#au)"><path d="M0,0H52.225V97.7H0Z" transform="translate(-4.498 -4.441)" fill="#ffe3e0"/></g></g><g transform="translate(88 106)"><path d="M34.714,87.7H7.511A7.511,7.511,0,0,1,0,80.187V7.51A7.511,7.511,0,0,1,7.511,0h27.2a7.51,7.51,0,0,1,7.511,7.51V80.187A7.511,7.511,0,0,1,34.714,87.7Z" transform="translate(0.502 0.559)" fill="none"/><g clip-path="url(#au)"><path d="M0,0H52.225V97.7H0Z" transform="translate(-4.498 -4.441)" fill="#369cc7"/></g></g><g transform="translate(98 122)"><path d="M23.009,11.5A11.5,11.5,0,1,1,11.5,0,11.5,11.5,0,0,1,23.009,11.5Z" transform="translate(0.11 0.099)" fill="none"/><g clip-path="url(#aw)"><path d="M0,0H33.009V33.008H0Z" transform="translate(-4.89 -4.901)" fill="#fff"/></g></g><g transform="translate(99 105)"><path d="M16.632,4.438H3.074A3.073,3.073,0,0,1,0,1.365V0H19.7V1.365A3.073,3.073,0,0,1,16.632,4.438Z" transform="translate(0.762 0.422)" fill="none"/><g clip-path="url(#ax)"><path d="M0,0H29.7V14.438H0Z" transform="translate(-4.238 -4.578)" fill="#535565"/></g></g><g transform="translate(99 169)"><path d="M9.421,14.91A12.058,12.058,0,0,1,.295.5.624.624,0,0,1,.9.017L3.673,0a.623.623,0,0,1,.617.509L4.87,3.623a.623.623,0,0,1-.333.672l-1.819.913A9.641,9.641,0,0,0,6.2,10.71l1.6-1.255a.624.624,0,0,1,.75-.014L11.122,11.3a.625.625,0,0,1,.2.776l-1.2,2.5A.625.625,0,0,1,9.421,14.91Z" transform="translate(0.362 0.482)" fill="none"/><g clip-path="url(#ay)"><path d="M0,0H21.381V24.925H0Z" transform="translate(-4.638 -4.518)" fill="#fff"/></g></g><g transform="translate(108 173)"><path d="M2.344,1.172A1.172,1.172,0,1,1,1.172,0,1.172,1.172,0,0,1,2.344,1.172Z" transform="translate(0.511 0.454)" fill="none"/><g clip-path="url(#az)"><path d="M0,0H12.344V12.344H0Z" transform="translate(-4.489 -4.546)" fill="#fff"/></g></g><g transform="translate(112 173)"><path d="M2.344,1.172A1.172,1.172,0,1,1,1.172,0,1.172,1.172,0,0,1,2.344,1.172Z" transform="translate(0.278 0.454)" fill="none"/><g clip-path="url(#ba)"><path d="M0,0H12.344V12.344H0Z" transform="translate(-4.722 -4.546)" fill="#fff"/></g></g><g transform="translate(116 173)"><path d="M2.344,1.172A1.172,1.172,0,1,1,1.172,0,1.172,1.172,0,0,1,2.344,1.172Z" transform="translate(0.044 0.454)" fill="none"/><g clip-path="url(#bb)"><path d="M0,0H12.344V12.344H0Z" transform="translate(-4.956 -4.546)" fill="#fff"/></g></g><g transform="translate(97 151)"><path d="M24.867,2.09H1.045a1.045,1.045,0,1,1,0-2.09H24.867a1.045,1.045,0,0,1,0,2.09Z" transform="translate(0.045 0.914)" fill="none"/><g clip-path="url(#bc)"><path d="M0,0H35.912V12.09H0Z" transform="translate(-4.955 -4.086)" fill="#fff"/></g></g><g transform="translate(102 156)"><path d="M14.556,2.091H1.045A1.045,1.045,0,0,1,1.045,0h13.51a1.045,1.045,0,0,1,0,2.091Z" transform="translate(0.201 0.76)" fill="none"/><g clip-path="url(#bd)"><path d="M0,0H25.6V12.091H0Z" transform="translate(-4.799 -4.24)" fill="#fff"/></g></g><g transform="translate(82 173)"><path d="M2.2,0c15.787,2.971,16.58,14.536,15.651,33.643C2.864,31.727,0,13.96,0,13.96Z" transform="translate(0.511 0.222)" fill="none"/><g clip-path="url(#be)"><path d="M0,0H28.115V43.643H0Z" transform="translate(-4.489 -4.778)" fill="#eac897"/></g></g><g transform="translate(75 141)"><path d="M0,28.674C3.583,11.222,17.115,0,17.115,0s10.746,10.3-6.142,24.726c0,6.21.123,7.859.123,7.859Z" transform="translate(0.246 0.287)" fill="none"/><g clip-path="url(#bf)"><path d="M0,0H30.485V42.585H0Z" transform="translate(-4.754 -4.713)" fill="#eac897"/></g></g><g transform="translate(124 150)"><path d="M9.846,9.54H4.77A4.77,4.77,0,0,1,4.77,0H9.846a4.77,4.77,0,0,1,0,9.54Z" transform="translate(0.171 0.408)" fill="none"/><g clip-path="url(#bg)"><path d="M0,0H24.616V19.54H0Z" transform="translate(-4.829 -4.592)" fill="#eac897"/></g></g><g transform="translate(124 161)"><path d="M7.933,9.54H4.378A4.378,4.378,0,0,1,0,5.163V4.377A4.378,4.378,0,0,1,4.378,0H7.933a4.378,4.378,0,0,1,4.378,4.377v.786A4.378,4.378,0,0,1,7.933,9.54Z" transform="translate(0.17 0.243)" fill="none"/><g clip-path="url(#bh)"><path d="M0,0H22.311V19.54H0Z" transform="translate(-4.83 -4.757)" fill="#eac897"/></g></g><g transform="translate(127 172)"><path d="M5.472,9.54h-.7A4.77,4.77,0,1,1,4.77,0h.7a4.77,4.77,0,1,1,0,9.54Z" transform="translate(0.789 0.755)" fill="none"/><g clip-path="url(#bi)"><path d="M0,0H20.243V19.54H0Z" transform="translate(-4.21 -4.245)" fill="#eac897"/></g></g><g transform="translate(126 151)"><path d="M3.453,7.081A3.59,3.59,0,0,1,0,3.546,3.54,3.54,0,0,1,3.541,0h.064a.655.655,0,0,1,.423,1.122,3.529,3.529,0,0,0,0,4.838.656.656,0,0,1-.435,1.122Z" transform="translate(0.75 0.637)" fill="none"/><g clip-path="url(#bj)"><path d="M0,0H14.219V17.082H0Z" transform="translate(-4.25 -4.363)" fill="#ecdbd0"/></g></g><g transform="translate(126 162)"><path d="M3.428,7.081A3.589,3.589,0,0,1,0,3.522,3.542,3.542,0,0,1,3.566,0a3.479,3.479,0,0,1,.545.047.462.462,0,0,1,.216.815,3.53,3.53,0,0,0-.038,5.371.461.461,0,0,1-.235.812A3.433,3.433,0,0,1,3.428,7.081Z" transform="translate(0.356 0.48)" fill="none"/><g clip-path="url(#bk)"><path d="M0,0H14.5V17.083H0Z" transform="translate(-4.644 -4.52)" fill="#ecdbd0"/></g></g><g transform="translate(129 174)"><path d="M2.158,5.63A2.865,2.865,0,0,1,.005,3.04,2.885,2.885,0,0,1,2.9.017C3.346.006,4.149-.09,4.133.325c-.021.529-1.642,1.4-1.664,2.532A2.839,2.839,0,0,0,3.663,5.229.214.214,0,0,1,3.6,5.61,2.845,2.845,0,0,1,2.158,5.63Z" transform="translate(0.699 0.703)" fill="none"/><g clip-path="url(#bl)"><path d="M0,0H14.134V15.714H0Z" transform="translate(-4.301 -4.297)" fill="#ecdbd0"/></g></g><g transform="translate(60 211)"><path d="M29.879,28.967,0,5.6,4.38,0,34.259,23.365Z" transform="translate(0.765 0.357)" fill="none"/><g clip-path="url(#bm)"><path d="M0,0H44.259V38.967H0Z" transform="translate(-4.235 -4.643)" fill="#ececec"/></g></g><g transform="translate(39 214)"><path d="M0,22.239,17.39,0,54.123,28.725,37.837,49.551A139.391,139.391,0,0,1,0,22.239Z" transform="translate(0.948 0.279)" fill="none"/><g clip-path="url(#bn)"><path d="M0,0H65.21V62.352H0Z" transform="translate(-5.138 -4.721)" fill="#535565"/></g></g><g transform="translate(60 210)"><path d="M10.353,13.7,0,5.6,4.38,0,14.732,8.1Z" transform="translate(0.104 0.84)" fill="none"/><g clip-path="url(#bo)"><path d="M0,0H24.732V23.7H0Z" transform="translate(-4.896 -4.16)" fill="#cfcfcf"/></g></g><g transform="translate(40 214)"><path d="M0,22.125,17.3,0,28.565,8.808l-17.985,23A139.83,139.83,0,0,1,0,22.125Z" transform="translate(0.022 0.468)" fill="none"/><g clip-path="url(#bp)"><path d="M0,0H39.741V42.436H0Z" transform="translate(-6.154 -4.532)" fill="#38414a"/></g></g></g></g></svg>