<svg xmlns="http://www.w3.org/2000/svg" width="294.013" height="48" viewBox="0 0 294.013 48"><g transform="translate(-17.242 -0.474)"><g transform="translate(0 0.474)" fill="#fff"><path d="M 288.4743347167969 47.5 L 23.65646362304688 47.5 C 20.9095401763916 47.5 19.18157958984375 46.98219299316406 18.37380981445312 45.91703796386719 C 17.08388710021973 44.21599960327148 17.9827709197998 41.00761413574219 19.12084770202637 36.94565200805664 C 20.12750244140625 33.35261535644531 21.38034820556641 28.88096237182617 21.38034820556641 24.14599990844727 C 21.38034820556641 19.43107604980469 20.18688583374023 15.11692333221436 19.13392448425293 11.31065368652344 C 17.97969436645508 7.138154029846191 17.06796264648438 3.842461585998535 18.39723205566406 2.095538377761841 C 19.21419334411621 1.021923065185547 20.93450164794922 0.5 23.65646362304688 0.5 L 288.4743347167969 0.5 C 291.4790344238281 0.5 294.3938903808594 1.120000004768372 297.1378479003906 2.342730760574341 C 299.790283203125 3.524692296981812 302.1729125976562 5.21734619140625 304.2196044921875 7.373653888702393 C 306.2680358886719 9.531807899475098 307.87646484375 12.04530811309814 309.0001831054688 14.84438419342041 C 310.1641845703125 17.74373054504395 310.75439453125 20.82411575317383 310.75439453125 24 C 310.75439453125 27.17588424682617 310.1641845703125 30.25626945495605 309.0001831054688 33.15561676025391 C 307.87646484375 35.95469284057617 306.2680358886719 38.46819305419922 304.2196044921875 40.62634658813477 C 302.1729125976562 42.78265380859375 299.790283203125 44.47530746459961 297.1378479003906 45.65726852416992 C 294.3938903808594 46.88000106811523 291.4790344238281 47.5 288.4743347167969 47.5 Z" stroke="none"/><path d="M 23.65646362304688 1 C 21.10125732421875 1 19.51107788085938 1.457386016845703 18.79510498046875 2.398307800292969 C 17.61593627929688 3.948001861572266 18.54269409179688 7.298152923583984 19.6158447265625 11.17734527587891 C 20.62472534179688 14.82434463500977 21.88034057617188 19.36319160461426 21.88034057617188 24.14599990844727 C 21.88034057617188 28.94965362548828 20.61721801757812 33.45800018310547 19.60226440429688 37.08053970336914 C 18.54522705078125 40.85338592529297 17.63232421875 44.11173248291016 18.77218627929688 45.61488342285156 C 19.47900390625 46.54692459106445 21.07666015625 47 23.65646362304688 47 L 288.4743347167969 47 C 291.408447265625 47 294.2548217773438 46.39457702636719 296.9342956542969 45.20053863525391 C 299.5264892578125 44.0454216003418 301.8556213378906 42.39061737060547 303.85693359375 40.28215408325195 C 305.8617248535156 38.16996002197266 307.4360656738281 35.70957565307617 308.5361633300781 32.96930694580078 C 309.67626953125 30.12946128845215 310.2543334960938 27.11176872253418 310.2543334960938 24 C 310.2543334960938 20.88823127746582 309.67626953125 17.87053871154785 308.5361633300781 15.03069305419922 C 307.4360656738281 12.29042434692383 305.8617248535156 9.830039978027344 303.85693359375 7.717845916748047 C 301.8556213378906 5.609386444091797 299.5264892578125 3.954578399658203 296.9342956542969 2.799461364746094 C 294.2548217773438 1.605422973632812 291.408447265625 1 288.4743347167969 1 L 23.65646362304688 1 M 23.65646362304688 0 L 288.4743347167969 0 C 301.0553894042969 0 311.2543334960938 10.74515533447266 311.2543334960938 24 C 311.2543334960938 37.25484466552734 301.0553894042969 48 288.4743347167969 48 L 23.65646362304688 48 C 11.07537841796875 48 20.88034057617188 37.40084838867188 20.88034057617188 24.14599990844727 C 20.88034057617188 10.89115524291992 11.07537841796875 0 23.65646362304688 0 Z" stroke="none" fill="#f3f3f3"/></g><g transform="translate(42 14.474)"><g transform="translate(0)"><path d="M19.435.582A1.933,1.933,0,0,0,17.5.079L1.408,4.76A1.919,1.919,0,0,0,.024,6.281a2.253,2.253,0,0,0,1,2.1L6.06,11.477a1.3,1.3,0,0,0,1.61-.193l5.763-5.8a.734.734,0,0,1,1.06,0,.763.763,0,0,1,0,1.067l-5.773,5.8a1.323,1.323,0,0,0-.193,1.619L11.6,19.054A1.91,1.91,0,0,0,13.263,20a2.073,2.073,0,0,0,.25-.01A1.949,1.949,0,0,0,15.144,18.6L19.916,2.525a1.964,1.964,0,0,0-.48-1.943" transform="translate(0 0)" fill="#a0a8ad"/></g></g></g></svg>