<svg xmlns="http://www.w3.org/2000/svg" width="372" height="48" viewBox="0 0 372 48"><g transform="translate(0 -0.474)"><g transform="translate(0 0.474)" fill="#eae8e8" stroke="#f3f3f3" stroke-miterlimit="10" stroke-width="1"><rect width="372" height="48" rx="24" stroke="none"/><rect x="0.5" y="0.5" width="371" height="47" rx="23.5" fill="none"/></g><g transform="translate(296 10)"><rect width="66" height="28" rx="14" transform="translate(0 0.474)" fill="#f4f4f4"/><g transform="translate(7 7)"><circle cx="7" cy="7" r="7" transform="translate(0 0.474)" fill="none" stroke="#c6d0d7" stroke-linecap="round" stroke-linejoin="round" stroke-miterlimit="10" stroke-width="1.4"/><path d="M0,0V4.2L2.8,5.6" transform="translate(7 2.8)" fill="none" stroke="#c6d0d7" stroke-linecap="round" stroke-linejoin="round" stroke-miterlimit="10" stroke-width="1.4"/></g><text transform="translate(30 18.473)" fill="#878b8e" font-size="12" font-family="SegoeUI, Segoe UI" letter-spacing="0.083em"><tspan x="0" y="0">Now</tspan></text></g><path d="M9.9,7.536v2.7c1.036.234,1.957.619,2.921.885V8.417c-1.032-.23-1.961-.615-2.921-.881ZM18.76,2.654A11.59,11.59,0,0,1,14.116,3.92c-2.123,0-3.882-1.381-6.557-1.381a7.717,7.717,0,0,0-2.7.476A2.223,2.223,0,1,0,1.515,4.043V19.367a.95.95,0,0,0,.953.953H3.1a.95.95,0,0,0,.953-.953V15.62a11.066,11.066,0,0,1,4.54-.877c2.127,0,3.882,1.381,6.557,1.381A8.293,8.293,0,0,0,20.014,14.5a1.266,1.266,0,0,0,.548-1.048V3.8A1.268,1.268,0,0,0,18.76,2.654ZM6.976,12.917a12.5,12.5,0,0,0-2.921.659v-2.8a11.355,11.355,0,0,1,2.921-.691ZM18.661,7.579a12.66,12.66,0,0,1-2.921.949V11.35a7.377,7.377,0,0,0,2.921-1.032v2.8a6.413,6.413,0,0,1-2.921,1.076V11.35a6.713,6.713,0,0,1-2.921-.222V13.8A23.157,23.157,0,0,0,9.9,12.957V10.238a8.822,8.822,0,0,0-2.921-.151V7.309a14.006,14.006,0,0,0-2.921.83v-2.8a11.366,11.366,0,0,1,2.921-.873V7.309A6.751,6.751,0,0,1,9.9,7.536V4.861a22.6,22.6,0,0,0,2.921.845V8.421a7.561,7.561,0,0,0,2.921.107V5.674a14.043,14.043,0,0,0,2.921-.893Z" transform="translate(13.861 14.003)" fill="#2889c5"/></g></svg>