<svg xmlns="http://www.w3.org/2000/svg" width="25.267" height="22.937" viewBox="0 0 25.267 22.937"><g transform="translate(-5 -5)"><path d="M30.267,9.506A4.751,4.751,0,0,0,25.3,5H9.963A4.751,4.751,0,0,0,5,9.506V23.431a4.751,4.751,0,0,0,4.963,4.506H25.3a4.751,4.751,0,0,0,4.963-4.506Zm-2.3,13.925A2.552,2.552,0,0,1,25.3,25.851H9.963A2.552,2.552,0,0,1,7.3,23.431V9.506A2.552,2.552,0,0,1,9.963,7.085H25.3A2.552,2.552,0,0,1,27.97,9.506Zm-6.819-.707A1.1,1.1,0,0,1,20,23.766H15.408a1.047,1.047,0,1,1,0-2.085h1.077V15.426H15.408a1.047,1.047,0,1,1,0-2.085h3.374v8.341H20A1.1,1.1,0,0,1,21.151,22.724ZM15.911,10.8a1.731,1.731,0,0,1,3.445,0,1.731,1.731,0,0,1-3.445,0Z" transform="translate(0 0)" fill="#41a1ca"/></g></svg>