<svg xmlns="http://www.w3.org/2000/svg" width="25.267" height="31.331" viewBox="0 0 25.267 31.331"><g transform="translate(-7 -1)"><path d="M24.58,17a7.58,7.58,0,1,0,7.58,7.58A7.589,7.589,0,0,0,24.58,17Zm0,14.149a6.547,6.547,0,0,1-4.729-2.021h9.459A6.547,6.547,0,0,1,24.58,31.149Zm-.756-7.286a1.5,1.5,0,0,1-.76-1.3V21.548a1.52,1.52,0,0,1,.492-1.118,1.5,1.5,0,0,1,1.161-.392A1.584,1.584,0,0,1,26.1,21.653v.906a1.5,1.5,0,0,1-.76,1.3l-.251.146v1.457l2.446.7a1.511,1.511,0,0,1,1.092,1.447v.505H20.537v-.505a1.511,1.511,0,0,1,1.092-1.447l2.446-.7V24.009Zm5.81,4.909v-1.16a2.526,2.526,0,0,0-1.824-2.419L26.1,24.7V24.57a2.529,2.529,0,0,0,1.011-2.011v-.906a2.6,2.6,0,0,0-2.3-2.622,2.527,2.527,0,0,0-2.751,2.516v1.011a2.529,2.529,0,0,0,1.011,2.011V24.7l-1.713.49a2.526,2.526,0,0,0-1.824,2.419v1.16a6.569,6.569,0,1,1,10.107,0Z" transform="translate(-4.947 -7.915)" fill="#41a1ca"/><path d="M30.751,4.032H26.11a1.514,1.514,0,0,0-1.423-1.011h-1.71a3.776,3.776,0,0,0-6.688,0H14.58a1.514,1.514,0,0,0-1.423,1.011H8.516A1.518,1.518,0,0,0,7,5.548V30.815a1.518,1.518,0,0,0,1.516,1.516H30.751a1.518,1.518,0,0,0,1.516-1.516V5.548A1.518,1.518,0,0,0,30.751,4.032ZM29.235,25.256H25.192V29.3H10.032V7.064h3.032V8.075H26.2V7.064h3.032Zm-.715,1.011L26.2,28.584V26.267ZM14.075,4.537a.506.506,0,0,1,.505-.505h2.334l.246-.493a2.766,2.766,0,0,1,4.947,0l.246.493h2.334a.506.506,0,0,1,.505.505V7.064H14.075ZM31.256,30.815a.506.506,0,0,1-.505.505H8.516a.506.506,0,0,1-.505-.505V5.548a.506.506,0,0,1,.505-.505h4.548V6.053H9.021V30.309H25.907l4.339-4.339V6.053H26.2V5.043h4.548a.506.506,0,0,1,.505.505Z" fill="#41a1ca"/><rect width="1.011" height="1.011" transform="translate(23.171 25.256)" fill="#41a1ca"/><rect width="11.117" height="1.011" transform="translate(11.043 25.256)" fill="#41a1ca"/><rect width="11.117" height="1.011" transform="translate(11.043 27.277)" fill="#41a1ca"/><rect width="1.011" height="1.011" transform="translate(23.171 27.277)" fill="#41a1ca"/><path d="M30.516,5a1.516,1.516,0,1,0,1.516,1.516A1.518,1.518,0,0,0,30.516,5Zm0,2.021a.505.505,0,1,1,.505-.505A.506.506,0,0,1,30.516,7.021Z" transform="translate(-10.883 -1.979)" fill="#41a1ca"/><rect width="1.011" height="1.011" transform="translate(15.591 5.043)" fill="#41a1ca"/><rect width="1.011" height="1.011" transform="translate(22.665 5.043)" fill="#41a1ca"/></g></svg>