<svg xmlns="http://www.w3.org/2000/svg" width="32" height="29.832" viewBox="0 0 32 29.832"><g transform="translate(-8 -10.168)"><path d="M12,40H36a4,4,0,0,0,4-4V20a4,4,0,0,0-3.07-3.88l-2.57-4.45a3,3,0,0,0-4.1-1.1l-1,.6a2.93,2.93,0,0,0-1.93-.73,3,3,0,0,0-1.5.4l-1,.6a2.956,2.956,0,0,0-3.43-.33L12.86,16H12a4,4,0,0,0-4,4V36A4,4,0,0,0,12,40ZM34,24a4,4,0,0,0,0,8v1a1,1,0,0,1-1,1H10V22H33a1,1,0,0,1,1,1Zm-2,4a2,2,0,0,1,2-2h4v4H34A2,2,0,0,1,32,28Zm-.74-15.7a1.013,1.013,0,0,1,1.37.37L34.55,16H32.23l-1.84-3.2Zm-4.47.27.13-.05a.959.959,0,0,1,.97.12,1.12,1.12,0,0,1,.27.3L29.93,16H27.62l-1.69-2.93Zm-4.46.27a1,1,0,0,1,.5-.13h.23l.16.06h.08a.65.65,0,0,1,.15.1l.07.05a1.41,1.41,0,0,1,.18.23L25.31,16H16.86ZM12,18H36a2,2,0,0,1,2,2v4H36V23a3,3,0,0,0-3-3H10A2,2,0,0,1,12,18ZM33,36a3,3,0,0,0,3-3V32h2v4a2,2,0,0,1-2,2H12a2,2,0,0,1-2-2Z" fill="#369cc7"/><circle cx="1" cy="1" r="1" transform="translate(33 27)" fill="#369cc7"/></g></svg>