<svg xmlns="http://www.w3.org/2000/svg" width="17.684" height="28" viewBox="0 0 17.684 28"><g transform="translate(-6 -2)"><path d="M14.842,24.105a1.474,1.474,0,0,1-1.474-1.474v-.309a6.926,6.926,0,0,1,4.053-6.175,5.895,5.895,0,0,0-2.579-11.2h0a5.9,5.9,0,0,0-5.895,5.895,1.474,1.474,0,0,1-2.947,0A8.842,8.842,0,0,1,14.842,2h0a8.96,8.96,0,0,1,8.842,8.842,8.842,8.842,0,0,1-4.966,7.943,4.023,4.023,0,0,0-2.4,3.537v.309A1.474,1.474,0,0,1,14.842,24.105Z" fill="#369cc7"/><circle cx="1.474" cy="1.474" r="1.474" transform="translate(13.368 27.053)" fill="#369cc7"/></g></svg>