<svg xmlns="http://www.w3.org/2000/svg" width="455" height="434.309" viewBox="0 0 455 434.309">
  <path id="fav" d="M326.632,10.346A128.387,128.387,0,0,0,227.5,57.266,128.308,128.308,0,0,0,0,138.714C0,194.14,33.05,258.249,98.23,329.26c50.161,54.647,104.728,96.959,120.257,108.626l9.01,6.769,9.01-6.768c15.529-11.667,70.1-53.978,120.26-108.625C421.949,258.251,455,194.141,455,138.714A128.513,128.513,0,0,0,326.632,10.346Zm8.034,298.628C293.407,353.922,249.018,390.257,227.5,407c-21.52-16.746-65.907-53.082-107.166-98.03C61.236,244.592,30,185.717,30,138.714a98.322,98.322,0,0,1,184.381-47.6L227.5,114.783l13.119-23.666A98.322,98.322,0,0,1,425,138.714C425,185.719,393.763,244.594,334.666,308.974Z" transform="translate(0 -10.346)" fill="#369cc7"/>
</svg>
