<svg xmlns="http://www.w3.org/2000/svg" width="26.505" height="26.505" viewBox="0 0 26.505 26.505"><g transform="translate(-21 194)"><path d="M21-186.427v7.573H36.146V-194H21Zm13.253,0v5.68H22.893v-11.359H34.253Z" fill="#41a1ca"/><path d="M41.109-171.267,39.2-166.534h1.814l.379-.947.379-.947h4.26l.379.947.379.947H48.6l-1.909-4.733L44.8-176H43Zm3.487-.757c.316.8.568,1.515.568,1.578a3.081,3.081,0,0,1-1.262.126,3.081,3.081,0,0,1-1.262-.126,18.609,18.609,0,0,1,1.262-3.029A6.568,6.568,0,0,1,44.6-172.024Z" transform="translate(-15.329 -15.16)" fill="#41a1ca"/><path d="M98.68-121.053v.947h7.573v11.359H94.893v-7.573H93v9.466h15.146V-122H98.68Z" transform="translate(-60.641 -60.641)" fill="#41a1ca"/><path d="M114.782-103.053v.947H111v1.893h2.019l.11.71a5.265,5.265,0,0,0,.568,1.593c.252.489.458.9.458.931a5.176,5.176,0,0,1-2.083.5L111-96.38v.915c0,1.057-.095,1.01,1.657.773a7.534,7.534,0,0,0,2.572-.757,1,1,0,0,1,1.025,0,7.888,7.888,0,0,0,2.477.757c1.783.268,1.735.3,1.735-.773v-.915l-1.073-.095a5.176,5.176,0,0,1-2.083-.5c0-.032.205-.442.458-.931a5.266,5.266,0,0,0,.568-1.593l.11-.71h2.019v-1.893h-3.786V-104h-1.893Zm1.751,3.345c-.158.663-.615,1.546-.8,1.546s-.647-.884-.8-1.546l-.11-.5h1.83Z" transform="translate(-75.796 -75.801)" fill="#41a1ca"/></g></svg>