<svg xmlns="http://www.w3.org/2000/svg" width="28.003" height="35.731" viewBox="0 0 28.003 35.731"><g transform="translate(-1.501)"><g transform="translate(1.501)"><path d="M72.48,16.683a.911.911,0,0,0,.646-.268l5.448-5.448a6.449,6.449,0,1,0-1.091-1.493l-5.649,5.649a.914.914,0,0,0,.646,1.56ZM83.193,1.827a4.632,4.632,0,1,1-4.632,4.632A4.637,4.637,0,0,1,83.193,1.827Z" transform="translate(-61.649 0)" fill="#369cc7"/><path d="M16.551,121.741l-5.385-5.384a6.446,6.446,0,1,0-1.58,1l5.673,5.673a.914.914,0,0,0,1.292-1.292ZM2.328,111.461a4.632,4.632,0,1,1,4.632,4.632A4.637,4.637,0,0,1,2.328,111.461Z" transform="translate(-0.501 -92.522)" fill="#fb4a5e"/><path d="M111.963,210a6.459,6.459,0,1,0,6.459,6.459A6.466,6.466,0,0,0,111.963,210Zm0,11.091a4.632,4.632,0,1,1,4.632-4.632A4.637,4.637,0,0,1,111.963,221.1Z" transform="translate(-90.419 -187.192)" fill="#369cc7"/></g></g></svg>