<svg xmlns="http://www.w3.org/2000/svg" width="28.008" height="33.408" viewBox="0 0 28.008 33.408"><g transform="translate(-18.204 190.633)"><path d="M30.143-190.432a13.954,13.954,0,0,0-11.65,16.184,14.133,14.133,0,0,0,7.527,10.108,20.138,20.138,0,0,0,3.513,1.2c.358.072.663.448,1.308,1.613a13.225,13.225,0,0,0,1.129,1.756c.341.287.645-.072,1.774-2.061.627-1.093.878-1.38,1.2-1.38a14.512,14.512,0,0,0,3.71-1.254A14.183,14.183,0,0,0,46-178.6a13.992,13.992,0,0,0-10.556-11.578A18.128,18.128,0,0,0,30.143-190.432Zm5.753,1.4a13.146,13.146,0,0,1,7.151,5.395,12.928,12.928,0,0,1-1.7,16.148,13.7,13.7,0,0,1-6.47,3.513c-1.022.161-1.111.233-1.918,1.7a6.38,6.38,0,0,1-.753,1.237,8.088,8.088,0,0,1-.807-1.291,5.752,5.752,0,0,0-.986-1.4,12.815,12.815,0,0,0-1.488-.43,12.626,12.626,0,0,1-7.563-5.484,12.885,12.885,0,0,1,7.1-19.338,9.6,9.6,0,0,1,4.284-.466A13.6,13.6,0,0,1,35.9-189.034Z" transform="translate(0 0)" fill="#369cc7" stroke="#707070" stroke-width="0.1"/><path d="M44.826-172.608a11.446,11.446,0,0,0-6.363,4.032,11.175,11.175,0,0,0-2.043,5.054A10.714,10.714,0,0,0,45.185-151.6a10.578,10.578,0,0,0,10.682-4.588,9.837,9.837,0,0,0,1.738-4.678,10.7,10.7,0,0,0-8.531-11.739A9.435,9.435,0,0,0,44.826-172.608Zm4.176.986a10.04,10.04,0,0,1,4.839,2.67,9.574,9.574,0,0,1,0,13.657,9.574,9.574,0,0,1-13.657,0,9.574,9.574,0,0,1,0-13.657,10.257,10.257,0,0,1,4.678-2.653A13.367,13.367,0,0,1,49-171.622Z" transform="translate(-14.808 -14.508)" fill="#369cc7" stroke="#707070" stroke-width="0.1"/><path d="M55.452-133.6a2.042,2.042,0,0,0-1.093,2.366,2.166,2.166,0,0,0,1.792,1.541c.842.143,1.273.538,1.273,1.147a1.1,1.1,0,0,1-1.111,1.075c-.448,0-1.039-.484-1.039-.86,0-.126-.251-.215-.556-.215-.484,0-.538.054-.43.394a2.254,2.254,0,0,0,1.47,1.559,1.35,1.35,0,0,0,1.416-.09,2.012,2.012,0,0,0,1.165-2.4,2.167,2.167,0,0,0-1.792-1.541c-.842-.143-1.273-.538-1.273-1.147a1.1,1.1,0,0,1,1.111-1.075c.448,0,1.04.484,1.04.86,0,.125.251.215.556.215.484,0,.538-.054.43-.412a2.253,2.253,0,0,0-1.255-1.487A1.483,1.483,0,0,0,55.452-133.6Z" transform="translate(-29.52 -46.474)" fill="#369cc7" stroke="#707070" stroke-width="0.1"/><path d="M85.254-133.356c-.986.5-1.254,1.254-1.254,3.459,0,2.258.269,2.957,1.326,3.477a1.35,1.35,0,0,0,1.416.09c1.219-.43,1.452-.95,1.523-3.28a6.84,6.84,0,0,0-.2-2.671A2.017,2.017,0,0,0,85.254-133.356ZM86.9-132.28c.269.251.323.573.323,2.348,0,2.276-.179,2.724-1.039,2.724-.95,0-1.111-.394-1.111-2.653,0-1.667.054-2.133.3-2.4A1.127,1.127,0,0,1,86.9-132.28Z" transform="translate(-53.946 -46.735)" fill="#369cc7" stroke="#707070" stroke-width="0.1"/><path d="M115.452-133.6a2.041,2.041,0,0,0-1.093,2.366,2.166,2.166,0,0,0,1.792,1.541c.842.143,1.273.538,1.273,1.147a1.1,1.1,0,0,1-1.111,1.075c-.448,0-1.039-.484-1.039-.86,0-.126-.251-.215-.556-.215-.484,0-.538.054-.43.394a2.254,2.254,0,0,0,1.47,1.559,1.35,1.35,0,0,0,1.416-.09,2.013,2.013,0,0,0,1.165-2.4,2.167,2.167,0,0,0-1.792-1.541c-.842-.143-1.273-.538-1.273-1.147a1.1,1.1,0,0,1,1.111-1.075c.448,0,1.04.484,1.04.86,0,.125.251.215.556.215.484,0,.538-.054.43-.412a2.253,2.253,0,0,0-1.254-1.487A1.483,1.483,0,0,0,115.452-133.6Z" transform="translate(-78.767 -46.474)" fill="#369cc7" stroke="#707070" stroke-width="0.1"/><path d="M72-10.462v.538h8.6V-11H72Z" transform="translate(-44.097 -147.351)" fill="#369cc7" stroke="#707070" stroke-width="0.1"/></g></svg>