<svg xmlns="http://www.w3.org/2000/svg" width="25.267" height="27.564" viewBox="0 0 25.267 27.564"><g transform="translate(-1)"><path d="M14.782,0h-2.3A3.445,3.445,0,0,0,9.039,3.445V4.594H2.148a1.148,1.148,0,1,0,0,2.3H3.3V22.97a4.594,4.594,0,0,0,4.594,4.594H19.376A4.594,4.594,0,0,0,23.97,22.97V6.891h1.148a1.148,1.148,0,0,0,0-2.3H18.227V3.445A3.445,3.445,0,0,0,14.782,0ZM11.336,3.445A1.148,1.148,0,0,1,12.485,2.3h2.3A1.148,1.148,0,0,1,15.93,3.445V4.594H11.336ZM21.673,22.97a2.3,2.3,0,0,1-2.3,2.3H7.891a2.3,2.3,0,0,1-2.3-2.3V6.891H21.673Z" transform="translate(0 0)" fill="#41a1ca"/><path d="M12.148,9A1.148,1.148,0,0,0,11,10.148v9.188a1.148,1.148,0,1,0,2.3,0V10.148A1.148,1.148,0,0,0,12.148,9Z" transform="translate(1.485 1.336)" fill="#41a1ca"/><path d="M15,19.336a1.148,1.148,0,1,0,2.3,0V10.148a1.148,1.148,0,1,0-2.3,0Z" transform="translate(2.079 1.336)" fill="#41a1ca"/><path d="M8.148,9A1.148,1.148,0,0,0,7,10.148v9.188a1.148,1.148,0,1,0,2.3,0V10.148A1.148,1.148,0,0,0,8.148,9Z" transform="translate(0.891 1.336)" fill="#41a1ca"/></g></svg>